<svg width="20" height="20" viewBox="0 0 20 20" fill="none" xmlns="http://www.w3.org/2000/svg">
<path d="M8.50352 1.55956L9.49448 0.568603C9.91407 0.149007 10.5926 0.149007 11.0077 0.568603L19.6853 9.24174C20.1049 9.66134 20.1049 10.3398 19.6853 10.755L11.0077 19.4326C10.5881 19.8522 9.90961 19.8522 9.49448 19.4326L8.50352 18.4416C8.07946 18.0175 8.08838 17.3257 8.52137 16.9105L13.9002 11.7861H1.07131C0.477625 11.7861 0 11.3085 0 10.7148V9.28638C0 8.6927 0.477625 8.21507 1.07131 8.21507H13.9002L8.52137 3.09064C8.08392 2.67551 8.07499 1.98362 8.50352 1.55956Z" fill="currentColor"/>
</svg>
