<svg width="480" height="176" viewBox="0 0 480 176" fill="none" xmlns="http://www.w3.org/2000/svg">
<path d="M0 96C0 51.8172 35.8172 16 80 16V16C124.183 16 160 51.8172 160 96V96C160 140.183 124.183 176 80 176V176C35.8172 176 0 140.183 0 96V96Z" fill="#F4EDEA"/>
<path fill-rule="evenodd" clip-rule="evenodd" d="M80 168C119.764 168 152 135.764 152 95.9999C152 56.2359 119.764 24 80 24C40.236 24 8 56.2359 8 95.9999C8 135.764 40.236 168 80 168ZM80 176C124.184 176 160 140.184 160 95.9999C160 51.8159 124.184 16 80 16C35.816 16 0 51.8159 0 95.9999C0 140.184 35.816 176 80 176Z" fill="#06BCC1"/>
<path d="M32 142.52C32 138.388 35.088 134.896 39.2 134.44C70.06 131.024 90.08 131.332 120.872 134.516C122.41 134.677 123.867 135.283 125.066 136.259C126.265 137.235 127.154 138.539 127.624 140.012C128.094 141.485 128.125 143.063 127.713 144.553C127.301 146.043 126.464 147.381 125.304 148.404C88.964 180.08 68.196 179.644 34.56 148.436C32.92 146.916 32 144.756 32 142.524V142.52Z" fill="#06BCC1"/>
<path fill-rule="evenodd" clip-rule="evenodd" d="M120.46 138.492C89.912 135.332 70.18 135.036 39.636 138.416C37.58 138.644 36 140.4 36 142.524C36 143.668 36.476 144.752 37.28 145.504C53.952 160.968 66.584 167.956 78.932 168C91.324 168.044 104.636 161.112 122.676 145.392C123.249 144.882 123.662 144.216 123.864 143.476C124.066 142.736 124.048 141.953 123.813 141.222C123.579 140.492 123.137 139.845 122.541 139.361C121.946 138.877 121.223 138.576 120.46 138.496V138.492ZM38.76 130.464C69.944 127.012 90.256 127.324 121.288 130.536C123.601 130.777 125.794 131.688 127.597 133.156C129.401 134.625 130.737 136.587 131.443 138.803C132.148 141.019 132.192 143.393 131.57 145.634C130.947 147.875 129.684 149.885 127.936 151.42C109.636 167.372 94.396 176.06 78.908 176C63.376 175.944 48.808 167.108 31.844 151.368C30.6294 150.236 29.6612 148.867 28.9998 147.344C28.3384 145.822 27.998 144.18 28 142.52C27.9942 139.537 29.0888 136.658 31.0743 134.433C33.0597 132.207 35.7964 130.793 38.76 130.46V130.464Z" fill="#06BCC1"/>
<path d="M112 79.9998C112 88.4867 108.629 96.626 102.627 102.627C96.6263 108.628 88.4869 112 80 112C71.5131 112 63.3737 108.628 57.3726 102.627C51.3714 96.626 48 88.4867 48 79.9998C48 71.5129 51.3714 63.3736 57.3726 57.3724C63.3737 51.3713 71.5131 47.9999 80 47.9999C88.4869 47.9999 96.6263 51.3713 102.627 57.3724C108.629 63.3736 112 71.5129 112 79.9998V79.9998Z" fill="#06BCC1"/>
<path fill-rule="evenodd" clip-rule="evenodd" d="M80 104C86.3652 104 92.4697 101.471 96.9706 96.9704C101.471 92.4695 104 86.365 104 79.9998C104 73.6346 101.471 67.5302 96.9706 63.0293C92.4697 58.5284 86.3652 55.9999 80 55.9999C73.6348 55.9999 67.5303 58.5284 63.0294 63.0293C58.5286 67.5302 56 73.6346 56 79.9998C56 86.365 58.5286 92.4695 63.0294 96.9704C67.5303 101.471 73.6348 104 80 104V104ZM80 112C88.4869 112 96.6263 108.628 102.627 102.627C108.629 96.626 112 88.4867 112 79.9998C112 71.5129 108.629 63.3736 102.627 57.3724C96.6263 51.3713 88.4869 47.9999 80 47.9999C71.5131 47.9999 63.3737 51.3713 57.3726 57.3724C51.3714 63.3736 48 71.5129 48 79.9998C48 88.4867 51.3714 96.626 57.3726 102.627C63.3737 108.628 71.5131 112 80 112V112Z" fill="#06BCC1"/>
<path d="M72 89C72 44.8172 107.817 9 152 9V9C196.183 9 232 44.8172 232 89V89C232 133.183 196.183 169 152 169V169C107.817 169 72 133.183 72 89V89Z" fill="#F4EDEA"/>
<path fill-rule="evenodd" clip-rule="evenodd" d="M152 161C191.764 161 224 128.764 224 88.9999C224 49.2359 191.764 17 152 17C112.236 17 80 49.2359 80 88.9999C80 128.764 112.236 161 152 161ZM152 169C196.184 169 232 133.184 232 88.9999C232 44.8159 196.184 9 152 9C107.816 9 72 44.8159 72 88.9999C72 133.184 107.816 169 152 169Z" fill="#06BCC1"/>
<path d="M104 135.52C104 131.388 107.088 127.896 111.2 127.44C142.06 124.024 162.08 124.332 192.872 127.516C194.41 127.677 195.867 128.283 197.066 129.259C198.265 130.235 199.154 131.539 199.624 133.012C200.094 134.485 200.125 136.063 199.713 137.553C199.301 139.043 198.464 140.381 197.304 141.404C160.964 173.08 140.196 172.644 106.56 141.436C104.92 139.916 104 137.756 104 135.524V135.52Z" fill="#06BCC1"/>
<path fill-rule="evenodd" clip-rule="evenodd" d="M192.46 131.492C161.912 128.332 142.18 128.036 111.636 131.416C109.58 131.644 108 133.4 108 135.524C108 136.668 108.476 137.752 109.28 138.504C125.952 153.968 138.584 160.956 150.932 161C163.324 161.044 176.636 154.112 194.676 138.392C195.249 137.882 195.662 137.216 195.864 136.476C196.066 135.736 196.048 134.953 195.813 134.222C195.579 133.492 195.137 132.845 194.541 132.361C193.946 131.877 193.223 131.576 192.46 131.496V131.492ZM110.76 123.464C141.944 120.012 162.256 120.324 193.288 123.536C195.601 123.777 197.794 124.688 199.597 126.156C201.401 127.625 202.737 129.587 203.443 131.803C204.148 134.019 204.192 136.393 203.57 138.634C202.947 140.875 201.684 142.885 199.936 144.42C181.636 160.372 166.396 169.06 150.908 169C135.376 168.944 120.808 160.108 103.844 144.368C102.629 143.236 101.661 141.867 101 140.344C100.338 138.822 99.998 137.18 100 135.52C99.9942 132.537 101.089 129.658 103.074 127.433C105.06 125.207 107.796 123.793 110.76 123.46V123.464Z" fill="#06BCC1"/>
<path d="M184 72.9998C184 81.4867 180.629 89.626 174.627 95.6272C168.626 101.628 160.487 105 152 105C143.513 105 135.374 101.628 129.373 95.6272C123.371 89.626 120 81.4867 120 72.9998C120 64.5129 123.371 56.3736 129.373 50.3724C135.374 44.3713 143.513 40.9999 152 40.9999C160.487 40.9999 168.626 44.3713 174.627 50.3724C180.629 56.3736 184 64.5129 184 72.9998V72.9998Z" fill="#06BCC1"/>
<path fill-rule="evenodd" clip-rule="evenodd" d="M152 96.9998C158.365 96.9998 164.47 94.4712 168.971 89.9704C173.471 85.4695 176 79.365 176 72.9998C176 66.6346 173.471 60.5302 168.971 56.0293C164.47 51.5284 158.365 48.9999 152 48.9999C145.635 48.9999 139.53 51.5284 135.029 56.0293C130.529 60.5302 128 66.6346 128 72.9998C128 79.365 130.529 85.4695 135.029 89.9704C139.53 94.4712 145.635 96.9998 152 96.9998V96.9998ZM152 105C160.487 105 168.626 101.628 174.627 95.6272C180.629 89.626 184 81.4867 184 72.9998C184 64.5129 180.629 56.3736 174.627 50.3724C168.626 44.3713 160.487 40.9999 152 40.9999C143.513 40.9999 135.374 44.3713 129.373 50.3724C123.371 56.3736 120 64.5129 120 72.9998C120 81.4867 123.371 89.626 129.373 95.6272C135.374 101.628 143.513 105 152 105V105Z" fill="#06BCC1"/>
<path d="M160 80C160 35.8172 195.817 0 240 0V0C284.183 0 320 35.8172 320 80V80C320 124.183 284.183 160 240 160V160C195.817 160 160 124.183 160 80V80Z" fill="#F4EDEA"/>
<path fill-rule="evenodd" clip-rule="evenodd" d="M240 152C279.764 152 312 119.764 312 79.9999C312 40.2359 279.764 7.99999 240 7.99999C200.236 7.99999 168 40.2359 168 79.9999C168 119.764 200.236 152 240 152ZM240 160C284.184 160 320 124.184 320 79.9999C320 35.8159 284.184 0 240 0C195.816 0 160 35.8159 160 79.9999C160 124.184 195.816 160 240 160Z" fill="#06BCC1"/>
<path d="M192 126.52C192 122.388 195.088 118.896 199.2 118.44C230.06 115.024 250.08 115.332 280.872 118.516C282.41 118.677 283.867 119.283 285.066 120.259C286.265 121.235 287.154 122.539 287.624 124.012C288.094 125.485 288.125 127.063 287.713 128.553C287.301 130.043 286.464 131.381 285.304 132.404C248.964 164.08 228.196 163.644 194.56 132.436C192.92 130.916 192 128.756 192 126.524V126.52Z" fill="#06BCC1"/>
<path fill-rule="evenodd" clip-rule="evenodd" d="M280.46 122.492C249.912 119.332 230.18 119.036 199.636 122.416C197.58 122.644 196 124.4 196 126.524C196 127.668 196.476 128.752 197.28 129.504C213.952 144.968 226.584 151.956 238.932 152C251.324 152.044 264.636 145.112 282.676 129.392C283.249 128.882 283.662 128.216 283.864 127.476C284.066 126.736 284.048 125.953 283.813 125.222C283.579 124.492 283.137 123.845 282.541 123.361C281.946 122.877 281.223 122.576 280.46 122.496V122.492ZM198.76 114.464C229.944 111.012 250.256 111.324 281.288 114.536C283.601 114.777 285.794 115.688 287.597 117.156C289.401 118.625 290.737 120.587 291.443 122.803C292.148 125.019 292.192 127.393 291.57 129.634C290.947 131.875 289.684 133.885 287.936 135.42C269.636 151.372 254.396 160.06 238.908 160C223.376 159.944 208.808 151.108 191.844 135.368C190.629 134.236 189.661 132.867 189 131.344C188.338 129.822 187.998 128.18 188 126.52C187.994 123.537 189.089 120.658 191.074 118.433C193.06 116.207 195.796 114.793 198.76 114.46V114.464Z" fill="#06BCC1"/>
<path d="M272 63.9998C272 72.4867 268.629 80.626 262.627 86.6272C256.626 92.6283 248.487 95.9998 240 95.9998C231.513 95.9998 223.374 92.6283 217.373 86.6272C211.371 80.626 208 72.4867 208 63.9998C208 55.5129 211.371 47.3736 217.373 41.3724C223.374 35.3713 231.513 31.9999 240 31.9999C248.487 31.9999 256.626 35.3713 262.627 41.3724C268.629 47.3736 272 55.5129 272 63.9998V63.9998Z" fill="#06BCC1"/>
<path fill-rule="evenodd" clip-rule="evenodd" d="M240 87.9998C246.365 87.9998 252.47 85.4712 256.971 80.9704C261.471 76.4695 264 70.365 264 63.9998C264 57.6346 261.471 51.5302 256.971 47.0293C252.47 42.5284 246.365 39.9999 240 39.9999C233.635 39.9999 227.53 42.5284 223.029 47.0293C218.529 51.5302 216 57.6346 216 63.9998C216 70.365 218.529 76.4695 223.029 80.9704C227.53 85.4712 233.635 87.9998 240 87.9998V87.9998ZM240 95.9998C248.487 95.9998 256.626 92.6283 262.627 86.6272C268.629 80.626 272 72.4867 272 63.9998C272 55.5129 268.629 47.3736 262.627 41.3724C256.626 35.3713 248.487 31.9999 240 31.9999C231.513 31.9999 223.374 35.3713 217.373 41.3724C211.371 47.3736 208 55.5129 208 63.9998C208 72.4867 211.371 80.626 217.373 86.6272C223.374 92.6283 231.513 95.9998 240 95.9998V95.9998Z" fill="#06BCC1"/>
<path d="M480 96C480 51.8172 444.183 16 400 16V16C355.817 16 320 51.8172 320 96V96C320 140.183 355.817 176 400 176V176C444.183 176 480 140.183 480 96V96Z" fill="#F4EDEA"/>
<path fill-rule="evenodd" clip-rule="evenodd" d="M400 168C360.236 168 328 135.764 328 95.9999C328 56.2359 360.236 24 400 24C439.764 24 472 56.2359 472 95.9999C472 135.764 439.764 168 400 168ZM400 176C355.816 176 320 140.184 320 95.9999C320 51.8159 355.816 16 400 16C444.184 16 480 51.8159 480 95.9999C480 140.184 444.184 176 400 176Z" fill="#06BCC1"/>
<path d="M448 142.52C448 138.388 444.912 134.896 440.8 134.44C409.94 131.024 389.92 131.332 359.128 134.516C357.59 134.677 356.133 135.283 354.934 136.259C353.735 137.235 352.846 138.539 352.376 140.012C351.906 141.485 351.875 143.063 352.287 144.553C352.699 146.043 353.536 147.381 354.696 148.404C391.036 180.08 411.804 179.644 445.44 148.436C447.08 146.916 448 144.756 448 142.524V142.52Z" fill="#06BCC1"/>
<path fill-rule="evenodd" clip-rule="evenodd" d="M359.54 138.492C390.088 135.332 409.82 135.036 440.364 138.416C442.42 138.644 444 140.4 444 142.524C444 143.668 443.524 144.752 442.72 145.504C426.048 160.968 413.416 167.956 401.068 168C388.676 168.044 375.364 161.112 357.324 145.392C356.751 144.882 356.338 144.216 356.136 143.476C355.934 142.736 355.952 141.953 356.187 141.222C356.421 140.492 356.863 139.845 357.459 139.361C358.054 138.877 358.777 138.576 359.54 138.496V138.492ZM441.24 130.464C410.056 127.012 389.744 127.324 358.712 130.536C356.399 130.777 354.206 131.688 352.403 133.156C350.599 134.625 349.263 136.587 348.557 138.803C347.852 141.019 347.808 143.393 348.43 145.634C349.053 147.875 350.316 149.885 352.064 151.42C370.364 167.372 385.604 176.06 401.092 176C416.624 175.944 431.192 167.108 448.156 151.368C449.371 150.236 450.339 148.867 451 147.344C451.662 145.822 452.002 144.18 452 142.52C452.006 139.537 450.911 136.658 448.926 134.433C446.94 132.207 444.204 130.793 441.24 130.46V130.464Z" fill="#06BCC1"/>
<path d="M368 79.9998C368 88.4867 371.371 96.626 377.373 102.627C383.374 108.628 391.513 112 400 112C408.487 112 416.626 108.628 422.627 102.627C428.629 96.626 432 88.4867 432 79.9998C432 71.5129 428.629 63.3736 422.627 57.3724C416.626 51.3713 408.487 47.9999 400 47.9999C391.513 47.9999 383.374 51.3713 377.373 57.3724C371.371 63.3736 368 71.5129 368 79.9998V79.9998Z" fill="#06BCC1"/>
<path fill-rule="evenodd" clip-rule="evenodd" d="M400 104C393.635 104 387.53 101.471 383.029 96.9704C378.529 92.4695 376 86.365 376 79.9998C376 73.6346 378.529 67.5302 383.029 63.0293C387.53 58.5284 393.635 55.9999 400 55.9999C406.365 55.9999 412.47 58.5284 416.971 63.0293C421.471 67.5302 424 73.6346 424 79.9998C424 86.365 421.471 92.4695 416.971 96.9704C412.47 101.471 406.365 104 400 104V104ZM400 112C391.513 112 383.374 108.628 377.373 102.627C371.371 96.626 368 88.4867 368 79.9998C368 71.5129 371.371 63.3736 377.373 57.3724C383.374 51.3713 391.513 47.9999 400 47.9999C408.487 47.9999 416.626 51.3713 422.627 57.3724C428.629 63.3736 432 71.5129 432 79.9998C432 88.4867 428.629 96.626 422.627 102.627C416.626 108.628 408.487 112 400 112V112Z" fill="#06BCC1"/>
<path d="M408 89C408 44.8172 372.183 9 328 9V9C283.817 9 248 44.8172 248 89V89C248 133.183 283.817 169 328 169V169C372.183 169 408 133.183 408 89V89Z" fill="#F4EDEA"/>
<path fill-rule="evenodd" clip-rule="evenodd" d="M328 161C288.236 161 256 128.764 256 88.9999C256 49.2359 288.236 17 328 17C367.764 17 400 49.2359 400 88.9999C400 128.764 367.764 161 328 161ZM328 169C283.816 169 248 133.184 248 88.9999C248 44.8159 283.816 9 328 9C372.184 9 408 44.8159 408 88.9999C408 133.184 372.184 169 328 169Z" fill="#06BCC1"/>
<path d="M376 135.52C376 131.388 372.912 127.896 368.8 127.44C337.94 124.024 317.92 124.332 287.128 127.516C285.59 127.677 284.133 128.283 282.934 129.259C281.735 130.235 280.846 131.539 280.376 133.012C279.906 134.485 279.875 136.063 280.287 137.553C280.699 139.043 281.536 140.381 282.696 141.404C319.036 173.08 339.804 172.644 373.44 141.436C375.08 139.916 376 137.756 376 135.524V135.52Z" fill="#06BCC1"/>
<path fill-rule="evenodd" clip-rule="evenodd" d="M287.54 131.492C318.088 128.332 337.82 128.036 368.364 131.416C370.42 131.644 372 133.4 372 135.524C372 136.668 371.524 137.752 370.72 138.504C354.048 153.968 341.416 160.956 329.068 161C316.676 161.044 303.364 154.112 285.324 138.392C284.751 137.882 284.338 137.216 284.136 136.476C283.934 135.736 283.952 134.953 284.187 134.222C284.421 133.492 284.863 132.845 285.459 132.361C286.054 131.877 286.777 131.576 287.54 131.496V131.492ZM369.24 123.464C338.056 120.012 317.744 120.324 286.712 123.536C284.399 123.777 282.206 124.688 280.403 126.156C278.599 127.625 277.263 129.587 276.557 131.803C275.852 134.019 275.808 136.393 276.43 138.634C277.053 140.875 278.316 142.885 280.064 144.42C298.364 160.372 313.604 169.06 329.092 169C344.624 168.944 359.192 160.108 376.156 144.368C377.371 143.236 378.339 141.867 379 140.344C379.662 138.822 380.002 137.18 380 135.52C380.006 132.537 378.911 129.658 376.926 127.433C374.94 125.207 372.204 123.793 369.24 123.46V123.464Z" fill="#06BCC1"/>
<path d="M296 72.9998C296 81.4867 299.371 89.626 305.373 95.6272C311.374 101.628 319.513 105 328 105C336.487 105 344.626 101.628 350.627 95.6272C356.629 89.626 360 81.4867 360 72.9998C360 64.5129 356.629 56.3736 350.627 50.3724C344.626 44.3713 336.487 40.9999 328 40.9999C319.513 40.9999 311.374 44.3713 305.373 50.3724C299.371 56.3736 296 64.5129 296 72.9998V72.9998Z" fill="#06BCC1"/>
<path fill-rule="evenodd" clip-rule="evenodd" d="M328 96.9998C321.635 96.9998 315.53 94.4712 311.029 89.9704C306.529 85.4695 304 79.365 304 72.9998C304 66.6346 306.529 60.5302 311.029 56.0293C315.53 51.5284 321.635 48.9999 328 48.9999C334.365 48.9999 340.47 51.5284 344.971 56.0293C349.471 60.5302 352 66.6346 352 72.9998C352 79.365 349.471 85.4695 344.971 89.9704C340.47 94.4712 334.365 96.9998 328 96.9998V96.9998ZM328 105C319.513 105 311.374 101.628 305.373 95.6272C299.371 89.626 296 81.4867 296 72.9998C296 64.5129 299.371 56.3736 305.373 50.3724C311.374 44.3713 319.513 40.9999 328 40.9999C336.487 40.9999 344.626 44.3713 350.627 50.3724C356.629 56.3736 360 64.5129 360 72.9998C360 81.4867 356.629 89.626 350.627 95.6272C344.626 101.628 336.487 105 328 105V105Z" fill="#06BCC1"/>
<path d="M320 80C320 35.8172 284.183 0 240 0V0C195.817 0 160 35.8172 160 80V80C160 124.183 195.817 160 240 160V160C284.183 160 320 124.183 320 80V80Z" fill="#F4EDEA"/>
<path fill-rule="evenodd" clip-rule="evenodd" d="M240 152C200.236 152 168 119.764 168 79.9999C168 40.2359 200.236 7.99999 240 7.99999C279.764 7.99999 312 40.2359 312 79.9999C312 119.764 279.764 152 240 152ZM240 160C195.816 160 160 124.184 160 79.9999C160 35.8159 195.816 0 240 0C284.184 0 320 35.8159 320 79.9999C320 124.184 284.184 160 240 160Z" fill="#06BCC1"/>
<path d="M288 126.52C288 122.388 284.912 118.896 280.8 118.44C249.94 115.024 229.92 115.332 199.128 118.516C197.59 118.677 196.133 119.283 194.934 120.259C193.735 121.235 192.846 122.539 192.376 124.012C191.906 125.485 191.875 127.063 192.287 128.553C192.699 130.043 193.536 131.381 194.696 132.404C231.036 164.08 251.804 163.644 285.44 132.436C287.08 130.916 288 128.756 288 126.524V126.52Z" fill="#06BCC1"/>
<path fill-rule="evenodd" clip-rule="evenodd" d="M199.54 122.492C230.088 119.332 249.82 119.036 280.364 122.416C282.42 122.644 284 124.4 284 126.524C284 127.668 283.524 128.752 282.72 129.504C266.048 144.968 253.416 151.956 241.068 152C228.676 152.044 215.364 145.112 197.324 129.392C196.751 128.882 196.338 128.216 196.136 127.476C195.934 126.736 195.952 125.953 196.187 125.222C196.421 124.492 196.863 123.845 197.459 123.361C198.054 122.877 198.777 122.576 199.54 122.496V122.492ZM281.24 114.464C250.056 111.012 229.744 111.324 198.712 114.536C196.399 114.777 194.206 115.688 192.403 117.156C190.599 118.625 189.263 120.587 188.557 122.803C187.852 125.019 187.808 127.393 188.43 129.634C189.053 131.875 190.316 133.885 192.064 135.42C210.364 151.372 225.604 160.06 241.092 160C256.624 159.944 271.192 151.108 288.156 135.368C289.371 134.236 290.339 132.867 291 131.344C291.662 129.822 292.002 128.18 292 126.52C292.006 123.537 290.911 120.658 288.926 118.433C286.94 116.207 284.204 114.793 281.24 114.46V114.464Z" fill="#06BCC1"/>
<path d="M208 63.9998C208 72.4867 211.371 80.626 217.373 86.6272C223.374 92.6283 231.513 95.9998 240 95.9998C248.487 95.9998 256.626 92.6283 262.627 86.6272C268.629 80.626 272 72.4867 272 63.9998C272 55.5129 268.629 47.3736 262.627 41.3724C256.626 35.3713 248.487 31.9999 240 31.9999C231.513 31.9999 223.374 35.3713 217.373 41.3724C211.371 47.3736 208 55.5129 208 63.9998V63.9998Z" fill="#06BCC1"/>
<path fill-rule="evenodd" clip-rule="evenodd" d="M240 87.9998C233.635 87.9998 227.53 85.4712 223.029 80.9704C218.529 76.4695 216 70.365 216 63.9998C216 57.6346 218.529 51.5302 223.029 47.0293C227.53 42.5284 233.635 39.9999 240 39.9999C246.365 39.9999 252.47 42.5284 256.971 47.0293C261.471 51.5302 264 57.6346 264 63.9998C264 70.365 261.471 76.4695 256.971 80.9704C252.47 85.4712 246.365 87.9998 240 87.9998V87.9998ZM240 95.9998C231.513 95.9998 223.374 92.6283 217.373 86.6272C211.371 80.626 208 72.4867 208 63.9998C208 55.5129 211.371 47.3736 217.373 41.3724C223.374 35.3713 231.513 31.9999 240 31.9999C248.487 31.9999 256.626 35.3713 262.627 41.3724C268.629 47.3736 272 55.5129 272 63.9998C272 72.4867 268.629 80.626 262.627 86.6272C256.626 92.6283 248.487 95.9998 240 95.9998V95.9998Z" fill="#06BCC1"/>
</svg>
