<svg width="807" height="678" viewBox="0 0 807 678" fill="none" xmlns="http://www.w3.org/2000/svg">
    <g clip-path="url(#clip0_405_4203)">
        <path d="M534.58 106.085L541.264 102.424L691.44 362.531L677.565 372.049L534.58 106.085Z" fill="url(#paint0_linear_405_4203)" />
        <path d="M559.009 51.9295L565.693 48.2691L732.194 335.358L717.882 344.971L559.009 51.9295Z" fill="url(#paint1_linear_405_4203)" />
        <path d="M541.014 223.535C592.027 299.489 571.916 402.345 496.093 453.271C420.27 504.196 317.449 483.906 266.436 407.953C215.422 331.999 235.533 229.143 311.356 178.217C387.18 127.291 490 147.581 541.014 223.535Z" fill="#323138" />
        <path fill-rule="evenodd" clip-rule="evenodd" d="M493.831 449.903C567.796 400.225 587.416 299.887 537.652 225.793C487.887 151.7 387.584 131.907 313.619 181.585C239.653 231.264 220.034 331.601 269.798 405.694C319.562 479.788 419.865 499.581 493.831 449.903ZM496.093 453.271C571.916 402.345 592.027 299.489 541.014 223.535C490 147.581 387.18 127.291 311.356 178.217C235.533 229.143 215.422 331.999 266.436 407.953C317.449 483.906 420.27 504.196 496.093 453.271Z" fill="url(#paint2_linear_405_4203)" />
        <path d="M484.739 429.234C548.532 386.388 565.453 299.851 522.533 235.947C479.613 172.044 393.104 154.973 329.311 197.819C265.518 240.665 248.597 327.203 291.518 391.106C334.438 455.01 420.946 472.08 484.739 429.234Z" fill="url(#paint3_radial_405_4203)" />
        <path d="M391.915 418.662C393.92 417.315 396.639 417.852 397.988 419.86C399.337 421.869 398.805 424.588 396.8 425.935C394.795 427.281 392.076 426.745 390.727 424.737C389.379 422.728 389.91 420.008 391.915 418.662Z" fill="#D55561" />
        <path d="M504.195 360.521C506.2 359.175 508.918 359.711 510.267 361.72C511.616 363.728 511.084 366.448 509.079 367.794C507.075 369.141 504.356 368.604 503.007 366.596C501.658 364.588 502.19 361.868 504.195 360.521Z" fill="#D55561" />
        <path d="M492.068 336.045C493.161 335.31 494.644 335.603 495.38 336.698C496.116 337.794 495.826 339.277 494.732 340.012C493.638 340.746 492.155 340.454 491.42 339.358C490.684 338.263 490.974 336.779 492.068 336.045Z" fill="#D55561" />
        <path d="M417.1 191.627C418.193 190.892 419.676 191.185 420.412 192.28C421.148 193.376 420.858 194.859 419.764 195.594C418.671 196.328 417.188 196.036 416.452 194.94C415.716 193.845 416.006 192.361 417.1 191.627Z" fill="#D55561" />
        <path d="M484.08 221.478C485.174 220.744 486.657 221.036 487.393 222.132C488.128 223.227 487.838 224.711 486.745 225.445C485.651 226.18 484.168 225.887 483.432 224.792C482.697 223.696 482.987 222.213 484.08 221.478Z" fill="#EEAB75" />
        <path d="M283.822 345.426C284.916 344.691 286.399 344.984 287.135 346.079C287.871 347.175 287.581 348.658 286.487 349.393C285.393 350.127 283.91 349.835 283.175 348.739C282.439 347.644 282.729 346.16 283.822 345.426Z" fill="#EEAB75" />
        <path d="M336.31 235.336C337.403 234.601 338.886 234.894 339.622 235.989C340.358 237.085 340.068 238.568 338.974 239.303C337.881 240.037 336.398 239.745 335.662 238.649C334.926 237.554 335.216 236.07 336.31 235.336Z" fill="#D55561" />
        <path d="M264.35 295.181L278.282 291.894C299.656 286.851 321.096 300.108 326.17 321.504L329.477 335.451L315.544 338.738C294.17 343.781 272.73 330.524 267.657 309.128L264.35 295.181Z" fill="url(#paint4_linear_405_4203)" />
        <path opacity="0.5" fill-rule="evenodd" clip-rule="evenodd" d="M327.819 335.842L264.509 295.855L264.349 295.181L278.282 291.894C299.656 286.851 321.095 300.108 326.169 321.504L329.476 335.451L327.819 335.842Z" fill="#529D6A" />
        <path d="M410.049 410.863L416.771 403.132C427.085 391.271 445.068 390.037 456.938 400.377L464.675 407.117L457.952 414.848C447.638 426.709 429.655 427.942 417.785 417.603L410.049 410.863Z" fill="url(#paint5_linear_405_4203)" />
        <path opacity="0.5" fill-rule="evenodd" clip-rule="evenodd" d="M463.876 408.036L410.423 411.189L410.049 410.863L416.771 403.132C427.085 391.271 445.068 390.037 456.938 400.377L464.675 407.117L463.876 408.036Z" fill="#529D6A" />
        <path d="M373.284 421.581C388.958 411.053 393.116 389.79 382.57 374.088C372.024 358.386 350.768 354.191 335.093 364.719C319.418 375.247 315.26 396.51 325.806 412.212C336.352 427.914 357.609 432.109 373.284 421.581Z" fill="url(#paint6_linear_405_4203)" />
        <path fill-rule="evenodd" clip-rule="evenodd" d="M387.457 385.197C386.53 381.338 384.913 377.575 382.57 374.087C380.059 370.348 376.94 367.262 373.435 364.871L320.731 400.27C321.618 404.419 323.295 408.473 325.806 412.212C328.149 415.7 331.021 418.62 334.242 420.938L387.457 385.197Z" fill="#E3E798" />
        <path fill-rule="evenodd" clip-rule="evenodd" d="M371.926 419.56C386.487 409.78 390.349 390.029 380.552 375.443C370.756 360.857 351.011 356.96 336.45 366.74C321.889 376.52 318.027 396.272 327.824 410.857C337.62 425.443 357.365 429.34 371.926 419.56ZM373.283 421.581C388.958 411.053 393.116 389.79 382.57 374.088C372.024 358.386 350.768 354.191 335.093 364.719C319.418 375.247 315.26 396.51 325.806 412.212C336.353 427.915 357.609 432.109 373.283 421.581Z" fill="#F3F4CB" />
        <path fill-rule="evenodd" clip-rule="evenodd" d="M392.184 209.271C385.112 213.897 380.633 219.593 380.973 226.592C381.133 229.881 382.608 232.039 385.086 233.368C387.592 234.714 391.152 235.221 395.465 235.105C404.085 234.874 415.521 232.153 427.076 228.983C430.791 227.963 434.52 226.896 438.164 225.856C445.837 223.662 453.153 221.569 459.242 220.228C463.732 219.24 467.59 218.65 470.451 218.738C471.884 218.781 473.098 218.993 474.025 219.432C474.965 219.876 475.619 220.559 475.886 221.517C476.195 222.63 475.904 223.713 475.225 224.724C474.549 225.729 473.476 226.688 472.159 227.594C469.524 229.406 465.821 231.065 462.076 232.469C458.327 233.875 454.514 235.032 451.638 235.839C450.2 236.242 448.996 236.558 448.152 236.772C447.729 236.88 447.395 236.963 447.17 237.017C447.056 237.045 446.968 237.066 446.907 237.081L446.842 237.096L446.819 237.101C446.819 237.101 446.819 237.101 446.734 236.744C446.649 236.386 446.649 236.386 446.649 236.386L446.652 236.384L446.671 236.38L446.736 236.365C446.794 236.351 446.881 236.33 446.995 236.301C447.219 236.247 447.55 236.165 447.969 236.059C448.809 235.846 450.007 235.532 451.44 235.129C454.305 234.326 458.096 233.175 461.82 231.778C465.548 230.381 469.18 228.749 471.742 226.987C473.023 226.107 474.01 225.21 474.613 224.314C475.211 223.425 475.411 222.564 475.177 221.713C474.98 220.998 474.496 220.468 473.711 220.098C472.914 219.721 471.815 219.516 470.432 219.473C467.665 219.388 463.88 219.961 459.402 220.946C453.335 222.283 446.056 224.364 438.398 226.554C434.747 227.597 431.008 228.667 427.273 229.691C415.725 232.86 404.209 235.606 395.486 235.841C391.129 235.958 387.416 235.452 384.738 234.016C382.03 232.563 380.41 230.17 380.236 226.629C379.878 219.241 384.625 213.336 391.782 208.654C398.946 203.968 408.606 200.449 418.282 197.836C427.962 195.223 437.685 193.51 444.983 192.451C448.63 191.924 451.677 191.556 453.809 191.323C454.877 191.206 455.715 191.122 456.289 191.067C456.573 191.041 456.794 191.02 456.943 191.006C457.015 191.001 457.073 190.995 457.111 190.992L457.153 190.989L457.166 190.988C457.169 190.986 457.169 190.986 457.199 191.354C457.229 191.721 457.229 191.721 457.229 191.721L457.216 191.722L457.174 191.725C457.137 191.729 457.082 191.733 457.007 191.741C456.861 191.754 456.644 191.773 456.36 191.799C455.791 191.854 454.953 191.939 453.893 192.054C451.765 192.287 448.729 192.652 445.087 193.181C437.806 194.237 428.118 195.943 418.476 198.546C408.826 201.152 399.252 204.648 392.184 209.271ZM457.564 191.324C457.584 191.525 457.434 191.703 457.229 191.721L457.199 191.354L457.169 190.986C457.371 190.97 457.548 191.122 457.564 191.324ZM446.375 236.828C446.33 236.63 446.453 236.431 446.649 236.386L446.734 236.744L446.819 237.101C446.621 237.148 446.423 237.025 446.375 236.828Z" fill="#BE424D" />
        <path d="M485.391 186.983L372.695 252.164L346.833 267.679C324.268 281.217 317.179 310.638 331.087 333.031C345.883 356.852 378.024 362.629 400.118 345.439L428.947 323.009C431.064 321.362 429.269 318.011 426.725 318.856L386.684 332.166C380.295 334.29 374.313 328.001 376.747 321.722L382.197 307.666L397.691 306.052C420.471 303.679 439.455 287.583 445.527 265.492L450.343 247.985L487.535 189.214C488.424 187.809 486.832 186.15 485.391 186.983Z" fill="url(#paint7_linear_405_4203)" />
        <path d="M336.447 289.461L333.393 297.749C333.393 297.749 345.451 310.813 355.638 314.47C364.77 317.748 378.813 316.175 378.813 316.175L380.451 312.197C380.451 312.197 365.158 312.095 356.604 308.065C346.917 303.501 336.447 289.461 336.447 289.461Z" fill="url(#paint8_linear_405_4203)" />
        <path d="M377.512 319.541L377.613 319.38L370.362 324.25C367.106 326.437 363.359 327.786 359.455 328.177L343.006 329.826C342.156 329.911 342.022 331.094 342.83 331.371L347.903 333.107C356.547 336.066 365.855 336.482 374.721 334.307L382.522 332.394C376.969 330.869 374.453 324.415 377.512 319.541Z" fill="url(#paint9_linear_405_4203)" />
        <path fill-rule="evenodd" clip-rule="evenodd" d="M359.238 281.581L359.075 275.18L360.696 275.141L360.859 281.542C361.077 290.101 365.926 297.874 373.519 301.834L382.901 306.727L382.154 308.165L372.771 303.272C364.655 299.039 359.472 290.73 359.238 281.581Z" fill="#D15A63" />
        <path d="M440.985 226.925C444.63 224.477 445.597 219.532 443.145 215.88C440.692 212.229 435.749 211.253 432.103 213.702C428.458 216.15 427.491 221.095 429.944 224.747C432.396 228.398 437.34 229.374 440.985 226.925Z" fill="#4B1E20" />
        <path fill-rule="evenodd" clip-rule="evenodd" d="M365.599 225.587C364.187 228.145 363.823 230.868 364.819 233.781C365.88 236.885 368.333 239.021 371.898 240.396C375.47 241.773 380.128 242.373 385.524 242.406C396.313 242.472 409.926 240.283 423.412 237.694C427.89 236.834 432.353 235.931 436.694 235.052C445.409 233.288 453.62 231.626 460.427 230.627C465.524 229.878 469.864 229.498 473.056 229.73C474.653 229.845 475.99 230.116 476.999 230.59C478.015 231.068 478.724 231.767 478.993 232.735C479.302 233.848 479.012 234.931 478.332 235.943C477.657 236.948 476.583 237.907 475.266 238.813C472.631 240.625 468.928 242.284 465.183 243.688C461.434 245.093 457.621 246.251 454.745 247.057C453.307 247.461 452.103 247.777 451.259 247.991C450.836 248.098 450.502 248.181 450.277 248.235C450.163 248.263 450.075 248.285 450.015 248.3L449.949 248.315L449.926 248.32C449.926 248.32 449.926 248.32 449.841 247.962C449.756 247.604 449.756 247.604 449.756 247.604L449.759 247.603L449.778 247.598L449.843 247.583C449.882 247.574 449.931 247.563 449.996 247.546C450.026 247.54 450.064 247.529 450.102 247.52C450.327 247.466 450.657 247.384 451.077 247.277C451.916 247.064 453.114 246.751 454.547 246.348C457.412 245.544 461.203 244.393 464.927 242.997C468.655 241.6 472.287 239.967 474.849 238.206C476.13 237.325 477.117 236.429 477.72 235.533C478.318 234.644 478.519 233.782 478.284 232.932C478.089 232.226 477.57 231.671 476.685 231.257C475.796 230.836 474.56 230.577 473.005 230.464C469.896 230.238 465.621 230.609 460.535 231.355C453.745 232.353 445.569 234.008 436.869 235.768C432.524 236.648 428.05 237.553 423.552 238.417C410.069 241.004 396.388 243.21 385.522 243.141C380.089 243.107 375.326 242.507 371.633 241.083C367.934 239.655 365.275 237.388 364.123 234.019C363.054 230.891 363.452 227.953 364.957 225.23C366.453 222.52 369.039 220.03 372.338 217.751C378.934 213.195 388.486 209.415 398.26 206.402C408.042 203.386 418.079 201.127 425.667 199.624C429.461 198.872 432.646 198.308 434.881 197.932C435.999 197.744 436.879 197.604 437.483 197.508C437.783 197.461 438.013 197.427 438.17 197.403C438.249 197.39 438.306 197.383 438.346 197.376L438.407 197.367C438.407 197.367 438.407 197.368 438.461 197.731C438.515 198.095 438.515 198.095 438.515 198.095L438.455 198.105C438.434 198.107 438.403 198.113 438.37 198.116C438.342 198.122 438.314 198.125 438.282 198.13C438.125 198.154 437.896 198.189 437.596 198.236C436.998 198.329 436.119 198.47 435.005 198.657C432.774 199.033 429.597 199.595 425.811 200.345C418.235 201.847 408.225 204.1 398.476 207.106C388.72 210.114 379.257 213.867 372.755 218.358C369.507 220.601 367.02 223.015 365.599 225.587ZM438.824 197.679C438.853 197.88 438.716 198.066 438.515 198.095L438.461 197.731L438.407 197.368C438.608 197.338 438.795 197.477 438.824 197.679ZM449.482 248.047C449.437 247.848 449.56 247.65 449.756 247.604L449.841 247.962L449.926 248.32C449.728 248.367 449.53 248.244 449.482 248.047Z" fill="#BE424D" />
        <path fill-rule="evenodd" clip-rule="evenodd" d="M398.241 251.116C396.829 253.673 396.466 256.395 397.462 259.309C398.521 262.414 400.974 264.551 404.539 265.924C408.112 267.302 412.769 267.902 418.166 267.935C428.955 268.001 442.568 265.811 456.054 263.223C460.532 262.363 464.995 261.46 469.336 260.581C478.05 258.817 486.262 257.155 493.068 256.156C498.166 255.407 502.505 255.026 505.698 255.258C507.294 255.374 508.631 255.644 509.64 256.118C510.656 256.596 511.365 257.296 511.635 258.264C511.944 259.377 511.653 260.46 510.974 261.472C510.298 262.476 509.225 263.436 507.907 264.342C505.273 266.153 501.57 267.812 497.825 269.217C494.076 270.622 490.263 271.779 487.387 272.586C485.949 272.989 484.744 273.305 483.901 273.519C483.477 273.627 483.143 273.71 482.918 273.764C482.804 273.792 482.717 273.813 482.656 273.828L482.591 273.843L482.568 273.848C482.568 273.848 482.568 273.849 482.483 273.491C482.397 273.133 482.397 273.133 482.397 273.133L482.4 273.131L482.42 273.127L482.485 273.112C482.523 273.103 482.573 273.091 482.637 273.075C482.668 273.068 482.706 273.058 482.743 273.049C482.968 272.994 483.298 272.913 483.718 272.806C484.558 272.593 485.755 272.279 487.189 271.876C490.054 271.073 493.845 269.922 497.569 268.526C501.297 267.128 504.929 265.496 507.491 263.734C508.772 262.854 509.759 261.957 510.362 261.061C510.96 260.172 511.16 259.311 510.926 258.46C510.731 257.755 510.212 257.2 509.327 256.786C508.438 256.365 507.201 256.106 505.647 255.992C502.538 255.767 498.263 256.138 493.176 256.884C486.387 257.882 478.21 259.536 469.511 261.296C465.166 262.176 460.691 263.082 456.194 263.945C442.711 266.532 429.03 268.739 418.164 268.67C412.731 268.635 407.967 268.036 404.275 266.612C400.575 265.184 397.916 262.918 396.764 259.548C395.695 256.42 396.094 253.482 397.598 250.758C399.094 248.049 401.681 245.558 404.98 243.279C411.576 238.724 421.128 234.944 430.902 231.93C440.683 228.915 450.721 226.656 458.308 225.152C462.102 224.401 465.287 223.836 467.523 223.46C468.641 223.272 469.52 223.132 470.125 223.037C470.425 222.99 470.655 222.956 470.811 222.932C470.891 222.919 470.948 222.911 470.988 222.905L471.048 222.896C471.048 222.896 471.049 222.896 471.103 223.26C471.157 223.624 471.157 223.624 471.156 223.624L471.097 223.634C471.076 223.636 471.044 223.642 471.011 223.645C470.984 223.65 470.955 223.654 470.923 223.659C470.767 223.683 470.538 223.718 470.237 223.765C469.64 223.857 468.761 223.999 467.647 224.186C465.416 224.561 462.238 225.124 458.452 225.874C450.877 227.376 440.866 229.629 431.118 232.635C421.362 235.643 411.899 239.396 405.397 243.887C402.149 246.13 399.661 248.544 398.241 251.116ZM471.466 223.207C471.495 223.409 471.358 223.594 471.157 223.624L471.103 223.26L471.049 222.896C471.25 222.867 471.437 223.006 471.466 223.207ZM482.124 273.576C482.078 273.377 482.202 273.178 482.397 273.133L482.483 273.491L482.568 273.848C482.369 273.895 482.172 273.772 482.124 273.576Z" fill="#BE424D" />
        <path d="M520.077 227.481L407.379 292.662L381.518 308.177C358.952 321.715 351.863 351.136 365.772 373.529C380.568 397.35 412.708 403.128 434.803 385.937L463.63 363.508C465.747 361.861 463.952 358.51 461.408 359.355L421.368 372.664C414.98 374.788 408.997 368.499 411.432 362.22L416.881 348.164L432.375 346.55C455.157 344.176 474.138 328.082 480.213 305.989L485.026 288.484L522.218 229.713C523.107 228.308 521.515 226.649 520.077 227.481Z" fill="url(#paint10_linear_405_4203)" />
        <path fill-rule="evenodd" clip-rule="evenodd" d="M430.041 262.342C422.97 266.967 418.491 272.663 418.831 279.663C418.99 282.952 420.466 285.109 422.943 286.438C425.45 287.784 429.009 288.292 433.323 288.175C441.942 287.944 453.378 285.223 464.933 282.053C468.649 281.033 472.377 279.967 476.021 278.926C483.694 276.732 491.01 274.64 497.1 273.298C501.589 272.31 505.447 271.72 508.309 271.808C509.741 271.851 510.955 272.064 511.883 272.502C512.823 272.946 513.476 273.629 513.744 274.587C514.053 275.7 513.762 276.783 513.082 277.795C512.407 278.8 511.333 279.759 510.016 280.665C507.381 282.477 503.679 284.135 499.934 285.54C496.185 286.945 492.371 288.103 489.495 288.909C488.057 289.313 486.853 289.628 486.009 289.842C485.586 289.95 485.252 290.033 485.027 290.087C484.913 290.115 484.825 290.136 484.765 290.151L484.699 290.166L484.677 290.172C484.677 290.172 484.677 290.172 484.591 289.814C484.506 289.456 484.506 289.456 484.506 289.456L484.509 289.454L484.529 289.45L484.594 289.435C484.651 289.422 484.738 289.4 484.852 289.372C485.077 289.318 485.407 289.236 485.827 289.129C486.667 288.916 487.864 288.603 489.298 288.199C492.162 287.396 495.954 286.245 499.678 284.849C503.405 283.451 507.037 281.819 509.599 280.058C510.881 279.177 511.868 278.28 512.47 277.385C513.068 276.495 513.269 275.634 513.034 274.783C512.837 274.068 512.353 273.539 511.569 273.168C510.771 272.792 509.672 272.586 508.289 272.543C505.523 272.459 501.737 273.032 497.259 274.017C491.193 275.353 483.914 277.435 476.255 279.624C472.604 280.668 468.865 281.737 465.13 282.762C453.583 285.93 442.066 288.676 433.343 288.911C428.986 289.029 425.273 288.523 422.595 287.087C419.888 285.633 418.268 283.24 418.094 279.699C417.736 272.311 422.482 266.406 429.64 261.724C436.803 257.039 446.464 253.519 456.14 250.906C465.82 248.293 475.542 246.58 482.84 245.522C486.488 244.994 489.535 244.627 491.667 244.393C492.735 244.276 493.573 244.193 494.146 244.137C494.43 244.111 494.651 244.091 494.801 244.076C494.873 244.071 494.931 244.065 494.968 244.062L495.011 244.059L495.023 244.058C495.027 244.057 495.027 244.057 495.057 244.424C495.086 244.792 495.086 244.791 495.086 244.791L495.074 244.792L495.032 244.796C494.994 244.799 494.939 244.804 494.865 244.811C494.718 244.824 494.501 244.843 494.218 244.87C493.648 244.924 492.811 245.009 491.75 245.124C489.623 245.358 486.587 245.722 482.945 246.251C475.663 247.308 465.976 249.013 456.333 251.616C446.684 254.222 437.109 257.718 430.041 262.342ZM495.422 244.394C495.442 244.595 495.291 244.773 495.086 244.792L495.057 244.424L495.027 244.057C495.228 244.041 495.405 244.192 495.422 244.394ZM484.232 289.899C484.187 289.7 484.311 289.501 484.506 289.456L484.591 289.814L484.677 290.172C484.478 290.219 484.28 290.096 484.232 289.899Z" fill="#BE424D" />
        <path d="M371.131 329.959L368.077 338.247C368.077 338.247 380.135 351.311 390.322 354.968C399.454 358.246 413.497 356.673 413.497 356.673L415.134 352.695C415.134 352.695 399.842 352.592 391.288 348.563C381.601 343.999 371.131 329.959 371.131 329.959Z" fill="url(#paint11_linear_405_4203)" />
        <path d="M412.195 360.039L412.296 359.878L405.044 364.748C401.788 366.935 398.042 368.284 394.138 368.675L377.689 370.323C376.839 370.409 376.704 371.592 377.513 371.869L382.585 373.605C391.23 376.564 400.537 376.98 409.403 374.805L417.205 372.892C411.651 371.367 409.135 364.913 412.195 360.039Z" fill="url(#paint12_linear_405_4203)" />
        <path fill-rule="evenodd" clip-rule="evenodd" d="M393.921 322.079L393.758 315.678L395.378 315.639L395.541 322.04C395.76 330.599 400.609 338.372 408.201 342.332L417.584 347.225L416.836 348.663L407.454 343.77C399.338 339.537 394.154 331.228 393.921 322.079Z" fill="#D15A63" />
        <path d="M475.67 267.423C479.316 264.975 480.283 260.03 477.83 256.378C475.378 252.727 470.434 251.751 466.789 254.2C463.144 256.648 462.177 261.593 464.629 265.245C467.082 268.896 472.025 269.872 475.67 267.423Z" fill="#4B1E20" />
        <path d="M334.358 319.891C323.597 320.562 313.55 325.485 306.428 333.575C299.305 341.665 295.691 352.261 296.38 363.03C297.068 373.8 302.004 383.861 310.1 391.001C318.197 398.141 328.791 401.775 339.552 401.103L336.955 360.497L334.358 319.891Z" fill="#DBE272" />
        <path fill-rule="evenodd" clip-rule="evenodd" d="M304.231 384.592L336.954 361.071L300.234 342.974C297.291 349.165 295.934 356.062 296.38 363.031C296.882 370.88 299.639 378.352 304.231 384.592Z" fill="#E3E798" />
        <path fill-rule="evenodd" clip-rule="evenodd" d="M309.297 391.914C300.958 384.56 295.875 374.198 295.166 363.107C294.457 352.015 298.179 341.103 305.515 332.771C312.85 324.439 323.198 319.369 334.281 318.677L334.436 321.106C323.996 321.757 314.25 326.533 307.34 334.381C300.431 342.229 296.925 352.508 297.593 362.955C298.261 373.403 303.049 383.163 310.903 390.09C318.757 397.016 329.035 400.542 339.474 399.89L339.63 402.318C328.546 403.01 317.635 399.268 309.297 391.914Z" fill="#F3F4CB" />
        <path d="M479.665 350.615L486.079 361.12C495.923 377.234 490.862 398.26 474.774 408.085L464.287 414.489L457.871 403.985C448.027 387.871 453.089 366.844 469.176 357.02L479.665 350.615Z" fill="url(#paint13_linear_405_4203)" />
        <path opacity="0.5" fill-rule="evenodd" clip-rule="evenodd" d="M463.524 413.24L479.156 350.926L479.665 350.616L486.079 361.121C495.923 377.235 490.862 398.261 474.774 408.086L464.287 414.49L463.524 413.24Z" fill="#529D6A" />
        <path d="M489.928 310.668C489.161 309.031 489.698 307.082 491.196 306.076L501.792 298.959C510.255 293.275 522.234 294.856 524.668 304.769C525.431 307.875 525.77 311.267 525.311 314.776C524.749 319.067 522.969 323.009 520.669 326.479C514.044 336.475 500.096 332.318 494.99 321.447L489.928 310.668Z" fill="url(#paint14_linear_405_4203)" />
        <path d="M491.952 309.308C491.185 307.672 491.722 305.722 493.22 304.716L503.815 297.6C512.278 291.916 524.257 293.496 526.692 303.409C527.454 306.516 527.793 309.908 527.335 313.417C526.772 317.708 524.993 321.65 522.692 325.119C516.068 335.116 502.119 330.959 497.013 320.087L491.952 309.308Z" fill="#F5E6D5" />
        <path fill-rule="evenodd" clip-rule="evenodd" d="M509.569 320.128C512.946 323.271 518.207 319.569 516.39 315.328L516.299 315.113C516.167 314.804 516.311 314.445 516.62 314.313C516.93 314.18 517.288 314.324 517.421 314.634L517.511 314.848C519.846 320.302 513.082 325.062 508.739 321.021L503.956 316.576C499.159 312.116 501.127 304.124 507.444 302.422L514.375 300.555C519.695 299.122 523.579 305.558 519.832 309.596L517.888 311.691C517.656 311.94 517.271 311.953 517.024 311.724C516.777 311.494 516.765 311.107 516.993 310.86L518.938 308.765C521.853 305.624 518.832 300.619 514.693 301.734L507.761 303.601C502.37 305.053 500.689 311.876 504.786 315.682L509.569 320.128Z" fill="url(#paint15_linear_405_4203)" />
        <path d="M366.805 200.396C365.613 199.037 363.607 198.753 362.089 199.722L351.327 206.592C342.737 212.076 339.399 223.687 347.513 229.881C350.056 231.822 353.029 233.489 356.429 234.471C360.587 235.671 364.913 235.615 369.012 234.893C380.823 232.816 382.586 218.37 374.661 209.345L366.805 200.396Z" fill="url(#paint16_linear_405_4203)" />
        <path d="M364.75 201.706C363.555 200.35 361.553 200.064 360.034 201.033L349.273 207.903C340.683 213.386 337.344 224.998 345.459 231.192C348.001 233.132 350.974 234.8 354.375 235.781C358.532 236.982 362.858 236.925 366.956 236.204C378.769 234.127 380.532 219.68 372.607 210.655L364.75 201.706Z" fill="#F5E6D5" />
        <path fill-rule="evenodd" clip-rule="evenodd" d="M367.628 222.179C369.157 226.532 363.663 229.874 360.5 226.514L360.34 226.345C360.109 226.1 359.724 226.088 359.479 226.319C359.234 226.549 359.223 226.936 359.454 227.181L359.613 227.35C363.68 231.669 370.745 227.373 368.779 221.776L366.615 215.615C364.443 209.436 356.33 208.046 352.247 213.155L347.765 218.762C344.324 223.066 348.671 229.199 353.871 227.377L356.57 226.432C356.888 226.321 357.055 225.973 356.943 225.655C356.832 225.337 356.484 225.169 356.166 225.28L353.467 226.226C349.423 227.643 346.041 222.873 348.717 219.525L353.199 213.918C356.685 209.557 363.612 210.742 365.465 216.019L367.628 222.179Z" fill="url(#paint17_linear_405_4203)" />
        <path d="M321.322 245.336C320.129 243.978 318.126 243.692 316.605 244.663L305.846 251.531C297.255 257.015 293.916 268.627 302.031 274.821C304.573 276.761 307.546 278.429 310.947 279.41C315.104 280.611 319.43 280.554 323.528 279.833C335.341 277.755 337.105 263.309 329.179 254.284L321.322 245.336Z" fill="url(#paint18_linear_405_4203)" />
        <path d="M319.267 246.646C318.075 245.288 316.072 245.002 314.551 245.973L303.792 252.841C295.2 258.326 291.862 269.937 299.976 276.131C302.519 278.072 305.491 279.739 308.892 280.721C313.05 281.921 317.375 281.864 321.474 281.143C333.287 279.066 335.051 264.619 327.125 255.594L319.267 246.646Z" fill="#F5E6D5" />
        <path fill-rule="evenodd" clip-rule="evenodd" d="M322.147 267.118C323.676 271.471 318.18 274.813 315.018 271.454L314.858 271.284C314.627 271.039 314.241 271.027 313.996 271.258C313.751 271.489 313.74 271.875 313.971 272.12L314.131 272.29C318.197 276.609 325.262 272.312 323.297 266.715L321.133 260.555C318.962 254.374 310.848 252.985 306.764 258.094L302.282 263.702C298.842 268.006 303.189 274.138 308.389 272.317L311.088 271.371C311.406 271.26 311.573 270.912 311.461 270.594C311.349 270.276 311.001 270.109 310.684 270.22L307.984 271.165C303.94 272.582 300.559 267.812 303.235 264.465L307.717 258.857C311.203 254.496 318.129 255.682 319.983 260.958L322.147 267.118Z" fill="url(#paint19_linear_405_4203)" />
        <path d="M309.834 584.81C321.955 587.1 334.48 584.479 344.655 577.525C354.828 570.568 361.819 559.851 364.088 547.727C366.355 535.602 363.716 523.064 356.749 512.872C349.783 502.68 339.06 495.668 326.94 493.379L318.387 539.095L309.834 584.81Z" fill="#DBE272" />
        <path fill-rule="evenodd" clip-rule="evenodd" d="M361.451 521.629L318.55 538.461L354.167 568.861C359.172 562.829 362.619 555.574 364.087 547.727C365.74 538.891 364.786 529.835 361.451 521.629Z" fill="#E3E798" />
        <path d="M309.834 584.81C321.955 587.1 334.48 584.479 344.655 577.525C354.828 570.568 361.819 559.851 364.088 547.727C366.355 535.602 363.716 523.064 356.749 512.872C349.783 502.68 339.06 495.668 326.94 493.379" stroke="#F3F4CB" stroke-width="7.42177" />
        <path d="M456 100.802L460.751 87.125C468.038 66.1449 490.952 55.0757 511.929 62.4014L525.602 67.1772L520.854 80.8514C513.567 101.832 490.654 112.901 469.676 105.575L456 100.802Z" fill="url(#paint20_linear_405_4203)" />
        <path opacity="0.5" fill-rule="evenodd" clip-rule="evenodd" d="M525.038 68.8029L456.663 101.031L456 100.801L460.751 87.1252C468.038 66.1449 490.952 55.0756 511.929 62.4013L525.602 67.1771L525.038 68.8029Z" fill="#529D6A" />
        <path d="M182.378 458.633L175.322 471.269C164.495 490.654 140 497.561 120.61 486.697L107.971 479.615L115.028 466.979C125.854 447.594 150.35 440.687 169.739 451.551L182.378 458.633Z" fill="url(#paint21_linear_405_4203)" />
        <path opacity="0.5" fill-rule="evenodd" clip-rule="evenodd" d="M108.811 478.113L181.768 458.291L182.379 458.634L175.322 471.27C164.496 490.655 140.001 497.562 120.611 486.698L107.972 479.616L108.811 478.113Z" fill="#529D6A" />
        <path d="M172.956 463.094L180.233 475.629C191.394 494.858 184.88 519.475 165.681 530.614L153.167 537.874L145.891 525.34C134.729 506.111 141.244 481.493 160.442 470.355L172.956 463.094Z" fill="url(#paint22_linear_405_4203)" />
        <path opacity="0.5" fill-rule="evenodd" clip-rule="evenodd" d="M152.301 536.384L172.35 463.446L172.956 463.095L180.232 475.629C191.394 494.858 184.879 519.476 165.68 530.614L153.166 537.875L152.301 536.384Z" fill="#529D6A" />
        <path d="M186.321 311.004C206.28 340.72 198.412 380.962 168.746 400.886C139.082 420.81 98.8538 412.872 78.8953 383.156C58.9365 353.439 66.805 313.198 96.4698 293.274C126.135 273.35 166.363 281.288 186.321 311.004Z" fill="#323138" />
        <path fill-rule="evenodd" clip-rule="evenodd" d="M166.502 397.544C194.324 378.858 201.704 341.116 182.985 313.245C164.266 285.374 126.537 277.929 98.7144 296.616C70.892 315.303 63.5124 353.045 82.2314 380.915C100.95 408.786 138.68 416.231 166.502 397.544ZM168.746 400.886C198.412 380.962 206.28 340.72 186.321 311.004C166.363 281.288 126.135 273.35 96.4698 293.274C66.805 313.198 58.9365 353.439 78.8953 383.156C98.8538 412.872 139.082 420.81 168.746 400.886Z" fill="url(#paint23_linear_405_4203)" />
        <path d="M155.728 381.504C174.707 368.757 179.74 343.013 166.972 324.002C154.203 304.991 128.467 299.912 109.489 312.659C90.5109 325.405 85.477 351.15 98.2456 370.161C111.014 389.172 136.75 394.25 155.728 381.504Z" fill="#C24048" />
        <path d="M119.294 363.298C119.847 362.927 119.993 362.177 119.621 361.623C119.25 361.069 118.5 360.921 117.947 361.293C117.394 361.664 117.248 362.414 117.62 362.967C117.992 363.521 118.741 363.669 119.294 363.298Z" fill="#B4373F" />
        <path d="M118.747 339.417C119.3 339.046 119.446 338.296 119.075 337.742C118.703 337.188 117.953 337.041 117.4 337.412C116.848 337.783 116.701 338.533 117.073 339.087C117.445 339.64 118.194 339.788 118.747 339.417Z" fill="#B4373F" />
        <path d="M143.97 343.813C144.522 343.442 144.669 342.692 144.297 342.139C143.925 341.585 143.176 341.437 142.623 341.808C142.07 342.18 141.924 342.929 142.295 343.483C142.667 344.037 143.417 344.185 143.97 343.813Z" fill="#B4373F" />
        <path d="M156.54 362.53C157.093 362.159 157.239 361.409 156.868 360.855C156.496 360.302 155.746 360.154 155.193 360.525C154.64 360.896 154.494 361.646 154.866 362.2C155.238 362.754 155.987 362.902 156.54 362.53Z" fill="#B4373F" />
        <path d="M151.26 327.278C151.813 326.907 151.959 326.157 151.587 325.603C151.215 325.05 150.466 324.902 149.913 325.273C149.36 325.644 149.214 326.394 149.585 326.948C149.957 327.502 150.707 327.65 151.26 327.278Z" fill="#B4373F" />
        <path d="M102.235 337.897C102.788 337.526 102.935 336.776 102.563 336.223C102.191 335.669 101.441 335.521 100.889 335.892C100.336 336.263 100.189 337.013 100.561 337.567C100.933 338.121 101.683 338.269 102.235 337.897Z" fill="#B4373F" />
        <path d="M213.822 509.856L214.004 500.035" stroke="#323138" stroke-width="4.37413" stroke-linecap="round" />
        <path d="M185.939 577.203L203.247 549.228C205.432 545.697 206.469 541.573 206.215 537.423L204.923 516.275C204.595 510.899 208.691 506.284 214.064 505.978C219.827 505.649 224.614 510.386 224.351 516.156L223.513 534.535C223.124 543.082 219.349 551.117 213.023 556.864L188.389 579.244C187.01 580.497 184.958 578.788 185.939 577.203Z" fill="url(#paint24_linear_405_4203)" />
        <path d="M243.263 479.248L236.656 474.162" stroke="#323138" stroke-width="3.71138" stroke-linecap="round" />
        <path d="M275.174 532.314L264.8 506.361C263.49 503.085 261.199 500.293 258.241 498.37L243.166 488.569C239.334 486.077 238.247 480.948 240.741 477.124C243.415 473.022 249.054 472.145 252.857 475.24L264.972 485.097C270.606 489.681 274.187 496.318 274.925 503.542L277.799 531.672C277.96 533.247 275.762 533.785 275.174 532.314Z" fill="url(#paint25_linear_405_4203)" />
        <path d="M238.324 588.551L233.85 595.574" stroke="#323138" stroke-width="3.71138" stroke-linecap="round" />
        <path d="M250.183 527.831L249.302 555.752C249.19 559.277 247.99 562.679 245.867 565.491L235.045 579.821C232.294 583.464 233.026 588.655 236.678 591.405C240.595 594.354 246.196 593.265 248.714 589.065L256.734 575.686C260.463 569.464 261.561 562.009 259.785 554.967L252.87 527.544C252.483 526.008 250.232 526.248 250.183 527.831Z" fill="url(#paint26_linear_405_4203)" />
    </g>
    <defs>
        <linearGradient id="paint0_linear_405_4203" x1="655.527" y1="377.072" x2="486.003" y2="85.7372" gradientUnits="userSpaceOnUse">
            <stop stop-color="#FEF4E9" />
            <stop offset="1" stop-color="#E9D2BA" />
        </linearGradient>
        <linearGradient id="paint1_linear_405_4203" x1="685.891" y1="338.687" x2="506.471" y2="31.3806" gradientUnits="userSpaceOnUse">
            <stop stop-color="#FEF4E9" />
            <stop offset="1" stop-color="#E9D2BA" />
        </linearGradient>
        <linearGradient id="paint2_linear_405_4203" x1="311.356" y1="178.217" x2="496.093" y2="453.271" gradientUnits="userSpaceOnUse">
            <stop stop-color="#64626F" />
            <stop offset="1" stop-color="#64626F" stop-opacity="0.34" />
        </linearGradient>
        <radialGradient id="paint3_radial_405_4203" cx="0" cy="0" r="1" gradientUnits="userSpaceOnUse" gradientTransform="translate(386.304 291.944) rotate(54.6917) scale(208.343 184.187)">
            <stop stop-color="#F7C97C" />
            <stop offset="1" stop-color="#D55561" />
        </radialGradient>
        <linearGradient id="paint4_linear_405_4203" x1="310.009" y1="328.798" x2="263.755" y2="304.258" gradientUnits="userSpaceOnUse">
            <stop stop-color="#64B581" />
            <stop offset="1" stop-color="#8DE691" />
        </linearGradient>
        <linearGradient id="paint5_linear_405_4203" x1="450.591" y1="411.372" x2="413.488" y2="416.394" gradientUnits="userSpaceOnUse">
            <stop stop-color="#64B581" />
            <stop offset="1" stop-color="#8DE691" />
        </linearGradient>
        <linearGradient id="paint6_linear_405_4203" x1="328.914" y1="390.457" x2="362.671" y2="409.971" gradientUnits="userSpaceOnUse">
            <stop stop-color="#C4CC57" />
            <stop offset="1" stop-color="#DBE272" />
        </linearGradient>
        <linearGradient id="paint7_linear_405_4203" x1="403.915" y1="282.515" x2="367.55" y2="245.541" gradientUnits="userSpaceOnUse">
            <stop stop-color="#D55561" />
            <stop offset="1" stop-color="#EB8B75" />
        </linearGradient>
        <linearGradient id="paint8_linear_405_4203" x1="379.021" y1="317.464" x2="336.322" y2="313.6" gradientUnits="userSpaceOnUse">
            <stop stop-color="#C14752" />
            <stop offset="1" stop-color="#C14752" stop-opacity="0" />
        </linearGradient>
        <linearGradient id="paint9_linear_405_4203" x1="369.181" y1="338.465" x2="345.239" y2="322.721" gradientUnits="userSpaceOnUse">
            <stop stop-color="#C14752" />
            <stop offset="1" stop-color="#C14752" stop-opacity="0" />
        </linearGradient>
        <linearGradient id="paint10_linear_405_4203" x1="449.349" y1="330.196" x2="413.879" y2="295.981" gradientUnits="userSpaceOnUse">
            <stop stop-color="#D55561" />
            <stop offset="1" stop-color="#EB8B75" />
        </linearGradient>
        <linearGradient id="paint11_linear_405_4203" x1="436.017" y1="360.257" x2="371.002" y2="354.136" gradientUnits="userSpaceOnUse">
            <stop stop-color="#C14752" />
            <stop offset="1" stop-color="#C14752" stop-opacity="0" />
        </linearGradient>
        <linearGradient id="paint12_linear_405_4203" x1="436.981" y1="369.521" x2="388.942" y2="343.017" gradientUnits="userSpaceOnUse">
            <stop stop-color="#C14752" />
            <stop offset="1" stop-color="#C14752" stop-opacity="0" />
        </linearGradient>
        <linearGradient id="paint13_linear_405_4203" x1="464.492" y1="396.825" x2="472.241" y2="352.566" gradientUnits="userSpaceOnUse">
            <stop stop-color="#64B581" />
            <stop offset="1" stop-color="#8DE691" />
        </linearGradient>
        <linearGradient id="paint14_linear_405_4203" x1="521.862" y1="341.082" x2="501.449" y2="302.766" gradientUnits="userSpaceOnUse">
            <stop offset="0.438968" stop-color="#A58F78" />
            <stop offset="1" stop-color="#CFBDAA" />
        </linearGradient>
        <linearGradient id="paint15_linear_405_4203" x1="541.014" y1="309.376" x2="518.761" y2="288.683" gradientUnits="userSpaceOnUse">
            <stop stop-color="#A58F78" />
            <stop offset="1" stop-color="#F5E6D5" />
        </linearGradient>
        <linearGradient id="paint16_linear_405_4203" x1="381.923" y1="241.823" x2="354.956" y2="207.798" gradientUnits="userSpaceOnUse">
            <stop offset="0.438968" stop-color="#A58F78" />
            <stop offset="1" stop-color="#CFBDAA" />
        </linearGradient>
        <linearGradient id="paint17_linear_405_4203" x1="345.205" y1="246.704" x2="335.13" y2="218.037" gradientUnits="userSpaceOnUse">
            <stop stop-color="#A58F78" />
            <stop offset="1" stop-color="#F5E6D5" />
        </linearGradient>
        <linearGradient id="paint18_linear_405_4203" x1="336.44" y1="286.762" x2="309.474" y2="252.737" gradientUnits="userSpaceOnUse">
            <stop offset="0.438968" stop-color="#A58F78" />
            <stop offset="1" stop-color="#CFBDAA" />
        </linearGradient>
        <linearGradient id="paint19_linear_405_4203" x1="299.722" y1="291.643" x2="289.647" y2="262.977" gradientUnits="userSpaceOnUse">
            <stop stop-color="#A58F78" />
            <stop offset="1" stop-color="#F5E6D5" />
        </linearGradient>
        <linearGradient id="paint20_linear_405_4203" x1="509.384" y1="80.1601" x2="463.382" y2="106.198" gradientUnits="userSpaceOnUse">
            <stop stop-color="#64B581" />
            <stop offset="1" stop-color="#8DE691" />
        </linearGradient>
        <linearGradient id="paint21_linear_405_4203" x1="126.205" y1="469.657" x2="176.037" y2="452.006" gradientUnits="userSpaceOnUse">
            <stop stop-color="#64B581" />
            <stop offset="1" stop-color="#8DE691" />
        </linearGradient>
        <linearGradient id="paint22_linear_405_4203" x1="153.876" y1="517.087" x2="164.168" y2="465.193" gradientUnits="userSpaceOnUse">
            <stop stop-color="#64B581" />
            <stop offset="1" stop-color="#8DE691" />
        </linearGradient>
        <linearGradient id="paint23_linear_405_4203" x1="96.4698" y1="293.274" x2="168.746" y2="400.886" gradientUnits="userSpaceOnUse">
            <stop stop-color="#64626F" />
            <stop offset="1" stop-color="#64626F" stop-opacity="0.34" />
        </linearGradient>
        <linearGradient id="paint24_linear_405_4203" x1="214.921" y1="532.396" x2="193.801" y2="507.926" gradientUnits="userSpaceOnUse">
            <stop stop-color="#D55561" />
            <stop offset="1" stop-color="#EB8B75" />
        </linearGradient>
        <linearGradient id="paint25_linear_405_4203" x1="259.191" y1="489.885" x2="231.879" y2="491.976" gradientUnits="userSpaceOnUse">
            <stop stop-color="#D55561" />
            <stop offset="1" stop-color="#EB8B75" />
        </linearGradient>
        <linearGradient id="paint26_linear_405_4203" x1="249.661" y1="573.146" x2="223.287" y2="580.514" gradientUnits="userSpaceOnUse">
            <stop stop-color="#D55561" />
            <stop offset="1" stop-color="#EB8B75" />
        </linearGradient>
        <clipPath id="clip0_405_4203">
            <rect width="705.623" height="397.601" fill="white" transform="translate(0 347.424) rotate(-33.8869)" />
        </clipPath>
    </defs>
</svg>