<svg width="807" height="677" viewBox="0 0 807 677" fill="none" xmlns="http://www.w3.org/2000/svg">
<g clip-path="url(#clip0_406_7754)">
<mask id="mask0_406_7754" style="mask-type:alpha" maskUnits="userSpaceOnUse" x="146" y="100" width="521" height="520">
<rect x="146.525" y="100" width="520.384" height="520" rx="260" fill="#D9D9D9"/>
</mask>
<g mask="url(#mask0_406_7754)">
<path d="M713 100H21.6328V620H713V100Z" fill="url(#paint0_linear_406_7754)"/>
<path d="M713 442.477H21.6328V620.001H713V442.477Z" fill="url(#paint1_linear_406_7754)"/>
<path d="M573.032 551.234H547.217V552.72H573.032V551.234Z" fill="white"/>
<path d="M578.796 551.234H577.135V552.72H578.796V551.234Z" fill="white"/>
<path d="M599.489 547.104H559.523V548.589H599.489V547.104Z" fill="white"/>
<path d="M551.194 547.104H532.431V548.589H551.194V547.104Z" fill="white"/>
<path d="M713 265.969V289.313H533.527C533.527 289.313 547.697 269.505 581.897 273.691C630.787 279.675 626.457 238.573 656.795 238.573C677.079 238.498 682.257 250.195 699.913 261.687C706.875 266.211 713 265.969 713 265.969Z" fill="white"/>
<path d="M533.527 239.548C559.233 239.548 580.072 218.725 580.072 193.038C580.072 167.351 559.233 146.527 533.527 146.527C507.821 146.527 486.982 167.351 486.982 193.038C486.982 218.725 507.821 239.548 533.527 239.548Z" fill="white"/>
<path d="M345.609 172.759H60.3271C60.3271 172.759 63.8174 148.917 98.0921 152.43C118.108 154.481 114.767 127.426 145.521 127.426C176.276 127.426 177.518 158.314 199.615 158.314C221.713 158.314 218.122 149.908 237.079 150.079C255.475 150.25 259.995 165.364 293.117 170.82C304.342 172.647 315.856 171.256 326.321 166.808C329.712 165.294 333.537 165.063 337.085 166.157C340.634 167.252 343.663 169.598 345.609 172.759Z" fill="white"/>
<path d="M603.407 241.068C603.051 241.068 602.698 240.999 602.369 240.863C602.04 240.727 601.741 240.528 601.489 240.276L599.348 238.137C599.252 238.039 599.176 237.924 599.124 237.797C599.072 237.67 599.046 237.534 599.047 237.397C599.048 237.26 599.076 237.124 599.129 236.998C599.182 236.871 599.26 236.757 599.358 236.661C599.455 236.564 599.571 236.488 599.698 236.436C599.825 236.385 599.961 236.359 600.098 236.359C600.235 236.36 600.371 236.388 600.498 236.441C600.624 236.495 600.739 236.572 600.835 236.67L602.972 238.806C603.092 238.925 603.255 238.992 603.424 238.992C603.593 238.992 603.756 238.925 603.876 238.806L606.013 236.67C606.109 236.573 606.224 236.497 606.35 236.445C606.476 236.393 606.611 236.366 606.747 236.366C606.883 236.366 607.018 236.393 607.144 236.445C607.27 236.497 607.385 236.573 607.481 236.67C607.578 236.766 607.654 236.881 607.706 237.006C607.758 237.132 607.785 237.267 607.785 237.403C607.785 237.54 607.758 237.675 607.706 237.8C607.654 237.926 607.578 238.041 607.481 238.137L605.344 240.276C605.089 240.53 604.787 240.73 604.455 240.866C604.122 241.002 603.766 241.07 603.407 241.068Z" fill="white"/>
<path d="M561.534 202.017C561.183 202.017 560.836 201.949 560.512 201.814C560.187 201.679 559.893 201.482 559.646 201.233L557.509 199.097C557.322 198.911 557.218 198.658 557.218 198.395C557.218 198.132 557.322 197.879 557.509 197.693C557.695 197.507 557.948 197.402 558.211 197.402C558.475 197.402 558.727 197.507 558.914 197.693L561.051 199.829C561.114 199.893 561.19 199.943 561.273 199.978C561.356 200.012 561.444 200.03 561.534 200.03C561.624 200.03 561.713 200.012 561.796 199.978C561.879 199.943 561.954 199.893 562.018 199.829L564.159 197.693C564.251 197.601 564.36 197.528 564.481 197.478C564.601 197.428 564.731 197.402 564.861 197.402C564.992 197.402 565.121 197.428 565.241 197.478C565.362 197.528 565.471 197.601 565.564 197.693C565.656 197.785 565.729 197.895 565.779 198.015C565.829 198.136 565.855 198.265 565.855 198.395C565.855 198.525 565.829 198.655 565.779 198.775C565.729 198.895 565.656 199.005 565.564 199.097L563.423 201.233C563.176 201.482 562.881 201.68 562.557 201.814C562.233 201.949 561.885 202.018 561.534 202.017Z" fill="#F5B9B3"/>
<path d="M233.808 262.516H149.893V442.473H233.808V262.516Z" fill="#F7C5C1"/>
<path d="M233.808 262.516H200.08V442.473H233.808V262.516Z" fill="#FFDFDA"/>
<path d="M234.403 262.516H233.21V442.473H234.403V262.516Z" fill="white"/>
<path d="M200.065 257.771V262.938H198.872V258.964H195.188V262.626H193.995V258.964H189.706V262.626H188.513V258.964H184.219V262.626H183.026V258.964H178.733V262.626H177.54V258.964H173.247V262.626H172.054V258.964H167.76V262.626H166.571V258.964H162.278V262.626H161.085V258.964H156.792V262.626H155.598V258.964H151.108V262.626H149.915V257.771H200.065Z" fill="#F7C5C1"/>
<path d="M200.08 275.586H149.893V276.704H200.08V275.586Z" fill="#FFCCCB"/>
<path d="M233.808 275.586H200.08V276.704H233.808V275.586Z" fill="white"/>
<path d="M200.08 285.717H149.893V286.835H200.08V285.717Z" fill="#FFCCCB"/>
<path d="M233.808 285.717H200.08V286.835H233.808V285.717Z" fill="white"/>
<path d="M200.08 295.854H149.893V296.972H200.08V295.854Z" fill="#FFCCCB"/>
<path d="M233.808 295.854H200.08V296.972H233.808V295.854Z" fill="white"/>
<path d="M200.08 305.986H149.893V307.104H200.08V305.986Z" fill="#FFCCCB"/>
<path d="M233.808 305.986H200.08V307.104H233.808V305.986Z" fill="white"/>
<path d="M200.08 316.123H149.893V317.241H200.08V316.123Z" fill="#FFCCCB"/>
<path d="M233.808 316.123H200.08V317.241H233.808V316.123Z" fill="white"/>
<path d="M200.08 326.256H149.893V327.374H200.08V326.256Z" fill="#FFCCCB"/>
<path d="M233.808 326.256H200.08V327.374H233.808V326.256Z" fill="white"/>
<path d="M200.08 336.393H149.893V337.511H200.08V336.393Z" fill="#FFCCCB"/>
<path d="M233.808 336.393H200.08V337.511H233.808V336.393Z" fill="white"/>
<path d="M200.08 346.525H149.893V347.643H200.08V346.525Z" fill="#FFCCCB"/>
<path d="M233.808 346.525H200.08V347.643H233.808V346.525Z" fill="white"/>
<path d="M200.08 356.66H149.893V357.778H200.08V356.66Z" fill="#FFCCCB"/>
<path d="M233.808 356.66H200.08V357.778H233.808V356.66Z" fill="white"/>
<path d="M200.08 366.793H149.893V367.911H200.08V366.793Z" fill="#FFCCCB"/>
<path d="M233.808 366.793H200.08V367.911H233.808V366.793Z" fill="white"/>
<path d="M200.08 376.93H149.893V378.048H200.08V376.93Z" fill="#FFCCCB"/>
<path d="M233.808 376.93H200.08V378.048H233.808V376.93Z" fill="white"/>
<path d="M200.08 387.062H149.893V388.181H200.08V387.062Z" fill="#FFCCCB"/>
<path d="M233.808 387.062H200.08V388.181H233.808V387.062Z" fill="white"/>
<path d="M200.08 397.199H149.893V398.317H200.08V397.199Z" fill="#FFCCCB"/>
<path d="M233.808 397.199H200.08V398.317H233.808V397.199Z" fill="white"/>
<path d="M200.08 407.33H149.893V408.448H200.08V407.33Z" fill="#FFCCCB"/>
<path d="M200.08 417.627H149.893V418.745H200.08V417.627Z" fill="#FFCCCB"/>
<path d="M200.08 427.76H149.893V428.878H200.08V427.76Z" fill="#FFCCCB"/>
<path d="M233.808 407.33H200.08V408.448H233.808V407.33Z" fill="white"/>
<path d="M233.808 417.73H200.08V418.848H233.808V417.73Z" fill="white"/>
<path d="M233.808 427.76H200.08V428.878H233.808V427.76Z" fill="white"/>
<path d="M234.403 257.771V263.335H233.21V258.964H228.103V262.489H226.91V258.964H222.616V262.489H221.423V258.964H217.134V262.489H215.941V258.964H211.647V262.489H210.454V258.964H206.161V262.489H204.968V258.964H200.08V257.771H234.403Z" fill="white"/>
<path d="M288.78 183.195H238.972V442.289H288.78V183.195Z" fill="#F7C5C1"/>
<path d="M345.795 183.195H288.779V442.289H345.795V183.195Z" fill="#FFDFDA"/>
<path d="M346.419 442.29H345.17V183.82H288.775V182.572H346.419V442.29Z" fill="white"/>
<path d="M339.089 194.135H288.489V203.394H339.089V194.135Z" fill="#F7C5C1"/>
<path d="M339.089 212.807H288.489V222.066H339.089V212.807Z" fill="#F7C5C1"/>
<path d="M339.089 231.479H288.489V240.738H339.089V231.479Z" fill="#F7C5C1"/>
<path d="M339.089 250.154H288.489V259.414H339.089V250.154Z" fill="#F7C5C1"/>
<path d="M339.089 268.826H288.489V278.086H339.089V268.826Z" fill="#F7C5C1"/>
<path d="M339.089 287.498H288.489V296.758H339.089V287.498Z" fill="#F7C5C1"/>
<path d="M339.089 306.172H288.489V315.432H339.089V306.172Z" fill="#F7C5C1"/>
<path d="M339.089 324.844H288.489V334.103H339.089V324.844Z" fill="#F7C5C1"/>
<path d="M339.687 203.395H338.494V194.729H247.546V193.537H339.687V203.395Z" fill="#F5B9B3"/>
<path d="M339.687 222.067H338.494V213.405H247.546V212.213H339.687V222.067Z" fill="#F5B9B3"/>
<path d="M339.687 240.739H338.494V232.077H247.546V230.885H339.687V240.739Z" fill="#F5B9B3"/>
<path d="M339.687 259.412H338.494V250.747H247.546V249.555H339.687V259.412Z" fill="#F5B9B3"/>
<path d="M339.687 278.084H338.494V269.419H247.546V268.227H339.687V278.084Z" fill="#F5B9B3"/>
<path d="M339.687 296.756H338.494V288.095H247.546V286.902H339.687V296.756Z" fill="#F5B9B3"/>
<path d="M339.687 315.428H338.494V306.767H247.546V305.574H339.687V315.428Z" fill="#F5B9B3"/>
<path d="M339.687 334.104H338.494V325.438H247.546V324.246H339.687V334.104Z" fill="#F5B9B3"/>
<path d="M339.089 343.467H288.489V352.727H339.089V343.467Z" fill="#F7C5C1"/>
<path d="M339.089 362.139H288.489V371.398H339.089V362.139Z" fill="#F7C5C1"/>
<path d="M339.089 380.814H288.489V390.074H339.089V380.814Z" fill="#F7C5C1"/>
<path d="M339.089 399.486H288.489V408.746H339.089V399.486Z" fill="#F7C5C1"/>
<path d="M339.687 352.727H338.494V344.065H247.546V342.873H339.687V352.727Z" fill="#F5B9B3"/>
<path d="M339.687 371.399H338.494V362.737H247.546V361.545H339.687V371.399Z" fill="#F5B9B3"/>
<path d="M339.687 390.074H338.494V381.409H247.546V380.217H339.687V390.074Z" fill="#F5B9B3"/>
<path d="M339.687 408.746H338.494V400.081H247.546V398.889H339.687V408.746Z" fill="#F5B9B3"/>
<path d="M339.089 418.059H288.489V427.318H339.089V418.059Z" fill="#F7C5C1"/>
<path d="M339.687 427.319H338.494V418.653H247.546V417.461H339.687V427.319Z" fill="#F5B9B3"/>
<path d="M438.884 220.031H382.162V442.29H438.884V220.031Z" fill="#F7C5C1"/>
<path d="M506.72 442.476H438.884V220.031L506.72 276.206V442.476Z" fill="#FFDFDA"/>
<path d="M507.344 442.477H506.095V276.496L438.486 220.511L439.282 219.553L507.344 275.913V442.477Z" fill="white"/>
<path d="M452.358 248.847V429.799H446.125V243.688L452.358 248.847Z" fill="#FFCCCB"/>
<path d="M464.138 258.601V429.799H457.904V253.441L464.138 258.601Z" fill="#FFCCCB"/>
<path d="M475.92 268.358V429.8H469.687V263.195L475.92 268.358Z" fill="#FFCCCB"/>
<path d="M487.696 278.112V429.8H481.463V272.949L487.696 278.112Z" fill="#FFCCCB"/>
<path d="M499.48 287.864V429.798H493.246V282.701L499.48 287.864Z" fill="#FFCCCB"/>
<path d="M452.358 430.423C452.276 430.423 452.194 430.407 452.119 430.376C452.043 430.344 451.974 430.298 451.916 430.24C451.858 430.183 451.812 430.114 451.781 430.038C451.749 429.962 451.733 429.881 451.733 429.799V249.14L446.299 244.638C446.229 244.588 446.171 244.525 446.127 244.451C446.083 244.378 446.055 244.296 446.044 244.211C446.033 244.126 446.04 244.04 446.064 243.958C446.088 243.876 446.128 243.799 446.183 243.733C446.238 243.668 446.305 243.614 446.382 243.575C446.458 243.536 446.542 243.514 446.627 243.509C446.712 243.504 446.798 243.517 446.879 243.546C446.959 243.575 447.032 243.621 447.094 243.68L452.978 248.572V429.829C452.971 429.989 452.902 430.139 452.787 430.25C452.671 430.36 452.518 430.422 452.358 430.423Z" fill="#F5B9B3"/>
<path d="M464.137 430.423C463.972 430.422 463.814 430.355 463.698 430.239C463.582 430.122 463.517 429.964 463.517 429.799V258.893L458.105 254.414C458.035 254.364 457.977 254.3 457.933 254.227C457.889 254.153 457.861 254.071 457.85 253.987C457.839 253.902 457.846 253.815 457.869 253.733C457.893 253.651 457.934 253.575 457.989 253.509C458.043 253.443 458.111 253.389 458.187 253.35C458.264 253.312 458.347 253.289 458.433 253.284C458.518 253.279 458.604 253.292 458.684 253.321C458.765 253.351 458.838 253.396 458.9 253.456L464.762 258.31V429.799C464.762 429.881 464.746 429.962 464.714 430.037C464.683 430.113 464.637 430.182 464.579 430.24C464.521 430.298 464.452 430.344 464.376 430.375C464.301 430.407 464.219 430.423 464.137 430.423Z" fill="#F5B9B3"/>
<path d="M475.92 430.423C475.838 430.423 475.757 430.407 475.681 430.376C475.606 430.344 475.537 430.298 475.479 430.241C475.421 430.183 475.375 430.114 475.343 430.038C475.312 429.962 475.296 429.881 475.296 429.799V268.648L469.806 264.101C469.736 264.051 469.678 263.988 469.634 263.914C469.59 263.841 469.562 263.759 469.551 263.674C469.54 263.589 469.547 263.503 469.571 263.421C469.595 263.339 469.635 263.262 469.69 263.196C469.744 263.13 469.812 263.077 469.888 263.038C469.965 262.999 470.048 262.977 470.134 262.972C470.219 262.967 470.305 262.979 470.385 263.009C470.466 263.038 470.539 263.084 470.601 263.143L476.548 268.064V429.799C476.548 429.882 476.532 429.963 476.501 430.039C476.469 430.115 476.423 430.184 476.364 430.242C476.306 430.3 476.237 430.346 476.16 430.377C476.084 430.408 476.003 430.424 475.92 430.423Z" fill="#F5B9B3"/>
<path d="M487.696 430.423C487.531 430.422 487.374 430.356 487.257 430.239C487.141 430.122 487.076 429.964 487.076 429.799V278.404L481.641 273.906C481.516 273.8 481.438 273.649 481.423 273.486C481.409 273.322 481.459 273.16 481.564 273.033C481.669 272.907 481.819 272.826 481.982 272.81C482.146 272.793 482.309 272.842 482.437 272.944L488.321 277.818V429.799C488.321 429.964 488.255 430.123 488.138 430.24C488.021 430.357 487.862 430.423 487.696 430.423Z" fill="#F5B9B3"/>
<path d="M499.479 430.422C499.397 430.422 499.316 430.406 499.24 430.375C499.164 430.344 499.096 430.298 499.038 430.24C498.98 430.182 498.934 430.113 498.902 430.037C498.871 429.961 498.855 429.88 498.855 429.798V288.158L493.365 283.612C493.299 283.56 493.244 283.496 493.203 283.423C493.163 283.35 493.137 283.269 493.129 283.186C493.12 283.103 493.128 283.019 493.152 282.939C493.176 282.859 493.216 282.785 493.27 282.721C493.323 282.656 493.389 282.604 493.464 282.565C493.538 282.527 493.619 282.504 493.702 282.498C493.786 282.492 493.87 282.502 493.949 282.529C494.028 282.555 494.101 282.598 494.164 282.653L500.111 287.571V429.798C500.111 429.881 500.095 429.963 500.063 430.039C500.031 430.115 499.984 430.184 499.926 430.242C499.867 430.3 499.797 430.346 499.72 430.377C499.644 430.408 499.562 430.423 499.479 430.422Z" fill="#F5B9B3"/>
<path d="M430.268 255.707H353.768V442.472H430.268V255.707Z" fill="#FFDFDA"/>
<path d="M414.508 239.195H368.967V250.565H414.508V239.195Z" fill="white"/>
<path d="M370.008 239.195H367.93V250.565H370.008V239.195Z" fill="#F5B9B3"/>
<path d="M377.783 250.566H376.538V255.707H377.783V250.566Z" fill="white"/>
<path d="M408.118 250.566H406.873V255.707H408.118V250.566Z" fill="white"/>
<path d="M556.825 442.286H547.398V264.564H556.825V442.286ZM548.514 441.171H555.71V265.679H548.514V441.171Z" fill="#F5B9B3"/>
<path d="M556.237 273.955C556.09 273.954 555.949 273.895 555.843 273.792L547.562 265.516C547.458 265.411 547.4 265.27 547.4 265.123C547.4 264.975 547.458 264.834 547.562 264.729C547.613 264.677 547.675 264.635 547.742 264.607C547.81 264.579 547.883 264.564 547.956 264.564C548.029 264.564 548.102 264.579 548.169 264.607C548.237 264.635 548.298 264.677 548.35 264.729L556.631 273.004C556.709 273.082 556.762 273.182 556.784 273.29C556.805 273.398 556.794 273.509 556.752 273.611C556.71 273.713 556.639 273.8 556.547 273.861C556.455 273.922 556.348 273.955 556.237 273.955Z" fill="#F5B9B3"/>
<path d="M547.964 273.954C547.816 273.953 547.675 273.894 547.57 273.791C547.466 273.686 547.408 273.545 547.408 273.397C547.408 273.25 547.466 273.108 547.57 273.004L555.851 264.728C555.902 264.673 555.964 264.629 556.032 264.599C556.101 264.569 556.175 264.552 556.249 264.551C556.324 264.55 556.399 264.563 556.468 264.591C556.537 264.619 556.601 264.661 556.653 264.714C556.706 264.767 556.748 264.83 556.776 264.899C556.804 264.969 556.818 265.043 556.817 265.118C556.815 265.193 556.799 265.266 556.769 265.335C556.738 265.403 556.694 265.465 556.639 265.516L548.335 273.791C548.237 273.891 548.104 273.949 547.964 273.954Z" fill="#F5B9B3"/>
<path d="M556.237 282.231C556.09 282.229 555.949 282.171 555.843 282.067L547.562 273.792C547.458 273.687 547.4 273.545 547.4 273.398C547.4 273.251 547.458 273.109 547.562 273.004C547.613 272.952 547.675 272.911 547.742 272.883C547.81 272.854 547.883 272.84 547.956 272.84C548.029 272.84 548.102 272.854 548.169 272.883C548.237 272.911 548.298 272.952 548.35 273.004L556.631 281.28C556.709 281.358 556.762 281.457 556.784 281.565C556.805 281.673 556.794 281.785 556.752 281.887C556.71 281.988 556.639 282.075 556.547 282.137C556.455 282.198 556.348 282.231 556.237 282.231Z" fill="#F5B9B3"/>
<path d="M547.964 282.23C547.816 282.228 547.675 282.17 547.57 282.066C547.466 281.961 547.408 281.82 547.408 281.673C547.408 281.525 547.466 281.384 547.57 281.279L555.851 273.004C555.902 272.949 555.964 272.905 556.032 272.874C556.101 272.844 556.175 272.828 556.249 272.826C556.324 272.825 556.399 272.839 556.468 272.867C556.537 272.895 556.601 272.936 556.653 272.989C556.706 273.042 556.748 273.105 556.776 273.175C556.804 273.244 556.818 273.318 556.817 273.393C556.815 273.468 556.799 273.542 556.769 273.61C556.738 273.678 556.694 273.74 556.639 273.791L548.335 282.066C548.237 282.166 548.104 282.224 547.964 282.23Z" fill="#F5B9B3"/>
<path d="M556.237 290.506C556.09 290.505 555.949 290.446 555.843 290.343L547.562 282.067C547.458 281.962 547.4 281.821 547.4 281.673C547.4 281.526 547.458 281.385 547.562 281.28C547.613 281.228 547.675 281.186 547.742 281.158C547.81 281.13 547.883 281.115 547.956 281.115C548.029 281.115 548.102 281.13 548.169 281.158C548.237 281.186 548.298 281.228 548.35 281.28L556.631 289.555C556.709 289.633 556.762 289.732 556.784 289.84C556.805 289.948 556.794 290.06 556.752 290.162C556.71 290.264 556.639 290.351 556.547 290.412C556.455 290.473 556.348 290.506 556.237 290.506Z" fill="#F5B9B3"/>
<path d="M547.964 290.505C547.816 290.504 547.675 290.445 547.57 290.342C547.466 290.237 547.408 290.095 547.408 289.948C547.408 289.801 547.466 289.659 547.57 289.554L555.851 281.279C555.902 281.224 555.964 281.18 556.032 281.15C556.101 281.119 556.175 281.103 556.249 281.102C556.324 281.1 556.399 281.114 556.468 281.142C556.537 281.17 556.601 281.212 556.653 281.265C556.706 281.318 556.748 281.381 556.776 281.45C556.804 281.519 556.818 281.594 556.817 281.669C556.815 281.743 556.799 281.817 556.769 281.885C556.738 281.954 556.694 282.015 556.639 282.066L548.335 290.342C548.237 290.441 548.104 290.5 547.964 290.505Z" fill="#F5B9B3"/>
<path d="M556.237 298.781C556.09 298.78 555.949 298.721 555.843 298.618L547.562 290.343C547.458 290.238 547.4 290.096 547.4 289.949C547.4 289.801 547.458 289.66 547.562 289.555C547.613 289.503 547.675 289.462 547.742 289.433C547.81 289.405 547.883 289.391 547.956 289.391C548.029 289.391 548.102 289.405 548.169 289.433C548.237 289.462 548.298 289.503 548.35 289.555L556.631 297.831C556.709 297.908 556.762 298.008 556.784 298.116C556.805 298.224 556.794 298.336 556.752 298.437C556.71 298.539 556.639 298.626 556.547 298.687C556.455 298.749 556.348 298.781 556.237 298.781Z" fill="#F5B9B3"/>
<path d="M547.964 298.78C547.816 298.779 547.675 298.72 547.57 298.617C547.466 298.512 547.408 298.37 547.408 298.223C547.408 298.076 547.466 297.934 547.57 297.829L555.851 289.554C555.957 289.455 556.097 289.402 556.241 289.404C556.386 289.407 556.523 289.465 556.626 289.567C556.728 289.67 556.786 289.807 556.789 289.952C556.791 290.096 556.738 290.236 556.639 290.341L548.335 298.617C548.237 298.716 548.104 298.775 547.964 298.78Z" fill="#F5B9B3"/>
<path d="M556.237 307.057C556.09 307.055 555.949 306.997 555.843 306.893L547.562 298.618C547.458 298.513 547.4 298.372 547.4 298.224C547.4 298.077 547.458 297.935 547.562 297.831C547.613 297.778 547.675 297.737 547.742 297.709C547.81 297.681 547.883 297.666 547.956 297.666C548.029 297.666 548.102 297.681 548.169 297.709C548.237 297.737 548.298 297.778 548.35 297.831L556.631 306.106C556.709 306.184 556.762 306.283 556.784 306.391C556.805 306.499 556.794 306.611 556.752 306.713C556.71 306.815 556.639 306.902 556.547 306.963C556.455 307.024 556.348 307.057 556.237 307.057Z" fill="#F5B9B3"/>
<path d="M547.964 307.057C547.816 307.056 547.675 306.998 547.57 306.894C547.466 306.789 547.408 306.648 547.408 306.5C547.408 306.353 547.466 306.212 547.57 306.107L555.851 297.831C555.957 297.733 556.097 297.679 556.241 297.682C556.386 297.684 556.523 297.743 556.626 297.845C556.728 297.947 556.786 298.085 556.789 298.229C556.791 298.373 556.738 298.513 556.639 298.619L548.335 306.887C548.238 306.989 548.105 307.05 547.964 307.057Z" fill="#F5B9B3"/>
<path d="M556.237 315.332C556.09 315.33 555.949 315.272 555.843 315.168L547.562 306.886C547.458 306.781 547.4 306.639 547.4 306.492C547.4 306.344 547.458 306.203 547.562 306.098C547.613 306.046 547.675 306.005 547.742 305.976C547.81 305.948 547.883 305.934 547.956 305.934C548.029 305.934 548.102 305.948 548.169 305.976C548.237 306.005 548.298 306.046 548.35 306.098L556.631 314.374C556.709 314.451 556.762 314.551 556.784 314.659C556.805 314.767 556.794 314.879 556.752 314.98C556.71 315.082 556.639 315.169 556.547 315.23C556.455 315.292 556.348 315.324 556.237 315.324V315.332Z" fill="#F5B9B3"/>
<path d="M547.964 315.333C547.816 315.332 547.675 315.273 547.57 315.169C547.466 315.064 547.408 314.923 547.408 314.776C547.408 314.628 547.466 314.487 547.57 314.382L555.851 306.107C555.957 306.008 556.097 305.955 556.241 305.957C556.386 305.96 556.523 306.018 556.626 306.12C556.728 306.222 556.786 306.36 556.789 306.504C556.791 306.649 556.738 306.788 556.639 306.894L548.335 315.169C548.237 315.269 548.104 315.327 547.964 315.333Z" fill="#F5B9B3"/>
<path d="M556.237 323.6C556.09 323.598 555.949 323.54 555.843 323.436L547.562 315.161C547.458 315.056 547.4 314.915 547.4 314.767C547.4 314.62 547.458 314.478 547.562 314.373C547.613 314.321 547.675 314.28 547.742 314.252C547.81 314.224 547.883 314.209 547.956 314.209C548.029 314.209 548.102 314.224 548.169 314.252C548.237 314.28 548.298 314.321 548.35 314.373L556.631 322.649C556.709 322.727 556.762 322.826 556.784 322.934C556.805 323.042 556.794 323.154 556.752 323.256C556.71 323.358 556.639 323.444 556.547 323.506C556.455 323.567 556.348 323.6 556.237 323.6Z" fill="#F5B9B3"/>
<path d="M547.964 323.6C547.816 323.599 547.675 323.541 547.57 323.437C547.466 323.332 547.408 323.191 547.408 323.043C547.408 322.896 547.466 322.755 547.57 322.65L555.851 314.374C555.957 314.276 556.097 314.222 556.241 314.225C556.386 314.227 556.523 314.286 556.626 314.388C556.728 314.49 556.786 314.628 556.789 314.772C556.791 314.916 556.738 315.056 556.639 315.162L548.335 323.444C548.236 323.541 548.103 323.597 547.964 323.6Z" fill="#F5B9B3"/>
<path d="M556.237 331.883C556.164 331.883 556.092 331.869 556.024 331.841C555.956 331.813 555.895 331.772 555.843 331.72L547.562 323.444C547.458 323.339 547.4 323.198 547.4 323.05C547.4 322.903 547.458 322.762 547.562 322.657C547.613 322.605 547.675 322.563 547.742 322.535C547.81 322.507 547.883 322.492 547.956 322.492C548.029 322.492 548.102 322.507 548.169 322.535C548.237 322.563 548.298 322.605 548.35 322.657L556.631 330.932C556.684 330.984 556.725 331.045 556.753 331.112C556.782 331.18 556.796 331.253 556.796 331.326C556.796 331.399 556.782 331.472 556.753 331.539C556.725 331.607 556.684 331.668 556.631 331.72C556.58 331.772 556.519 331.814 556.451 331.842C556.384 331.87 556.311 331.884 556.237 331.883Z" fill="#F5B9B3"/>
<path d="M547.964 331.882C547.891 331.882 547.818 331.868 547.75 331.84C547.683 331.812 547.621 331.771 547.57 331.719C547.466 331.614 547.408 331.472 547.408 331.325C547.408 331.178 547.466 331.036 547.57 330.931L555.851 322.656C555.902 322.601 555.964 322.557 556.032 322.527C556.101 322.496 556.175 322.48 556.249 322.479C556.324 322.477 556.399 322.491 556.468 322.519C556.537 322.547 556.601 322.589 556.653 322.642C556.706 322.695 556.748 322.758 556.776 322.827C556.804 322.896 556.818 322.971 556.817 323.045C556.815 323.12 556.799 323.194 556.769 323.262C556.738 323.331 556.694 323.392 556.639 323.443L548.335 331.719C548.238 331.82 548.104 331.878 547.964 331.882Z" fill="#F5B9B3"/>
<path d="M556.238 340.158C556.164 340.158 556.092 340.144 556.024 340.116C555.957 340.087 555.895 340.046 555.844 339.994L547.562 331.719C547.507 331.668 547.463 331.606 547.433 331.538C547.403 331.469 547.386 331.396 547.385 331.321C547.384 331.246 547.397 331.172 547.425 331.102C547.453 331.033 547.495 330.97 547.548 330.917C547.601 330.864 547.664 330.822 547.734 330.794C547.803 330.766 547.877 330.753 547.952 330.754C548.027 330.755 548.101 330.772 548.169 330.802C548.238 330.833 548.299 330.876 548.35 330.931L556.632 339.199C556.684 339.251 556.725 339.312 556.754 339.38C556.782 339.447 556.796 339.52 556.796 339.593C556.796 339.666 556.782 339.739 556.754 339.806C556.725 339.874 556.684 339.935 556.632 339.987C556.581 340.041 556.52 340.084 556.452 340.113C556.385 340.142 556.312 340.158 556.238 340.158Z" fill="#F5B9B3"/>
<path d="M547.964 340.159C547.891 340.16 547.818 340.145 547.75 340.117C547.683 340.089 547.621 340.048 547.57 339.996C547.466 339.891 547.408 339.749 547.408 339.602C547.408 339.455 547.466 339.313 547.57 339.208L555.851 330.933C555.956 330.829 556.098 330.771 556.245 330.771C556.393 330.771 556.534 330.829 556.639 330.933C556.691 330.984 556.733 331.046 556.761 331.113C556.789 331.181 556.804 331.253 556.804 331.327C556.804 331.4 556.789 331.472 556.761 331.54C556.733 331.608 556.691 331.669 556.639 331.72L548.335 339.996C548.238 340.097 548.104 340.155 547.964 340.159Z" fill="#F5B9B3"/>
<path d="M556.238 348.433C556.165 348.433 556.092 348.419 556.024 348.391C555.957 348.363 555.895 348.322 555.844 348.27L547.562 339.994C547.501 339.946 547.451 339.885 547.415 339.816C547.378 339.747 547.357 339.671 547.352 339.594C547.347 339.516 547.358 339.438 547.385 339.365C547.412 339.291 547.454 339.225 547.508 339.169C547.563 339.113 547.628 339.069 547.701 339.04C547.773 339.011 547.851 338.997 547.929 339C548.007 339.003 548.083 339.022 548.153 339.057C548.223 339.091 548.285 339.14 548.336 339.199L556.617 347.475C556.669 347.526 556.711 347.588 556.739 347.655C556.767 347.723 556.782 347.795 556.782 347.869C556.782 347.942 556.767 348.014 556.739 348.082C556.711 348.149 556.669 348.211 556.617 348.262C556.568 348.314 556.51 348.356 556.445 348.386C556.38 348.415 556.309 348.431 556.238 348.433Z" fill="#F5B9B3"/>
<path d="M547.964 348.434C547.891 348.435 547.818 348.42 547.75 348.392C547.683 348.364 547.621 348.323 547.57 348.271C547.466 348.166 547.408 348.024 547.408 347.877C547.408 347.73 547.466 347.588 547.57 347.483L555.844 339.2C555.949 339.097 556.09 339.039 556.238 339.039C556.385 339.039 556.527 339.097 556.632 339.2C556.684 339.252 556.725 339.313 556.754 339.381C556.782 339.448 556.796 339.521 556.796 339.594C556.796 339.667 556.782 339.74 556.754 339.808C556.725 339.875 556.684 339.936 556.632 339.988L548.335 348.271C548.238 348.372 548.104 348.43 547.964 348.434Z" fill="#F5B9B3"/>
<path d="M556.238 356.708C556.164 356.709 556.092 356.694 556.024 356.666C555.957 356.638 555.895 356.597 555.844 356.545L547.562 348.269C547.507 348.218 547.463 348.157 547.433 348.089C547.403 348.02 547.386 347.946 547.385 347.872C547.384 347.797 547.397 347.723 547.425 347.653C547.453 347.584 547.495 347.521 547.548 347.468C547.601 347.415 547.664 347.373 547.734 347.345C547.803 347.317 547.877 347.303 547.952 347.305C548.027 347.306 548.101 347.322 548.169 347.353C548.238 347.383 548.299 347.427 548.35 347.482L556.632 355.757C556.684 355.809 556.725 355.87 556.754 355.938C556.782 356.005 556.796 356.078 556.796 356.151C556.796 356.224 556.782 356.297 556.754 356.365C556.725 356.432 556.684 356.493 556.632 356.545C556.581 356.597 556.519 356.639 556.452 356.667C556.384 356.695 556.311 356.709 556.238 356.708Z" fill="#F5B9B3"/>
<path d="M547.964 356.708C547.891 356.708 547.818 356.694 547.75 356.666C547.683 356.638 547.621 356.597 547.57 356.545C547.466 356.44 547.408 356.298 547.408 356.151C547.408 356.004 547.466 355.862 547.57 355.757L555.851 347.482C555.956 347.378 556.098 347.32 556.245 347.32C556.393 347.32 556.534 347.378 556.639 347.482C556.691 347.533 556.733 347.595 556.761 347.662C556.789 347.73 556.804 347.802 556.804 347.875C556.804 347.949 556.789 348.021 556.761 348.089C556.733 348.156 556.691 348.218 556.639 348.269L548.335 356.545C548.238 356.645 548.104 356.704 547.964 356.708Z" fill="#F5B9B3"/>
<path d="M556.238 364.985C556.091 364.985 555.95 364.928 555.844 364.825L547.563 356.546C547.464 356.441 547.411 356.301 547.413 356.157C547.416 356.012 547.474 355.875 547.576 355.773C547.679 355.67 547.816 355.612 547.961 355.609C548.105 355.607 548.245 355.66 548.351 355.759L556.632 364.034C556.685 364.086 556.726 364.148 556.754 364.216C556.783 364.284 556.797 364.356 556.797 364.43C556.797 364.503 556.783 364.576 556.754 364.644C556.726 364.712 556.685 364.774 556.632 364.825C556.58 364.877 556.519 364.917 556.451 364.945C556.384 364.972 556.311 364.986 556.238 364.985Z" fill="#F5B9B3"/>
<path d="M547.964 364.985C547.854 364.985 547.746 364.953 547.655 364.891C547.563 364.83 547.492 364.743 547.45 364.641C547.408 364.54 547.396 364.428 547.418 364.32C547.439 364.212 547.492 364.112 547.57 364.035L555.852 355.759C555.957 355.656 556.098 355.598 556.246 355.598C556.393 355.598 556.535 355.656 556.64 355.759C556.692 355.811 556.733 355.872 556.762 355.939C556.79 356.007 556.804 356.08 556.804 356.153C556.804 356.226 556.79 356.299 556.762 356.366C556.733 356.434 556.692 356.495 556.64 356.547L548.336 364.829C548.236 364.927 548.103 364.982 547.964 364.985Z" fill="#F5B9B3"/>
<path d="M556.238 373.264C556.09 373.263 555.949 373.204 555.843 373.1L547.562 364.829C547.51 364.777 547.469 364.716 547.44 364.648C547.412 364.58 547.398 364.508 547.397 364.434C547.397 364.361 547.412 364.289 547.439 364.221C547.467 364.153 547.508 364.091 547.56 364.039C547.612 363.987 547.673 363.946 547.741 363.918C547.809 363.89 547.881 363.875 547.955 363.875C548.028 363.875 548.101 363.889 548.168 363.917C548.236 363.945 548.298 363.986 548.35 364.038L556.631 372.313C556.709 372.391 556.761 372.491 556.783 372.599C556.804 372.707 556.793 372.819 556.751 372.921C556.709 373.022 556.638 373.11 556.546 373.171C556.455 373.233 556.348 373.266 556.238 373.268V373.264Z" fill="#F5B9B3"/>
<path d="M547.964 373.264C547.854 373.262 547.746 373.229 547.655 373.167C547.564 373.106 547.493 373.018 547.451 372.917C547.409 372.815 547.397 372.703 547.419 372.595C547.44 372.487 547.492 372.387 547.57 372.309L555.851 364.034C555.903 363.982 555.965 363.941 556.033 363.913C556.101 363.885 556.173 363.871 556.247 363.871C556.32 363.871 556.393 363.886 556.46 363.914C556.528 363.942 556.589 363.984 556.641 364.035C556.693 364.087 556.734 364.149 556.762 364.217C556.79 364.285 556.804 364.357 556.804 364.431C556.804 364.504 556.789 364.576 556.761 364.644C556.733 364.712 556.691 364.773 556.639 364.825L548.335 373.1C548.237 373.2 548.104 373.258 547.964 373.264Z" fill="#F5B9B3"/>
<path d="M556.238 381.543C556.09 381.542 555.949 381.483 555.843 381.38L547.562 373.104C547.51 373.052 547.469 372.991 547.44 372.923C547.412 372.856 547.398 372.783 547.397 372.71C547.397 372.637 547.412 372.564 547.439 372.496C547.467 372.428 547.508 372.367 547.56 372.315C547.612 372.263 547.673 372.222 547.741 372.193C547.809 372.165 547.881 372.151 547.955 372.15C548.028 372.15 548.101 372.164 548.169 372.192C548.236 372.22 548.298 372.261 548.35 372.313L556.631 380.592C556.709 380.67 556.762 380.769 556.784 380.877C556.805 380.985 556.794 381.097 556.752 381.199C556.71 381.301 556.639 381.388 556.547 381.449C556.455 381.51 556.348 381.543 556.238 381.543Z" fill="#F5B9B3"/>
<path d="M547.964 381.543C547.816 381.542 547.675 381.483 547.57 381.38C547.466 381.275 547.408 381.133 547.408 380.986C547.408 380.838 547.466 380.697 547.57 380.592L555.851 372.313C555.903 372.261 555.965 372.22 556.033 372.192C556.101 372.164 556.173 372.15 556.247 372.15C556.32 372.151 556.393 372.165 556.46 372.193C556.528 372.222 556.589 372.263 556.641 372.315C556.693 372.367 556.734 372.428 556.762 372.496C556.79 372.564 556.804 372.637 556.804 372.71C556.804 372.783 556.789 372.856 556.761 372.923C556.733 372.991 556.691 373.052 556.639 373.104L548.335 381.376C548.237 381.477 548.104 381.536 547.964 381.543Z" fill="#F5B9B3"/>
<path d="M556.237 389.815C556.09 389.813 555.949 389.755 555.843 389.651L547.562 381.376C547.458 381.271 547.4 381.129 547.4 380.982C547.4 380.835 547.458 380.693 547.562 380.588C547.613 380.536 547.675 380.495 547.742 380.467C547.81 380.438 547.883 380.424 547.956 380.424C548.029 380.424 548.102 380.438 548.169 380.467C548.237 380.495 548.298 380.536 548.35 380.588L556.631 388.864C556.709 388.942 556.762 389.041 556.784 389.149C556.805 389.257 556.794 389.369 556.752 389.471C556.71 389.572 556.639 389.659 556.547 389.72C556.455 389.782 556.348 389.814 556.237 389.815Z" fill="#F5B9B3"/>
<path d="M547.964 389.815C547.816 389.814 547.675 389.755 547.57 389.652C547.466 389.547 547.408 389.405 547.408 389.258C547.408 389.111 547.466 388.969 547.57 388.864L555.851 380.589C555.957 380.491 556.097 380.437 556.241 380.44C556.386 380.442 556.523 380.501 556.626 380.603C556.728 380.705 556.786 380.842 556.789 380.987C556.791 381.131 556.738 381.271 556.639 381.376L548.335 389.652C548.237 389.751 548.104 389.81 547.964 389.815Z" fill="#F5B9B3"/>
<path d="M556.237 398.09C556.09 398.089 555.949 398.03 555.843 397.927L547.562 389.651C547.458 389.546 547.4 389.405 547.4 389.257C547.4 389.11 547.458 388.969 547.562 388.864C547.613 388.812 547.675 388.77 547.742 388.742C547.81 388.714 547.883 388.699 547.956 388.699C548.029 388.699 548.102 388.714 548.169 388.742C548.237 388.77 548.298 388.812 548.35 388.864L556.631 397.139C556.709 397.217 556.762 397.316 556.784 397.424C556.805 397.532 556.794 397.644 556.752 397.746C556.71 397.848 556.639 397.935 556.547 397.996C556.455 398.057 556.348 398.09 556.237 398.09Z" fill="#F5B9B3"/>
<path d="M547.964 398.091C547.816 398.089 547.675 398.031 547.57 397.927C547.466 397.822 547.408 397.681 547.408 397.534C547.408 397.386 547.466 397.245 547.57 397.14L555.851 388.864C555.957 388.766 556.097 388.712 556.241 388.715C556.386 388.717 556.523 388.776 556.626 388.878C556.728 388.98 556.786 389.118 556.789 389.262C556.791 389.407 556.738 389.546 556.639 389.652L548.335 397.927C548.237 398.027 548.104 398.085 547.964 398.091Z" fill="#F5B9B3"/>
<path d="M556.237 406.555C556.09 406.554 555.949 406.495 555.843 406.391L547.562 398.116C547.458 398.011 547.4 397.87 547.4 397.722C547.4 397.575 547.458 397.433 547.562 397.329C547.613 397.276 547.675 397.235 547.742 397.207C547.81 397.179 547.883 397.164 547.956 397.164C548.029 397.164 548.102 397.179 548.169 397.207C548.237 397.235 548.298 397.276 548.35 397.329L556.631 405.604C556.709 405.682 556.762 405.781 556.784 405.889C556.805 405.997 556.794 406.109 556.752 406.211C556.71 406.313 556.639 406.4 556.547 406.461C556.455 406.522 556.348 406.555 556.237 406.555Z" fill="#F5B9B3"/>
<path d="M547.964 406.555C547.816 406.554 547.675 406.496 547.57 406.392C547.466 406.287 547.408 406.146 547.408 405.998C547.408 405.851 547.466 405.71 547.57 405.605L555.851 397.329C555.957 397.231 556.097 397.177 556.241 397.18C556.386 397.182 556.523 397.241 556.626 397.343C556.728 397.445 556.786 397.583 556.789 397.727C556.791 397.871 556.738 398.011 556.639 398.117L548.335 406.392C548.237 406.492 548.104 406.55 547.964 406.555Z" fill="#F5B9B3"/>
<path d="M556.237 414.83C556.09 414.829 555.949 414.77 555.843 414.667L547.562 406.391C547.458 406.286 547.4 406.145 547.4 405.998C547.4 405.85 547.458 405.709 547.562 405.604C547.613 405.552 547.675 405.51 547.742 405.482C547.81 405.454 547.883 405.439 547.956 405.439C548.029 405.439 548.102 405.454 548.169 405.482C548.237 405.51 548.298 405.552 548.35 405.604L556.631 413.879C556.709 413.957 556.762 414.057 556.784 414.165C556.805 414.273 556.794 414.384 556.752 414.486C556.71 414.588 556.639 414.675 556.547 414.736C556.455 414.797 556.348 414.83 556.237 414.83Z" fill="#F5B9B3"/>
<path d="M547.964 414.831C547.816 414.83 547.675 414.771 547.57 414.667C547.466 414.563 547.408 414.421 547.408 414.274C547.408 414.126 547.466 413.985 547.57 413.88L555.851 405.605C555.957 405.506 556.097 405.453 556.241 405.455C556.386 405.458 556.523 405.516 556.626 405.618C556.728 405.72 556.786 405.858 556.789 406.002C556.791 406.147 556.738 406.286 556.639 406.392L548.335 414.667C548.237 414.767 548.104 414.825 547.964 414.831Z" fill="#F5B9B3"/>
<path d="M556.237 423.106C556.09 423.104 555.949 423.046 555.843 422.942L547.562 414.667C547.458 414.562 547.4 414.42 547.4 414.273C547.4 414.126 547.458 413.984 547.562 413.879C547.613 413.827 547.675 413.786 547.742 413.758C547.81 413.729 547.883 413.715 547.956 413.715C548.029 413.715 548.102 413.729 548.169 413.758C548.237 413.786 548.298 413.827 548.35 413.879L556.631 422.155C556.709 422.233 556.762 422.332 556.784 422.44C556.805 422.548 556.794 422.66 556.752 422.762C556.71 422.863 556.639 422.95 556.547 423.012C556.455 423.073 556.348 423.105 556.237 423.106Z" fill="#F5B9B3"/>
<path d="M547.964 423.107C547.816 423.105 547.675 423.047 547.57 422.943C547.466 422.838 547.408 422.697 547.408 422.55C547.408 422.402 547.466 422.261 547.57 422.156L555.851 413.88C555.902 413.826 555.964 413.782 556.032 413.751C556.101 413.721 556.175 413.705 556.249 413.703C556.324 413.702 556.399 413.716 556.468 413.744C556.537 413.772 556.601 413.813 556.653 413.866C556.706 413.919 556.748 413.982 556.776 414.052C556.804 414.121 556.818 414.195 556.817 414.27C556.815 414.345 556.799 414.419 556.769 414.487C556.738 414.555 556.694 414.617 556.639 414.668L548.335 422.943C548.237 423.043 548.104 423.101 547.964 423.107Z" fill="#F5B9B3"/>
<path d="M556.237 431.381C556.09 431.38 555.949 431.321 555.843 431.218L547.562 422.942C547.458 422.837 547.4 422.696 547.4 422.548C547.4 422.401 547.458 422.26 547.562 422.155C547.613 422.103 547.675 422.061 547.742 422.033C547.81 422.005 547.883 421.99 547.956 421.99C548.029 421.99 548.102 422.005 548.169 422.033C548.237 422.061 548.298 422.103 548.35 422.155L556.631 430.43C556.709 430.508 556.762 430.607 556.784 430.715C556.805 430.823 556.794 430.935 556.752 431.037C556.71 431.139 556.639 431.226 556.547 431.287C556.455 431.348 556.348 431.381 556.237 431.381Z" fill="#F5B9B3"/>
<path d="M547.964 431.382C547.816 431.38 547.675 431.322 547.57 431.218C547.466 431.113 547.408 430.972 547.408 430.825C547.408 430.677 547.466 430.536 547.57 430.431L555.851 422.155C555.957 422.057 556.097 422.003 556.241 422.006C556.386 422.008 556.523 422.067 556.626 422.169C556.728 422.271 556.786 422.409 556.789 422.553C556.791 422.698 556.738 422.837 556.639 422.943L548.335 431.218C548.237 431.318 548.104 431.376 547.964 431.382Z" fill="#F5B9B3"/>
<path d="M556.237 439.656C556.09 439.655 555.949 439.596 555.843 439.493L547.562 431.218C547.458 431.113 547.4 430.971 547.4 430.824C547.4 430.677 547.458 430.535 547.562 430.43C547.613 430.378 547.675 430.337 547.742 430.308C547.81 430.28 547.883 430.266 547.956 430.266C548.029 430.266 548.102 430.28 548.169 430.308C548.237 430.337 548.298 430.378 548.35 430.43L556.631 438.706C556.709 438.783 556.762 438.883 556.784 438.991C556.805 439.099 556.794 439.211 556.752 439.312C556.71 439.414 556.639 439.501 556.547 439.562C556.455 439.624 556.348 439.656 556.237 439.656Z" fill="#F5B9B3"/>
<path d="M547.964 439.656C547.816 439.654 547.675 439.596 547.57 439.492C547.466 439.387 547.408 439.246 547.408 439.098C547.408 438.951 547.466 438.81 547.57 438.705L555.851 430.429C555.902 430.375 555.964 430.331 556.032 430.3C556.101 430.27 556.175 430.253 556.249 430.252C556.324 430.251 556.399 430.264 556.468 430.292C556.537 430.321 556.601 430.362 556.653 430.415C556.706 430.468 556.748 430.531 556.776 430.6C556.804 430.67 556.818 430.744 556.817 430.819C556.815 430.894 556.799 430.967 556.769 431.036C556.738 431.104 556.694 431.166 556.639 431.217L548.335 439.485C548.238 439.587 548.105 439.648 547.964 439.656Z" fill="#F5B9B3"/>
<path d="M698.132 442.474H586.844C586.845 434.374 589.662 426.526 594.812 420.271C599.963 414.016 607.128 409.742 615.082 408.181C623.036 406.62 631.286 407.867 638.422 411.71C645.557 415.554 651.136 421.754 654.204 429.252H684.899C686.637 429.252 688.357 429.594 689.963 430.258C691.568 430.923 693.027 431.897 694.256 433.124C695.485 434.352 696.459 435.81 697.124 437.414C697.789 439.019 698.132 440.738 698.132 442.474Z" fill="#875E00"/>
<path d="M699.061 442.475H697.202C697.199 439.413 695.981 436.477 693.814 434.311C691.648 432.146 688.71 430.927 685.646 430.924H647.535V429.066H685.646C689.203 429.071 692.613 430.486 695.127 432.999C697.642 435.513 699.057 438.921 699.061 442.475Z" fill="#9C7F00"/>
<path d="M557.739 398.256C557.741 400.34 557.583 402.422 557.267 404.481C556.189 404.381 555.093 404.329 553.989 404.329H552.078C552.078 403.809 552.104 403.285 552.104 402.762C552.104 383.447 539.983 367.81 525.033 367.81C511.425 367.81 500.162 380.769 498.248 397.647C498.523 378.626 511.733 363.309 527.984 363.309C544.421 363.309 557.739 378.942 557.739 398.256Z" fill="#F78F00"/>
<path d="M497.959 402.762C497.959 383.448 510.08 367.811 525.034 367.811C539.987 367.811 552.105 383.459 552.105 402.762C552.105 403.286 552.105 403.809 552.079 404.329H553.989C561.812 404.33 569.411 406.935 575.586 411.733C581.761 416.531 586.161 423.248 588.089 430.823H610.161C613.254 430.823 616.22 432.051 618.406 434.236C620.593 436.421 621.821 439.385 621.821 442.475H497.959V402.762Z" fill="#9C7F00"/>
<path d="M187.702 442.474H81.373C82.3506 430.648 93.7694 421.303 107.716 421.303H108.199C107.846 419.564 107.668 417.795 107.667 416.021C107.667 401.483 119.491 388.535 134.058 388.535C148.625 388.535 160.449 401.494 160.449 416.021C160.477 421.346 158.875 426.552 155.859 430.941C159.585 428.299 164.054 426.905 168.623 426.959C179.161 426.945 187.702 433.913 187.702 442.474Z" fill="#9C7F00"/>
<path d="M187.702 442.474H183.134C182.357 435.224 174.157 429.519 164.151 429.519C161.331 429.505 158.531 429.979 155.873 430.919C159.595 428.28 164.059 426.887 168.622 426.941C179.156 426.941 187.702 433.913 187.702 442.474Z" fill="#F78F00"/>
<path d="M160.49 416.041C160.499 421.355 158.886 426.546 155.866 430.92C154.293 431.477 152.795 432.225 151.406 433.149C154.387 429.279 156.009 424.535 156.022 419.651C156.022 406.476 144.221 394.725 129.661 394.725C123.092 394.731 116.752 397.139 111.838 401.496C116.532 393.866 124.736 388.563 134.069 388.563C148.666 388.548 160.49 401.507 160.49 416.041Z" fill="#F78F00"/>
</g>
<path d="M217.944 481.301H144.96V512.248H217.944V481.301Z" fill="#F88B90"/>
<path d="M365.643 472.327H362.484L362.279 471.759C362.105 471.28 361.93 470.801 361.748 470.329L359.919 465.545L365.643 472.327Z" fill="#41B6D3"/>
<path d="M262.5 471.997L260.634 470.931L277.963 440.634V374.705H280.115V441.206L262.5 471.997Z" fill="#41B6D3"/>
<path d="M216.461 472.358L252.858 448.672C260.493 443.702 275.294 438.015 302.447 439.13C320.248 439.873 339.487 443.509 353.909 448.883L354.251 449.01L363.886 470.861L216.461 472.358ZM295.883 440.742C279.572 440.742 264.147 443.39 253.802 450.12L222.378 470.571L361.243 469.16L352.961 450.376C338.082 444.894 316.293 440.742 295.883 440.742Z" fill="#41B6D3"/>
<path d="M288.463 351.888V407.956L271.982 401.719C264.711 364.606 236.495 335.664 202.102 326.111C236.124 326.2 266.585 336.4 288.463 351.888Z" fill="#F1E5E4"/>
<path d="M253.337 393.132C241.569 387.52 228.087 383.453 213.535 381.41V334.469C225.469 339.738 236.151 347.474 244.877 357.167C255.729 369.189 263.405 383.728 267.209 399.465L253.337 393.132Z" fill="#008187"/>
<path d="M213.535 334.467V381.409C210.463 380.973 207.344 380.631 204.18 380.383V330.965C207.362 331.956 210.485 333.125 213.535 334.467Z" fill="#F88B90"/>
<path d="M219.873 337.551V382.438C219.475 382.364 219.081 382.293 218.68 382.226V336.912C219.051 337.098 219.423 337.284 219.772 337.484L219.873 337.551Z" fill="#00AAA3"/>
<path d="M226.939 341.759V383.924L225.746 383.645V340.99C226.118 341.213 226.452 341.44 226.802 341.67L226.939 341.759Z" fill="#00AAA3"/>
<path d="M234.009 346.907V385.795C233.611 385.676 233.213 385.565 232.815 385.454V345.971C233.217 346.275 233.615 346.591 234.009 346.907Z" fill="#00AAA3"/>
<path d="M241.075 353.202V388.072C240.681 387.93 240.283 387.793 239.882 387.659V352.043C240.283 352.426 240.681 352.808 241.075 353.202Z" fill="#00AAA3"/>
<path d="M248.144 360.98V390.802C247.75 390.635 247.353 390.468 246.951 390.308V359.535L247.553 360.256C247.62 360.337 247.687 360.415 247.75 360.497C247.884 360.657 247.999 360.817 248.144 360.98Z" fill="#00AAA3"/>
<path d="M218.68 336.926V346.145C217.004 345.061 215.29 344.019 213.535 343.021V334.479C215.275 335.236 216.989 336.052 218.68 336.926Z" fill="#005050"/>
<path d="M225.746 340.99V351.13C223.85 349.667 221.893 348.265 219.873 346.926V337.551C221.87 338.62 223.828 339.767 225.746 340.99Z" fill="#005050"/>
<path d="M232.816 345.972V357.185C230.94 355.402 228.981 353.699 226.939 352.074V341.76C228.952 343.082 230.91 344.486 232.816 345.972Z" fill="#005050"/>
<path d="M239.882 352.043V364.731C238.035 362.499 236.075 360.363 234.009 358.331V346.906C236.031 348.531 237.988 350.243 239.882 352.043Z" fill="#005050"/>
<path d="M246.952 359.536V374.728C245.178 371.766 243.215 368.921 241.075 366.211V353.211C242.376 354.489 243.644 355.81 244.878 357.174C245.584 357.947 246.275 358.734 246.952 359.536Z" fill="#005050"/>
<path d="M267.209 399.464C263.068 397.529 259.139 395.75 255.367 394.156C253.629 388.112 251.206 382.287 248.145 376.792V360.98C257.287 372.23 263.8 385.378 267.209 399.464Z" fill="#005050"/>
<path d="M219.772 337.5L219.873 337.552V346.927C219.479 346.664 219.081 346.404 218.68 346.147V336.928C219.044 337.113 219.408 337.307 219.772 337.5Z" fill="#007373"/>
<path d="M226.812 341.67L226.95 341.759V352.074C226.556 351.754 226.158 351.442 225.757 351.13V340.99C226.103 341.213 226.441 341.429 226.812 341.67Z" fill="#007373"/>
<path d="M232.815 345.971C233.217 346.275 233.615 346.591 234.009 346.907V358.332C233.615 357.96 233.217 357.559 232.815 357.184V345.971Z" fill="#007373"/>
<path d="M239.882 352.043C240.283 352.414 240.681 352.808 241.075 353.202V366.202C240.686 365.707 240.288 365.211 239.882 364.716V352.043Z" fill="#007373"/>
<path d="M248.144 360.98V376.792C247.773 376.097 247.36 375.406 246.951 374.727V359.535L247.553 360.256C247.62 360.337 247.687 360.415 247.75 360.497C247.884 360.657 247.999 360.817 248.144 360.98Z" fill="#007373"/>
<path d="M271.981 401.718C270.361 400.943 268.77 400.191 267.209 399.463C263.402 383.727 255.726 369.189 244.877 357.165C233.905 344.946 219.849 335.897 204.179 330.965V380.383C202.804 380.272 201.419 380.181 200.023 380.112V328.186C200.026 327.868 200.101 327.554 200.244 327.27C200.387 326.986 200.593 326.738 200.847 326.546C201.101 326.354 201.396 326.222 201.709 326.162C202.022 326.102 202.344 326.115 202.651 326.199C219.943 331.002 235.607 340.748 247.951 354.391C260.017 367.759 268.31 384.093 271.981 401.718Z" fill="white"/>
<path d="M253.337 393.131V449.142L246.996 453.826L182.208 397.061V442.029L163.393 382.534C172.794 380.771 182.34 379.889 191.906 379.9C194.647 379.9 197.359 379.971 200.042 380.112C201.438 380.182 202.823 380.272 204.198 380.383C207.36 380.631 210.479 380.973 213.554 381.409C215.288 381.656 217.003 381.928 218.698 382.226C219.1 382.292 219.494 382.363 219.891 382.437C221.874 382.801 223.831 383.204 225.764 383.645L226.957 383.923C228.94 384.394 230.899 384.904 232.834 385.453C233.232 385.565 233.629 385.676 234.027 385.795C236.01 386.374 237.967 386.994 239.9 387.652C240.302 387.786 240.699 387.923 241.093 388.065C243.088 388.768 245.047 389.511 246.97 390.293C247.371 390.453 247.769 390.62 248.163 390.787C249.918 391.54 251.642 392.321 253.337 393.131Z" fill="#F1E5E4"/>
<path d="M182.19 399.197L245.175 454.99L219.42 471.466H133.932L182.19 455.149V399.197Z" fill="#008187"/>
<path d="M246.996 453.827L246.527 454.128L246.973 453.809L246.996 453.827Z" fill="#008187"/>
<path d="M182.405 437.212L182.19 399.196L166.426 385.23L182.405 437.212Z" fill="#F88B90"/>
<path d="M236.488 447.293L226.794 450.543L164.403 471.466H160.917V471.462L181.632 464.517V455.933L137.351 471.466H133.998V471.462L181.632 454.752V398.703L182.747 399.687V464.141L189.151 461.995V405.37H189.159L190.266 406.351V461.619L196.221 459.625V411.625L197.336 412.613V459.25L203.287 457.255V417.884L204.402 418.872V456.88L210.357 454.882V424.146L211.472 425.134V454.51L217.423 452.512V430.405L218.538 431.393V452.141L224.493 450.142V436.671L225.608 437.659V449.767L225.835 449.693L235.525 446.443L236.488 447.293Z" fill="#00AAA3"/>
<path d="M189.159 405.37H189.152V417.078L182.747 411.384V399.688L189.159 405.37Z" fill="#005050"/>
<path d="M196.221 411.624V423.361L190.267 418.068V406.35L196.221 411.624Z" fill="#005050"/>
<path d="M203.288 417.884V429.647L197.337 424.354V412.613L203.288 417.884Z" fill="#005050"/>
<path d="M210.357 424.145V435.931L204.402 430.638V418.871L210.357 424.145Z" fill="#005050"/>
<path d="M217.424 430.405V442.213L211.473 436.924V425.135L217.424 430.405Z" fill="#005050"/>
<path d="M224.494 436.671V448.497L218.539 443.204V431.393L224.494 436.671Z" fill="#005050"/>
<path d="M235.525 446.442L225.835 449.692L225.608 449.488V437.658L235.525 446.442Z" fill="#005050"/>
<path d="M245.175 454.989L226.794 450.543L236.488 447.293L245.175 454.989Z" fill="#005050"/>
<path d="M181.632 398.702L182.747 399.687V411.383L181.632 410.395L181.617 410.38V398.688L181.632 398.702Z" fill="#007373"/>
<path d="M189.159 405.369L190.266 406.35V418.068L189.151 417.077V405.369H189.159Z" fill="#007373"/>
<path d="M196.222 411.625L197.337 412.613V424.354L196.222 423.362V411.625Z" fill="#007373"/>
<path d="M204.402 418.871V430.638L203.287 429.646V417.883L204.402 418.871Z" fill="#007373"/>
<path d="M210.357 424.146L211.473 425.134V436.924L210.357 435.932V424.146Z" fill="#007373"/>
<path d="M217.424 430.408L218.539 431.392V443.204L217.424 442.212V430.408Z" fill="#007373"/>
<path d="M224.493 436.67L225.608 437.658V449.488L224.493 448.496V436.67Z" fill="#007373"/>
<path d="M236.488 447.292L226.794 450.542L225.835 449.691L235.525 446.441L236.488 447.292Z" fill="#007373"/>
<path d="M166.426 385.231L181.54 434.631V442.253L163.326 382.802C163.288 382.672 163.281 382.536 163.305 382.403C163.329 382.27 163.383 382.145 163.464 382.037C163.545 381.929 163.65 381.841 163.77 381.78C163.891 381.719 164.024 381.688 164.159 381.688H168.619L248.673 452.593L245.142 455.019L166.426 385.231Z" fill="white"/>
<path d="M435.442 471.466H402.709C398.227 441.558 389.7 413.764 377.646 389.588C380.151 391.44 382.599 393.363 384.99 395.356C408.144 414.644 425.904 440.399 435.442 471.466Z" fill="white"/>
<path d="M404.817 471.462H395.77C389.213 436.343 377.954 405.08 362.882 379.842C369.57 383.759 375.973 388.143 382.043 392.961C392.685 416.16 400.535 442.736 404.817 471.462Z" fill="#F7C5C1"/>
<path d="M269.796 371.675V437.417L255.434 447.658V365.754C260.328 367.537 265.115 369.51 269.796 371.675Z" fill="#F88B90"/>
<path d="M435.442 471.465H363.161C353.881 447.017 339.364 424.892 320.627 406.639C302.066 388.516 279.837 374.575 255.434 365.753V446.353L251.278 449.02V362.696H251.405L251.356 357.904C251.353 357.583 251.413 357.265 251.534 356.967C251.655 356.669 251.833 356.398 252.059 356.17C252.285 355.942 252.554 355.76 252.851 355.637C253.148 355.513 253.466 355.449 253.787 355.449H270.432C346.248 355.449 413.199 399.018 435.442 471.465Z" fill="white"/>
<path d="M363.161 471.466H217.189L269.797 437.432V371.689C312.785 391.467 346.303 427.293 363.161 471.481V471.466Z" fill="#008187"/>
<path d="M362.372 469.434L361.863 469.006C359.834 467.298 357.757 465.656 355.633 464.081V471.469H354.518V463.257C352.568 461.835 350.586 460.473 348.571 459.171V471.469H347.456V458.469C345.506 457.231 343.523 456.045 341.509 454.911V471.48H340.393V454.29C338.436 453.213 336.453 452.186 334.446 451.208V471.48H333.331V450.68C331.361 449.739 329.369 448.85 327.354 448.013L325.931 471.48V471.517L325.31 471.48L324.815 471.45L326.265 447.568C324.27 446.758 322.256 445.995 320.221 445.28L314.872 471.48H313.735L319.158 444.916C317.153 444.232 315.134 443.597 313.099 443.01L303.755 471.465H302.58L312.018 442.687C309.966 442.115 307.901 441.591 305.821 441.116L291.626 471.465H290.373L304.691 440.867C302.786 440.446 300.867 440.075 298.934 439.753L279.605 471.484H278.297L297.767 439.541C295.784 439.214 293.793 438.933 291.793 438.698L266.674 471.473H265.269L290.5 438.549C288.552 438.336 286.596 438.168 284.631 438.044L252.612 471.473H251.073L283.166 437.959C281.293 437.86 279.417 437.8 277.539 437.78L238.781 471.465H237.079L275.844 437.766H270.848L218.378 471.465H216.315L269.796 437.116V436.651H276.769V375.068C277.141 375.262 277.513 375.44 277.884 375.648V436.662C279.867 436.69 281.849 436.76 283.832 436.874V378.894L284.389 379.217L284.947 379.54V436.941C286.929 437.07 288.911 437.244 290.894 437.465V383.143L292.009 383.853V437.595C293.991 437.842 295.974 438.123 297.956 438.438V387.857L298.257 388.072C298.529 388.258 298.8 388.444 299.071 388.648V438.631C301.066 438.973 303.049 439.364 305.019 439.805V393.057C305.312 393.283 305.606 393.51 305.899 393.744C305.978 393.803 306.056 393.863 306.134 393.93V440.046C308.128 440.504 310.111 441.008 312.081 441.558V398.844L312.598 399.282L312.691 399.364C312.858 399.508 313.029 399.657 313.196 399.809V441.877C315.196 442.452 317.178 443.071 319.143 443.734V405.243L319.548 405.615L320.258 406.302V444.106C322.263 444.799 324.245 445.542 326.206 446.334V412.371C326.585 412.77 326.956 413.167 327.321 413.563V446.799C329.325 447.623 331.308 448.497 333.268 449.421V420.357C333.402 420.513 333.536 420.672 333.666 420.832C333.907 421.122 334.149 421.415 334.383 421.709V449.937C336.395 450.903 338.378 451.919 340.33 452.987V429.401L340.88 430.144L341.445 430.924V453.581C342.345 454.076 343.237 454.588 344.122 455.115C345.222 455.759 346.313 456.42 347.396 457.098V439.857C347.504 440.024 347.608 440.191 347.712 440.358L348.084 440.971C348.229 441.201 348.367 441.432 348.504 441.662V457.83C350.524 459.12 352.506 460.466 354.451 461.868V452.21C354.574 452.441 354.693 452.671 354.823 452.905L355.195 453.6C355.332 453.863 355.466 454.123 355.596 454.387V462.674C357.585 464.137 359.536 465.645 361.447 467.227C361.517 467.394 361.588 467.565 361.655 467.736L361.859 468.241L362.027 468.654C362.164 468.925 362.272 469.177 362.372 469.434Z" fill="#00AAA3"/>
<path d="M276.77 375.069V384.031C274.488 382.689 272.163 381.387 269.797 380.124V371.674C272.151 372.758 274.475 373.89 276.77 375.069Z" fill="#005050"/>
<path d="M283.839 378.898V388.366C281.889 387.111 279.906 385.885 277.892 384.689V375.648C279.894 376.696 281.876 377.779 283.839 378.898Z" fill="#005050"/>
<path d="M290.905 383.144V393.132C288.958 391.75 286.975 390.402 284.958 389.087V379.541C286.963 380.705 288.945 381.906 290.905 383.144Z" fill="#005050"/>
<path d="M297.976 387.857V398.398C296.03 396.872 294.048 395.387 292.028 393.941V383.871C294.033 385.151 296.015 386.48 297.976 387.857Z" fill="#005050"/>
<path d="M305.041 393.057V404.229C303.101 402.535 301.118 400.881 299.094 399.267V388.633C301.101 390.069 303.083 391.544 305.041 393.057Z" fill="#005050"/>
<path d="M312.111 398.843V410.777C310.174 408.878 308.191 407.021 306.164 405.206V393.922C308.179 395.521 310.161 397.162 312.111 398.843Z" fill="#005050"/>
<path d="M326.247 412.371V426.563C324.329 424.112 322.347 421.723 320.3 419.398V406.316L320.634 406.64C322.552 408.517 324.423 410.427 326.247 412.371Z" fill="#005050"/>
<path d="M319.177 405.245V418.152C317.251 416.01 315.269 413.92 313.229 411.882V399.811C315.247 401.571 317.229 403.382 319.177 405.245Z" fill="#005050"/>
<path d="M333.313 420.364V436.335C331.41 433.485 329.428 430.712 327.366 428.015V413.574C329.413 415.793 331.395 418.056 333.313 420.364Z" fill="#005050"/>
<path d="M340.383 429.424V447.921C338.497 444.521 336.515 441.222 334.436 438.023V421.717C336.492 424.235 338.475 426.804 340.383 429.424Z" fill="#005050"/>
<path d="M347.449 439.858V457.126C346.369 456.447 345.277 455.786 344.174 455.142C343.309 453.384 342.417 451.651 341.498 449.942V430.951C343.572 433.873 345.556 436.842 347.449 439.858Z" fill="#005050"/>
<path d="M354.519 452.236V461.893C352.568 460.494 350.586 459.149 348.571 457.856V441.691C350.66 445.131 352.643 448.646 354.519 452.236Z" fill="#005050"/>
<path d="M361.484 467.243C359.574 465.665 357.622 464.153 355.634 462.69V454.414C357.743 458.594 359.693 462.87 361.484 467.243Z" fill="#005050"/>
<path d="M276.77 375.068C277.141 375.262 277.513 375.44 277.885 375.648V384.688C277.513 384.466 277.141 384.246 276.77 384.031V375.068Z" fill="#007373"/>
<path d="M284.396 379.218L284.954 379.541V389.087L283.839 388.366V378.898L284.396 379.218Z" fill="#007373"/>
<path d="M290.905 383.143L292.02 383.852V393.921C291.649 393.654 291.277 393.39 290.905 393.13V383.143Z" fill="#007373"/>
<path d="M298.277 388.065C298.548 388.251 298.819 388.437 299.091 388.641V399.275C298.724 398.978 298.352 398.685 297.976 398.395V387.857L298.277 388.065Z" fill="#007373"/>
<path d="M305.922 393.751C306 393.811 306.078 393.87 306.156 393.937V405.221C305.784 404.887 305.413 404.56 305.041 404.237V393.057C305.335 393.291 305.613 393.517 305.922 393.751Z" fill="#007373"/>
<path d="M312.721 399.371C312.888 399.516 313.059 399.664 313.226 399.817V411.888C312.857 411.517 312.486 411.145 312.111 410.774V398.84L312.628 399.278L312.721 399.371Z" fill="#007373"/>
<path d="M320.292 406.318V419.407C319.92 418.987 319.548 418.567 319.177 418.151V405.244L319.582 405.616L320.292 406.318Z" fill="#007373"/>
<path d="M326.247 412.371C326.626 412.77 326.998 413.167 327.362 413.563V428.005C326.99 427.522 326.619 427.039 326.247 426.563V412.371Z" fill="#007373"/>
<path d="M333.711 420.84C333.953 421.13 334.194 421.424 334.429 421.717V438.023C334.059 437.458 333.688 436.895 333.313 436.333V420.361C333.447 420.521 333.581 420.681 333.711 420.84Z" fill="#007373"/>
<path d="M341.498 430.969V449.96C341.129 449.277 340.757 448.597 340.383 447.921V429.424L340.933 430.167C341.122 430.442 341.297 430.705 341.498 430.969Z" fill="#007373"/>
<path d="M362.373 469.434C356.925 464.82 351.12 460.644 345.014 456.943C344.817 456.538 344.382 455.554 344.182 455.153C345.282 455.797 346.373 456.458 347.456 457.136V439.857C347.564 440.025 347.668 440.192 347.772 440.359L348.144 440.972C348.289 441.202 348.427 441.432 348.564 441.663V457.831C350.584 459.121 352.566 460.467 354.511 461.868V452.211C354.634 452.438 354.753 452.668 354.883 452.895L355.255 453.589C355.392 453.857 355.526 454.12 355.656 454.388V462.663C357.645 464.127 359.596 465.635 361.507 467.217L362.373 469.434Z" fill="#007373"/>
<path d="M325.913 471.467L325.909 471.504L325.288 471.467H325.913Z" fill="#00AAA3"/>
<path d="M334.429 471.467H333.313V471.47H334.429V471.467Z" fill="#00AAA3"/>
<path d="M341.498 471.467H340.383V471.47H341.498V471.467Z" fill="#00AAA3"/>
<path d="M348.563 471.467H347.448V471.47H348.563V471.467Z" fill="#00AAA3"/>
<path d="M355.634 471.467H354.519V471.47H355.634V471.467Z" fill="#00AAA3"/>
<path d="M377.646 389.588C356.161 373.687 330.662 362.96 303.123 358.221V312.268C325.098 321.553 345.289 338.944 362.116 363.216C367.92 371.622 373.11 380.436 377.646 389.588Z" fill="#008187"/>
<path d="M377.646 389.588C376.655 388.86 375.664 388.141 374.673 387.43L373.479 386.598C371.549 385.261 369.592 383.964 367.607 382.709L366.413 381.966C364.481 380.77 362.522 379.611 360.537 378.49L359.344 377.821C357.411 376.746 355.453 375.711 353.471 374.716L352.876 374.419C352.679 374.315 352.478 374.214 352.278 374.118C350.34 373.16 348.381 372.236 346.401 371.347L345.806 371.083L345.208 370.82C343.27 369.965 341.312 369.146 339.335 368.361L338.142 367.893C336.201 367.15 334.243 366.429 332.265 365.731C332.068 365.66 331.871 365.59 331.67 365.527C331.47 365.464 331.273 365.386 331.072 365.319C329.132 364.658 327.174 364.029 325.199 363.432L324.006 363.06C322.061 362.486 320.102 361.944 318.129 361.434L317.535 361.281L316.936 361.129C314.988 360.634 313.031 360.174 311.063 359.751L310.446 359.628L309.851 359.498C307.621 359.03 305.376 358.602 303.116 358.213V312.268C305.381 313.221 307.625 314.263 309.848 315.395L311.041 316.008C313.023 317.038 314.981 318.136 316.914 319.302C317.312 319.54 317.713 319.782 318.107 320.045C320.089 321.264 322.048 322.551 323.984 323.908L325.177 324.755C327.159 326.174 329.117 327.66 331.05 329.212L332.243 330.185C334.225 331.825 336.184 333.537 338.119 335.322C338.521 335.691 338.919 336.063 339.313 336.436C341.295 338.308 343.253 340.261 345.185 342.294C345.582 342.715 345.98 343.138 346.379 343.564C348.361 345.711 350.32 347.94 352.255 350.25L353.448 351.698C355.443 354.147 357.401 356.684 359.321 359.309C359.723 359.855 360.117 360.423 360.515 360.958C361.05 361.701 361.581 362.462 362.109 363.224C363.569 365.331 364.996 367.478 366.391 369.664C366.793 370.292 367.19 370.927 367.584 371.562C369.616 374.829 371.574 378.178 373.457 381.61C373.859 382.352 374.256 383.073 374.65 383.812C375.676 385.709 376.675 387.634 377.646 389.588Z" fill="#008187"/>
<path d="M311.052 316.007V359.765L309.858 359.509V315.395L311.052 316.007Z" fill="#00AAA3"/>
<path d="M318.118 320.027V361.449L317.523 361.293L316.925 361.144V319.303C317.323 319.54 317.724 319.782 318.118 320.027Z" fill="#00AAA3"/>
<path d="M325.187 324.737V363.433L323.994 363.061V323.891L325.187 324.737Z" fill="#00AAA3"/>
<path d="M332.254 330.178V365.731C331.856 365.59 331.462 365.453 331.061 365.319V329.205C331.072 329.212 331.082 329.221 331.09 329.231L332.205 330.148L332.254 330.178Z" fill="#00AAA3"/>
<path d="M339.323 336.432V368.375L338.13 367.907V335.314L338.234 335.411C338.509 335.664 338.78 335.916 339.048 336.172C339.141 336.258 339.234 336.343 339.323 336.432Z" fill="#00AAA3"/>
<path d="M346.389 343.559V371.346L345.795 371.078L345.196 370.818V342.289C345.593 342.705 345.99 343.128 346.389 343.559Z" fill="#00AAA3"/>
<path d="M353.459 351.691V374.719L352.864 374.422L352.266 374.125V350.242L352.31 350.294C352.693 350.755 353.076 351.223 353.459 351.691Z" fill="#00AAA3"/>
<path d="M360.525 360.95V378.489L359.332 377.82V359.301C359.733 359.847 360.127 360.396 360.525 360.95Z" fill="#00AAA3"/>
<path d="M367.596 371.554V382.697C367.197 382.449 366.799 382.202 366.402 381.954V369.656C366.804 370.284 367.202 370.919 367.596 371.554Z" fill="#00AAA3"/>
<path d="M374.661 383.804V387.429L374.323 387.192L373.706 386.765L373.468 386.597V381.605C373.859 382.314 374.246 383.027 374.628 383.745C374.641 383.763 374.652 383.783 374.661 383.804Z" fill="#00AAA3"/>
<path d="M303.123 312.267V358.224C299.654 357.623 296.153 357.12 292.619 356.716V308.486C296.188 309.552 299.695 310.814 303.123 312.267Z" fill="#F88B90"/>
<path d="M309.858 315.395V325.795C307.646 324.592 305.402 323.477 303.127 322.452V312.268C305.392 313.221 307.636 314.263 309.858 315.395Z" fill="#005050"/>
<path d="M316.925 319.302V330C314.994 328.747 313.037 327.565 311.052 326.456V316.008C313.027 317.038 314.984 318.136 316.925 319.302Z" fill="#005050"/>
<path d="M323.995 323.889V334.95C322.064 333.487 320.106 332.097 318.118 330.779V320.008C320.096 321.238 322.054 322.532 323.995 323.889Z" fill="#005050"/>
<path d="M331.06 329.206V340.72C329.135 339.029 327.177 337.411 325.188 335.866V324.723C327.17 326.151 329.128 327.646 331.06 329.206Z" fill="#005050"/>
<path d="M338.13 335.315V347.393C336.208 345.445 334.249 343.573 332.254 341.777V330.178C334.239 331.817 336.198 333.529 338.13 335.315Z" fill="#005050"/>
<path d="M345.196 342.291V355.076C343.281 352.847 341.323 350.694 339.323 348.616V336.434C341.311 338.306 343.268 340.258 345.196 342.291Z" fill="#005050"/>
<path d="M352.266 350.243V363.922C350.356 361.354 348.397 358.878 346.39 356.494V343.561C348.382 345.707 350.341 347.935 352.266 350.243Z" fill="#005050"/>
<path d="M359.332 359.302V374.115C357.429 371.16 355.471 368.3 353.459 365.535V351.691C355.454 354.14 357.411 356.677 359.332 359.302Z" fill="#005050"/>
<path d="M366.402 369.657V381.967C365.24 381.244 364.066 380.535 362.882 379.842C362.105 378.546 361.321 377.242 360.525 375.998V360.951C361.061 361.694 361.592 362.455 362.12 363.217C363.582 365.324 365.009 367.471 366.402 369.657Z" fill="#005050"/>
<path d="M373.468 381.606V386.598C371.537 385.261 369.58 383.966 367.595 382.713V371.57C369.639 374.827 371.597 378.172 373.468 381.606Z" fill="#005050"/>
<path d="M377.646 389.588C376.654 388.86 375.663 388.141 374.672 387.43V383.805C375.683 385.706 376.674 387.634 377.646 389.588Z" fill="#005050"/>
<path d="M309.858 315.395L311.052 316.007V326.456L309.858 325.795V315.395Z" fill="#007373"/>
<path d="M316.925 319.303C317.323 319.54 317.724 319.782 318.118 320.046V330.817C317.72 330.553 317.323 330.29 316.925 330.037V319.303Z" fill="#007373"/>
<path d="M323.994 323.891L325.187 324.737V335.88C324.79 335.572 324.392 335.267 323.994 334.97V323.891Z" fill="#007373"/>
<path d="M332.217 330.148L332.254 330.178V341.778C331.856 341.406 331.462 341.068 331.061 340.715V329.201C331.072 329.208 331.082 329.217 331.09 329.227L332.217 330.148Z" fill="#007373"/>
<path d="M339.067 336.172C339.159 336.258 339.252 336.343 339.342 336.432V348.615C338.948 348.203 338.55 347.798 338.148 347.393V335.314L338.253 335.411C338.509 335.664 338.78 335.916 339.067 336.172Z" fill="#007373"/>
<path d="M345.196 342.289C345.593 342.71 345.99 343.133 346.389 343.559V356.481C345.995 356.01 345.598 355.538 345.196 355.074V342.289Z" fill="#007373"/>
<path d="M352.31 350.294C352.682 350.755 353.076 351.223 353.459 351.691V365.541C353.065 364.999 352.667 364.457 352.266 363.922V350.242L352.31 350.294Z" fill="#007373"/>
<path d="M359.332 359.301C359.733 359.847 360.127 360.415 360.525 360.95V375.996C360.131 375.365 359.733 374.746 359.332 374.139V359.301Z" fill="#007373"/>
<path d="M366.402 369.656C366.804 370.284 367.202 370.919 367.596 371.554V382.697C367.197 382.449 366.799 382.202 366.402 381.954V369.656Z" fill="#007373"/>
<path d="M374.661 383.804V387.429L374.323 387.192L373.706 386.765L373.468 386.597V381.605C373.859 382.314 374.246 383.027 374.628 383.745C374.641 383.763 374.652 383.783 374.661 383.804Z" fill="#007373"/>
<path d="M472.802 471.465H402.71C398.227 441.558 389.7 413.764 377.646 389.588C373.112 380.436 367.923 371.622 362.12 363.216C342.643 335.121 318.661 316.249 292.612 308.486V356.716C291.231 356.558 289.846 356.414 288.456 356.285V304.062H292.277C392.291 304.527 472.802 373.397 472.802 471.465Z" fill="white"/>
<path d="M447.031 471.461H435.248C428.558 414.889 412.749 366.265 391.19 330.096C398.668 334.447 405.808 339.353 412.552 344.771C429.193 379.722 441.307 423.172 447.031 471.461Z" fill="#F7C5C1"/>
<path d="M528.967 470.288H526.982C527.055 446.793 523.397 423.434 516.146 401.084L518.038 400.475C525.353 423.022 529.042 446.586 528.967 470.288Z" fill="#F7C5C1"/>
<path d="M407.951 341.205C389.782 327.588 368.551 317.326 345.338 311.082V270.307C367.443 281.903 387.712 303.928 404.58 334.816C405.722 336.911 406.845 339.038 407.948 341.197L407.951 341.205Z" fill="#008187"/>
<path d="M345.337 270.308V311.083C342.115 310.211 338.854 309.42 335.554 308.709V265.902C338.902 267.169 342.169 268.64 345.337 270.308Z" fill="#F88B90"/>
<path d="M353.419 275.061V313.44L352.304 313.087V274.344L352.527 274.489C352.82 274.674 353.121 274.867 353.419 275.061Z" fill="#00AAA3"/>
<path d="M360.488 280.106V315.823L359.373 315.429V279.256L360.488 280.106Z" fill="#00AAA3"/>
<path d="M367.555 286.022V318.522C367.183 318.366 366.811 318.218 366.439 318.073V285.016C366.811 285.342 367.183 285.684 367.555 286.022Z" fill="#00AAA3"/>
<path d="M374.624 292.878V321.545L373.509 321.048V291.734C373.885 292.113 374.257 292.495 374.624 292.878Z" fill="#00AAA3"/>
<path d="M381.69 300.761V324.937C381.319 324.744 380.947 324.566 380.575 324.376V299.457C380.952 299.885 381.324 300.32 381.69 300.761Z" fill="#00AAA3"/>
<path d="M388.76 309.776V328.719C388.388 328.506 388.016 328.298 387.645 328.095V308.271C388.021 308.769 388.393 309.271 388.76 309.776Z" fill="#00AAA3"/>
<path d="M395.826 320.048V332.885C395.454 332.651 395.083 332.421 394.711 332.194V318.336L395.272 319.19L395.826 320.048Z" fill="#00AAA3"/>
<path d="M402.895 331.771V337.543C402.618 337.345 402.339 337.151 402.059 336.963L401.78 336.774V329.828C402.157 330.474 402.529 331.122 402.895 331.771Z" fill="#00AAA3"/>
<path d="M352.303 274.348V283.563C350.013 281.708 347.692 279.966 345.341 278.337V270.311C347.683 271.541 350.003 272.887 352.303 274.348Z" fill="#005050"/>
<path d="M359.373 279.256V289.701C357.41 287.873 355.428 286.13 353.426 284.471V275.07C355.426 276.375 357.408 277.771 359.373 279.256Z" fill="#005050"/>
<path d="M366.439 285.027V296.742C364.484 294.659 362.502 292.661 360.492 290.747V280.105C362.494 281.656 364.477 283.296 366.439 285.027Z" fill="#005050"/>
<path d="M373.509 291.734V304.782C371.554 302.413 369.571 300.132 367.562 297.941V286.021C369.569 287.832 371.551 289.736 373.509 291.734Z" fill="#005050"/>
<path d="M380.575 299.457V313.943C378.627 311.256 376.645 308.663 374.628 306.165V292.879C376.638 294.969 378.62 297.161 380.575 299.457Z" fill="#005050"/>
<path d="M387.645 308.272V324.344C385.704 321.291 383.722 318.338 381.697 315.485V300.762C383.709 303.166 385.692 305.67 387.645 308.272Z" fill="#005050"/>
<path d="M394.711 318.336V332.206C393.546 331.49 392.373 330.787 391.191 330.096C390.388 328.751 389.578 327.423 388.76 326.11V309.768C390.777 312.524 392.761 315.38 394.711 318.336Z" fill="#005050"/>
<path d="M401.78 329.829V336.786C399.83 335.454 397.848 334.157 395.833 332.897V320.057C397.855 323.199 399.837 326.456 401.78 329.829Z" fill="#005050"/>
<path d="M407.947 341.198C406.289 339.96 404.605 338.747 402.896 337.558V331.771C403.464 332.774 404.011 333.781 404.579 334.802C405.722 336.907 406.844 339.039 407.947 341.198Z" fill="#005050"/>
<path d="M352.527 274.489C352.824 274.677 353.121 274.87 353.419 275.068V284.469C353.047 284.165 352.675 283.86 352.304 283.563V274.348L352.527 274.489Z" fill="#007373"/>
<path d="M359.373 279.256L360.488 280.106V290.748L359.373 289.7V279.256Z" fill="#007373"/>
<path d="M366.439 285.027C366.811 285.354 367.183 285.685 367.555 286.023V297.942C367.183 297.537 366.811 297.14 366.439 296.742V285.027Z" fill="#007373"/>
<path d="M373.509 291.734C373.885 292.113 374.257 292.495 374.624 292.878V306.142C374.252 305.682 373.88 305.225 373.509 304.772V291.734Z" fill="#007373"/>
<path d="M381.69 300.761V315.484C381.319 314.964 380.947 314.444 380.575 313.932V299.457C380.952 299.885 381.324 300.32 381.69 300.761Z" fill="#007373"/>
<path d="M387.645 308.271C388.019 308.767 388.39 309.262 388.76 309.757V326.1C388.39 325.511 388.019 324.921 387.645 324.332V308.271Z" fill="#007373"/>
<path d="M395.272 319.19L395.826 320.048V332.885L394.711 332.194V318.336L395.272 319.19Z" fill="#007373"/>
<path d="M402.895 331.771V337.543C402.618 337.345 402.339 337.151 402.059 336.963L401.78 336.774V329.828C402.157 330.474 402.529 331.122 402.895 331.771Z" fill="#007373"/>
<path d="M526.795 471.466H444.935C439.04 421.969 426.294 377.123 407.947 341.202C406.847 339.04 405.724 336.913 404.579 334.821C385.251 299.427 361.462 275.671 335.554 265.906V308.709C334.174 308.412 332.789 308.13 331.398 307.862V261.062H334.372C434.494 261.594 526.795 348.17 526.795 471.466Z" fill="white"/>
<path d="M713 495.007V512.248H218.007V481.301H488.554L510.135 495.007H713Z" fill="#FFDFDA"/>
<path d="M713 495.007V499.159H510.24V512.248H488.235V484.833H144.96V481.301H488.235L493.855 484.833L510.135 495.066V495.007H713Z" fill="#F88B90"/>
<path d="M630.723 494.991L623.289 494.133L526.799 471.476C526.799 446.516 523.015 423.06 516.153 401.521C539.942 373.831 578.726 355.493 622.743 354.513V354.487L630.177 354.457L630.723 494.991Z" fill="white"/>
<path d="M626.999 495.008L623.29 495.019L623.286 494.135L626.999 495.008Z" fill="white"/>
<path d="M210.209 489.312H154.175V491.3H210.209V489.312Z" fill="#008187"/>
<path d="M360.993 489.312H297.194V491.3H360.993V489.312Z" fill="#008187"/>
<path d="M288.78 489.312H235.455V491.3H288.78V489.312Z" fill="#008187"/>
<path d="M713 490.911V495.064H509.842V495.008L488.276 481.302H133.932V471.467H526.795L630.445 490.911H713Z" fill="white"/>
<path d="M712.999 486.156V487.642H708.955V491.119H707.468V487.642H703.439V491.119H701.952V487.642H697.923V491.119H696.436V487.642H692.407V491.119H690.92V487.642H686.891V491.119H685.404V487.642H681.375V491.119H679.888V487.642H675.859V491.119H674.372V487.642H670.343V491.119H668.856V487.642H664.827V491.119H663.34V487.642H659.311V491.119H657.824V487.642H653.795V491.119H652.308V487.642H648.278V491.119H646.792V487.642H642.762V491.119H641.276V487.642H637.246V491.119H635.76V487.642H630.615V486.156H712.999Z" fill="white"/>
<path d="M713 531.236H133.932V534.572H713V531.236Z" fill="#007373"/>
<path d="M713 512.248H133.932V530.987H713V512.248Z" fill="#F88B90"/>
<path d="M713 506.767V505.281H133.932V514.478H713V510.021H708.97V506.767H713ZM139.318 510.021H135.418V506.767H139.318V510.021ZM144.834 510.021H140.804V506.767H144.834V510.021ZM150.35 510.021H146.32V506.767H150.35V510.021ZM155.866 510.021H151.837V506.767H155.866V510.021ZM161.382 510.021H157.353V506.767H161.393L161.382 510.021ZM166.898 510.021H162.88V506.767H166.909L166.898 510.021ZM172.414 510.021H168.385V506.767H172.414V510.021ZM177.93 510.021H173.901V506.767H177.93V510.021ZM183.446 510.021H179.417V506.767H183.446V510.021ZM188.962 510.021H184.933V506.767H188.962V510.021ZM194.478 510.021H190.449V506.767H194.475L194.478 510.021ZM199.994 510.021H195.961V506.767H199.991L199.994 510.021ZM205.514 510.021H201.485V506.767H205.514V510.021ZM211.03 510.021H207.001V506.767H211.03V510.021ZM216.546 510.021H212.517V506.767H216.546V510.021ZM222.062 510.021H218.033V506.767H222.062V510.021ZM227.575 510.021H223.549V506.767H227.575V510.021ZM233.094 510.021H229.061V506.767H233.094V510.021ZM238.611 510.021H234.581V506.767H238.611V510.021ZM244.123 510.021H240.097V506.767H244.123V510.021ZM249.639 510.021H245.61V506.767H249.639V510.021ZM255.159 510.021H251.126V506.767H255.159V510.021ZM260.671 510.021H256.646V506.767H260.671V510.021ZM266.187 510.021H262.158V506.767H266.187V510.021ZM271.703 510.021H267.674V506.767H271.703V510.021ZM277.219 510.021H273.19V506.767H277.219V510.021ZM282.735 510.021H278.706V506.767H282.735V510.021ZM288.251 510.021H284.222V506.767H288.251V510.021ZM293.768 510.021H289.738V506.767H293.768V510.021ZM299.284 510.021H295.254V506.767H299.295L299.284 510.021ZM304.8 510.021H300.782V506.767H304.811L304.8 510.021ZM310.316 510.021H306.286V506.767H310.316V510.021ZM315.832 510.021H311.803V506.767H315.832V510.021ZM321.348 510.021H317.319V506.767H321.348V510.021ZM326.864 510.021H322.835V506.767H326.864V510.021ZM332.38 510.021H328.351V506.767H332.376L332.38 510.021ZM337.896 510.021H333.863V506.767H337.892L337.896 510.021ZM343.412 510.021H339.383V506.767H343.412V510.021ZM348.928 510.021H344.899V506.767H348.928V510.021ZM354.448 510.021H350.415V506.767H354.448V510.021ZM359.964 510.021H355.935V506.767H359.964V510.021ZM365.48 510.021H361.451V506.767H365.48V510.021ZM370.996 510.021H366.967V506.767H370.996V510.021ZM376.512 510.021H372.483V506.767H376.512V510.021ZM382.028 510.021H377.999V506.767H382.028V510.021ZM387.544 510.021H383.515V506.767H387.544V510.021ZM393.06 510.021H389.031V506.767H393.06V510.021ZM398.576 510.021H394.547V506.767H398.576V510.021ZM404.093 510.021H400.063V506.767H404.093V510.021ZM409.609 510.021H405.579V506.767H409.609V510.021ZM415.125 510.021H411.095V506.767H415.125V510.021ZM420.641 510.021H416.612V506.767H420.641V510.021ZM426.157 510.021H422.128V506.767H426.157V510.021ZM431.673 510.021H427.644V506.767H431.673V510.021ZM437.189 510.021H433.16V506.767H437.196L437.189 510.021ZM442.705 510.021H438.683V506.767H442.712L442.705 510.021ZM448.221 510.021H444.192V506.767H448.221V510.021ZM453.737 510.021H449.708V506.767H453.737V510.021ZM459.253 510.021H455.224V506.767H459.253V510.021ZM464.769 510.021H460.74V506.767H464.769V510.021ZM470.285 510.021H466.256V506.767H470.278L470.285 510.021ZM475.801 510.021H471.765V506.767H475.794L475.801 510.021ZM481.317 510.021H477.288V506.767H481.317V510.021ZM486.834 510.021H482.804V506.767H486.834V510.021ZM492.35 510.021H488.32V506.767H492.35V510.021ZM497.866 510.021H493.836V506.767H497.866V510.021ZM503.382 510.021H499.353V506.767H503.382V510.021ZM508.902 510.021H504.872V506.767H508.902V510.021ZM514.418 510.021H510.388V506.767H514.418V510.021ZM519.934 510.021H515.904V506.767H519.934V510.021ZM525.45 510.021H521.42V506.767H525.45V510.021ZM530.966 510.021H526.937V506.767H530.966V510.021ZM536.482 510.021H532.453V506.767H536.482V510.021ZM541.998 510.021H537.969V506.767H542.017L541.998 510.021ZM547.514 510.021H543.503V506.767H547.533L547.514 510.021ZM553.03 510.021H549.001V506.767H553.03V510.021ZM558.546 510.021H554.517V506.767H558.546V510.021ZM564.062 510.021H560.033V506.767H564.062V510.021ZM569.578 510.021H565.549V506.767H569.578V510.021ZM575.094 510.021H571.065V506.767H575.098L575.094 510.021ZM580.61 510.021H576.585V506.767H580.614L580.61 510.021ZM586.126 510.021H582.097V506.767H586.126V510.021ZM591.643 510.021H587.613V506.767H591.643V510.021ZM597.159 510.021H593.129V506.767H597.159V510.021ZM602.675 510.021H598.645V506.767H602.675V510.021ZM608.191 510.021H604.161V506.767H608.18L608.191 510.021ZM613.707 510.021H609.666V506.767H613.696L613.707 510.021ZM619.223 510.021H615.194V506.767H619.223V510.021ZM624.739 510.021H620.71V506.767H624.739V510.021ZM630.255 510.021H626.226V506.767H630.255V510.021ZM635.771 510.021H631.742V506.767H635.771V510.021ZM641.287 510.021H637.258V506.767H641.287V510.021ZM646.803 510.021H642.774V506.767H646.803V510.021ZM652.319 510.021H648.29V506.767H652.319V510.021ZM657.839 510.021H653.806V506.767H657.839V510.021ZM663.355 510.021H659.326V506.767H663.355V510.021ZM668.871 510.021H664.842V506.767H668.871V510.021ZM674.387 510.021H670.358V506.767H674.387V510.021ZM679.903 510.021H675.874V506.767H679.918L679.903 510.021ZM685.419 510.021H681.405V506.767H685.434L685.419 510.021ZM690.935 510.021H686.906V506.767H690.935V510.021ZM696.452 510.021H692.422V506.767H696.452V510.021ZM701.968 510.021H697.938V506.767H701.968V510.021ZM707.484 510.021H703.454V506.767H707.484V510.021Z" fill="white"/>
<path d="M630.679 488.818V490.839L528.854 471.487L363.105 471.465L362.402 469.5H529.044L529.133 469.515L630.679 488.818Z" fill="#F7C5C1"/>
<path d="M320.282 593.328H294.467V594.814H320.282V593.328Z" fill="white"/>
<path d="M326.046 593.328H324.385V594.814H326.046V593.328Z" fill="white"/>
<path d="M359.969 588.451H306.774V589.937H359.969V588.451Z" fill="white"/>
<path d="M259.928 582.497H231.779L259.869 522.084L259.928 582.497Z" fill="white"/>
<path d="M287.59 577.739H266.437V522.084L287.59 577.739Z" fill="white"/>
<path d="M232.154 587.4H288.516V594.714H248.056C244.364 594.714 240.765 593.559 237.763 591.412L232.154 587.4Z" fill="#F78F00"/>
<path d="M277.372 567.168H263.79V568.654H277.372V567.168Z" fill="#F78F00"/>
<path d="M288.508 586.657V588.143H232.154V586.657H262.578V522.084H264.065V581.293H288.099V582.779H264.065V586.657H288.508Z" fill="white"/>
</g>
<defs>
<linearGradient id="paint0_linear_406_7754" x1="366.528" y1="424.788" x2="369.709" y2="162.24" gradientUnits="userSpaceOnUse">
<stop offset="0.07" stop-color="#F7C5C1"/>
<stop offset="0.27" stop-color="#F6CFCD"/>
<stop offset="0.71" stop-color="#F5E1E1"/>
<stop offset="1" stop-color="#F4E7E8"/>
</linearGradient>
<linearGradient id="paint1_linear_406_7754" x1="367.316" y1="441.949" x2="367.316" y2="634.145" gradientUnits="userSpaceOnUse">
<stop stop-color="#008187"/>
<stop offset="0.4" stop-color="#00A099"/>
<stop offset="0.76" stop-color="#00B4A6"/>
<stop offset="1" stop-color="#00BBAA"/>
</linearGradient>
<clipPath id="clip0_406_7754">
<rect width="620" height="520" fill="white" transform="translate(93 100)"/>
</clipPath>
</defs>
</svg>
