<?xml version="1.0" standalone="no"?>
<!DOCTYPE svg PUBLIC "-//W3C//DTD SVG 20010904//EN"
 "http://www.w3.org/TR/2001/REC-SVG-20010904/DTD/svg10.dtd">
<svg version="1.0" xmlns="http://www.w3.org/2000/svg"
 width="100" height="100" viewBox="0 0 24.000000 24.000000"
 preserveAspectRatio="xMidYMid meet">

<g transform="translate(0.000000,24.000000) scale(0.100000,-0.100000)"
fill="#06BCC1" stroke="none">
<path d="M100 210 c0 -5 -9 -19 -20 -30 -13 -13 -20 -33 -20 -59 0 -22 -4 -43
-10 -46 -27 -16 -3 -25 70 -25 73 0 97 9 70 25 -5 3 -10 24 -10 46 0 26 -7 46
-20 59 -11 11 -20 25 -20 30 0 6 -9 10 -20 10 -11 0 -20 -4 -20 -10z"/>
<path d="M108 28 c9 -9 15 -9 24 0 9 9 7 12 -12 12 -19 0 -21 -3 -12 -12z"/>
</g>
</svg>
