<svg width="245" height="42" viewBox="0 0 245 42" fill="none" xmlns="http://www.w3.org/2000/svg">
<path d="M8.24124 34.8954V14.2511H0V8.67154H23.2521V14.2511H15.0108V34.8954H8.24124Z" fill="#12263A"/>
<path d="M25.3696 34.8954V8.67154H31.9184V18.8635C33.2184 17.078 35.107 16.1853 37.5843 16.1853C39.7427 16.1853 41.337 16.8301 42.3671 18.1196C43.4218 19.4091 43.9492 21.3929 43.9492 24.0711V34.8954H37.4003V24.3315C37.4003 23.2155 37.2041 22.422 36.8117 21.9508C36.4438 21.4797 35.8919 21.2441 35.1561 21.2441C34.175 21.2441 33.3901 21.5665 32.8014 22.2112C32.2128 22.8312 31.9184 23.6743 31.9184 24.7406V34.8954H25.3696Z" fill="#12263A"/>
<path d="M57.5415 35.3046C55.334 35.3046 53.4209 34.9202 51.8021 34.1514C50.2078 33.3579 48.9814 32.242 48.123 30.8037C47.2645 29.3654 46.8353 27.6668 46.8353 25.7077C46.8353 23.8479 47.24 22.1988 48.0494 20.7605C48.8833 19.3223 50.0116 18.2064 51.4342 17.4128C52.8813 16.5945 54.5246 16.1853 56.3642 16.1853C58.1792 16.1853 59.749 16.5697 61.0735 17.3384C62.4225 18.1072 63.4527 19.2107 64.164 20.649C64.8998 22.0624 65.2677 23.7239 65.2677 25.6333V27.084H53.0898C53.3105 28.2743 53.8011 29.1299 54.5614 29.6506C55.3218 30.1714 56.3765 30.4318 57.7255 30.4318C58.6575 30.4318 59.6264 30.2954 60.632 30.0226C61.6621 29.725 62.5697 29.3034 63.3545 28.7579L64.9734 33.1099C64.0413 33.7795 62.9008 34.3126 61.5518 34.7094C60.2028 35.1062 58.866 35.3046 57.5415 35.3046ZM56.6585 20.463C55.6774 20.463 54.868 20.7605 54.2303 21.3557C53.6171 21.9508 53.2247 22.8188 53.053 23.9595H59.8962C59.8226 22.794 59.5037 21.926 58.9396 21.3557C58.4 20.7605 57.6396 20.463 56.6585 20.463Z" fill="#12263A"/>
<path d="M82.0328 34.8954V15.757H77.5182V10.7484H82.0328C82.1946 7.34554 83.2787 4.79341 85.2852 3.092C87.2917 1.35786 90.3338 0.376275 94.4115 0.147239L97.3241 0L97.7268 4.77877L95.1718 5.03709C92.8724 5.2954 91.2434 5.73439 90.3174 6.4578C89.3915 7.18121 88.4012 8.65346 88.4012 9.81586V10.7484H96.6931V15.757H88.4012V34.8954H82.0328Z" fill="#12263A"/>
<path d="M105.124 35.3046C103.113 35.3046 101.359 34.9202 99.8631 34.1514C98.3669 33.3827 97.2018 32.2792 96.3679 30.8409C95.534 29.4026 95.117 27.704 95.117 25.7449C95.117 23.7611 95.534 22.0624 96.3679 20.649C97.2018 19.2107 98.3669 18.1072 99.8631 17.3384C101.359 16.5697 103.113 16.1853 105.124 16.1853C107.135 16.1853 108.889 16.5697 110.385 17.3384C111.882 18.1072 113.034 19.2107 113.844 20.649C114.678 22.0624 115.095 23.7611 115.095 25.7449C115.095 27.704 114.678 29.4026 113.844 30.8409C113.034 32.2792 111.882 33.3827 110.385 34.1514C108.889 34.9202 107.135 35.3046 105.124 35.3046ZM105.124 30.4318C106.105 30.4318 106.915 30.0598 107.552 29.3158C108.19 28.5719 108.509 27.3816 108.509 25.7449C108.509 24.0835 108.19 22.8932 107.552 22.174C106.915 21.4301 106.105 21.0581 105.124 21.0581C104.119 21.0581 103.297 21.4301 102.659 22.174C102.022 22.8932 101.703 24.0835 101.703 25.7449C101.703 27.3816 102.022 28.5719 102.659 29.3158C103.297 30.0598 104.119 30.4318 105.124 30.4318Z" fill="#12263A"/>
<path d="M118.095 34.8954V16.5945H124.46V19.6818C125.294 17.574 127.097 16.4209 129.869 16.2225L131.671 16.0737L132.039 21.6533L128.471 21.988C127.171 22.112 126.226 22.484 125.638 23.104C125.049 23.6991 124.755 24.5918 124.755 25.7821V34.8954H118.095Z" fill="#12263A"/>
<path d="M174.283 42C172.468 42 170.763 41.8264 169.169 41.4792C167.599 41.1321 166.25 40.5617 165.122 39.7682L166.815 35.3046C167.747 35.8749 168.85 36.3213 170.126 36.6436C171.426 36.966 172.603 37.1272 173.658 37.1272C175.154 37.1272 176.27 36.8048 177.006 36.1601C177.766 35.5401 178.146 34.5606 178.146 33.2215V31.5105C177.631 32.4032 176.859 33.1099 175.828 33.6307C174.798 34.1514 173.695 34.4118 172.517 34.4118C170.898 34.4118 169.488 34.0399 168.286 33.2959C167.084 32.5272 166.14 31.4609 165.453 30.097C164.791 28.7331 164.46 27.1336 164.46 25.2986C164.46 23.4635 164.791 21.8641 165.453 20.5002C166.14 19.1363 167.084 18.0824 168.286 17.3384C169.488 16.5697 170.898 16.1853 172.517 16.1853C173.744 16.1853 174.86 16.4581 175.865 17.0037C176.895 17.5244 177.643 18.2188 178.109 19.0867V16.5945H184.511V32.4404C184.511 35.6393 183.628 38.0323 181.862 39.6194C180.096 41.2065 177.57 42 174.283 42ZM174.541 29.539C175.62 29.539 176.478 29.1671 177.116 28.4231C177.754 27.6792 178.073 26.6377 178.073 25.2986C178.073 23.9595 177.754 22.918 177.116 22.174C176.478 21.4301 175.62 21.0581 174.541 21.0581C173.486 21.0581 172.64 21.4301 172.002 22.174C171.364 22.918 171.046 23.9595 171.046 25.2986C171.046 26.6377 171.364 27.6792 172.002 28.4231C172.64 29.1671 173.486 29.539 174.541 29.539Z" fill="#12263A"/>
<path d="M188.337 34.8954V16.5945H194.701V19.0867C195.339 18.1444 196.161 17.4252 197.166 16.9293C198.172 16.4333 199.3 16.1853 200.551 16.1853C202.71 16.1853 204.304 16.8301 205.334 18.1196C206.389 19.4091 206.916 21.3929 206.916 24.0711V34.8954H200.367V24.3315C200.367 23.2155 200.171 22.422 199.779 21.9508C199.411 21.4797 198.859 21.2441 198.123 21.2441C197.142 21.2441 196.357 21.5665 195.768 22.2112C195.18 22.8312 194.885 23.6743 194.885 24.7406V34.8954H188.337Z" fill="#12263A"/>
<path d="M220.509 35.3046C218.301 35.3046 216.388 34.9202 214.769 34.1514C213.175 33.3579 211.948 32.242 211.09 30.8037C210.231 29.3654 209.802 27.6668 209.802 25.7077C209.802 23.8479 210.207 22.1988 211.016 20.7605C211.85 19.3223 212.979 18.2064 214.401 17.4128C215.848 16.5945 217.492 16.1853 219.331 16.1853C221.146 16.1853 222.716 16.5697 224.04 17.3384C225.389 18.1072 226.42 19.2107 227.131 20.649C227.867 22.0624 228.235 23.7239 228.235 25.6333V27.084H216.057C216.278 28.2743 216.768 29.1299 217.528 29.6506C218.289 30.1714 219.343 30.4318 220.692 30.4318C221.625 30.4318 222.593 30.2954 223.599 30.0226C224.629 29.725 225.537 29.3034 226.322 28.7579L227.94 33.1099C227.008 33.7795 225.868 34.3126 224.519 34.7094C223.17 35.1062 221.833 35.3046 220.509 35.3046ZM219.626 20.463C218.644 20.463 217.835 20.7605 217.197 21.3557C216.584 21.9508 216.192 22.8188 216.02 23.9595H222.863C222.79 22.794 222.471 21.926 221.907 21.3557C221.367 20.7605 220.607 20.463 219.626 20.463Z" fill="#12263A"/>
<path d="M231.056 34.8954V16.5945H237.421V19.6818C238.255 17.574 240.058 16.4209 242.829 16.2225L244.632 16.0737L245 21.6533L241.431 21.988C240.131 22.112 239.187 22.484 238.598 23.104C238.01 23.6991 237.715 24.5918 237.715 25.7821V34.8954H231.056Z" fill="#12263A"/>
<path fill-rule="evenodd" clip-rule="evenodd" d="M140.339 35.3046C138.941 35.3046 137.702 35.0442 136.623 34.5234C135.569 34.0027 134.735 33.2959 134.121 32.4032C133.533 31.4857 133.238 30.4441 133.238 29.2786C133.238 27.9644 133.582 26.9228 134.269 26.1541C134.955 25.3606 136.059 24.8026 137.58 24.4802C139.101 24.1331 141.124 23.9595 143.65 23.9595H145.048V23.4387C145.048 22.546 144.815 21.9136 144.349 21.5417C143.908 21.1697 143.135 20.9837 142.032 20.9837C141.1 20.9837 140.069 21.1325 138.941 21.4301C137.813 21.7277 136.709 22.1864 135.63 22.8064L133.974 18.4543C134.588 18.008 135.372 17.6112 136.329 17.264C137.286 16.9169 138.291 16.6565 139.346 16.4829C140.401 16.2845 141.394 16.1853 142.326 16.1853C145.343 16.1853 147.575 16.8425 149.022 18.1568C150.494 19.4711 151.229 21.5417 151.229 24.3686V34.8954H145.122V32.2916C144.803 33.2339 144.227 33.9779 143.393 34.5234C142.559 35.0442 141.541 35.3046 140.339 35.3046ZM144.092 30.097C143.479 30.6921 142.718 30.9897 141.811 30.9897C141.051 30.9897 140.462 30.8037 140.045 30.4318C139.652 30.0598 139.456 29.5886 139.456 29.0183C139.456 28.3487 139.787 27.8652 140.45 27.5676C141.136 27.2452 142.203 27.084 143.65 27.084H145.048V27.7536C145.048 28.7207 144.73 29.5018 144.092 30.097Z" fill="#06BCC1"/>
<path fill-rule="evenodd" clip-rule="evenodd" d="M154.775 7.44404V13.4327H161.655V7.44404H154.775Z" fill="#06BCC1"/>
<path d="M154.959 34.8954V16.5945H161.507V34.8954H154.959Z" fill="#06BCC1"/>
</svg>
