<svg width="864" height="921" viewBox="0 0 864 921" fill="none" xmlns="http://www.w3.org/2000/svg">
<g opacity="0.1">
<rect width="860.344" height="920" transform="translate(0.914062 0.655029)" fill="#F4EDEA"/>
<rect x="58.4141" y="58.155" width="57.5" height="57.5" fill="#F4EDEA"/>
<rect x="60.5703" y="60.3113" width="53.1875" height="53.1875" rx="2.875" fill="#06BCC1"/>
<rect x="115.914" y="58.155" width="57.5" height="57.5" fill="#F4EDEA"/>
<rect x="118.07" y="60.3113" width="53.1875" height="53.1875" rx="2.875" fill="#06BCC1"/>
<rect x="173.414" y="58.155" width="57.5" height="57.5" fill="#F4EDEA"/>
<rect x="175.57" y="60.3113" width="53.1875" height="53.1875" rx="2.875" fill="#06BCC1"/>
<rect x="230.914" y="58.155" width="57.5" height="57.5" fill="#F4EDEA"/>
<rect x="233.07" y="60.3113" width="53.1875" height="53.1875" rx="2.875" fill="#06BCC1"/>
<rect x="288.414" y="58.155" width="57.5" height="57.5" fill="#F4EDEA"/>
<rect x="290.57" y="60.3113" width="53.1875" height="53.1875" rx="2.875" fill="#06BCC1"/>
<rect x="345.914" y="58.155" width="57.5" height="57.5" fill="#F4EDEA"/>
<rect x="348.07" y="60.3113" width="53.1875" height="53.1875" rx="2.875" fill="#06BCC1"/>
<rect x="403.414" y="58.155" width="57.5" height="57.5" fill="#F4EDEA"/>
<rect x="405.57" y="60.3113" width="53.1875" height="53.1875" rx="2.875" fill="#06BCC1"/>
<rect x="460.914" y="58.155" width="57.5" height="57.5" fill="#F4EDEA"/>
<rect x="463.07" y="60.3113" width="53.1875" height="53.1875" rx="2.875" fill="#06BCC1"/>
<rect x="518.414" y="58.155" width="57.5" height="57.5" fill="#F4EDEA"/>
<rect x="520.57" y="60.3113" width="53.1875" height="53.1875" rx="2.875" fill="#06BCC1"/>
<rect x="575.914" y="58.155" width="57.5" height="57.5" fill="#F4EDEA"/>
<rect x="578.07" y="60.3113" width="53.1875" height="53.1875" rx="2.875" fill="#06BCC1"/>
<rect x="633.414" y="58.155" width="57.5" height="57.5" fill="#F4EDEA"/>
<rect x="635.57" y="60.3113" width="53.1875" height="53.1875" rx="2.875" fill="#06BCC1"/>
<rect x="690.914" y="58.155" width="57.5" height="57.5" fill="#F4EDEA"/>
<rect opacity="0.3" x="693.07" y="60.3113" width="53.1875" height="53.1875" rx="2.875" fill="#F4EDEA" stroke="#C9C7C6" stroke-width="1.4375"/>
<path d="M715.062 81.4938H720.375C721.675 81.4938 722.687 81.8215 723.411 82.477C724.136 83.121 724.498 84.0295 724.498 85.2025C724.498 86.3755 724.136 87.2898 723.411 87.9453C722.687 88.6008 721.675 88.9285 720.375 88.9285H717.288V93.655H715.062V81.4938ZM720.099 87.2208C721.629 87.2208 722.394 86.5538 722.394 85.2198C722.394 84.5413 722.204 84.041 721.824 83.719C721.445 83.3855 720.87 83.2188 720.099 83.2188H717.288V87.2208H720.099Z" fill="#06BCC1"/>
<path d="M698.756 69.0535V70.3113H694.127V69.0535H695.656V64.958L694.449 65.6624L693.855 64.5354L696.109 63.2172H697.226V69.0535H698.756Z" fill="#06BCC1"/>
<rect x="748.414" y="58.155" width="57.5" height="57.5" fill="#F4EDEA"/>
<rect x="750.57" y="60.3113" width="53.1875" height="53.1875" rx="2.875" fill="#06BCC1"/>
<rect x="805.914" y="58.155" width="57.5" height="57.5" fill="#F4EDEA"/>
<rect x="808.07" y="60.3113" width="53.1875" height="53.1875" rx="2.875" fill="#06BCC1"/>
<rect x="58.4141" y="115.655" width="57.5" height="57.5" fill="#F4EDEA"/>
<rect x="60.5703" y="117.811" width="53.1875" height="53.1875" rx="2.875" fill="#06BCC1"/>
<rect x="115.914" y="115.655" width="57.5" height="57.5" fill="#F4EDEA"/>
<rect x="118.07" y="117.811" width="53.1875" height="53.1875" rx="2.875" fill="#06BCC1"/>
<rect x="173.414" y="115.655" width="57.5" height="57.5" fill="#F4EDEA"/>
<rect x="175.57" y="117.811" width="53.1875" height="53.1875" rx="2.875" fill="#06BCC1"/>
<rect x="230.914" y="115.655" width="57.5" height="57.5" fill="#F4EDEA"/>
<rect x="233.07" y="117.811" width="53.1875" height="53.1875" rx="2.875" fill="#06BCC1"/>
<rect x="288.414" y="115.655" width="57.5" height="57.5" fill="#F4EDEA"/>
<rect opacity="0.3" x="290.57" y="117.811" width="53.1875" height="53.1875" rx="2.875" fill="#F4EDEA" stroke="#C9C7C6" stroke-width="1.4375"/>
<path d="M317.931 151.31C316.735 151.31 315.688 151.057 314.791 150.551C313.906 150.034 313.222 149.304 312.739 148.361C312.267 147.418 312.031 146.319 312.031 145.066C312.031 143.812 312.267 142.72 312.739 141.788C313.222 140.845 313.906 140.121 314.791 139.615C315.688 139.097 316.735 138.839 317.931 138.839C318.747 138.839 319.518 138.965 320.242 139.218C320.967 139.471 321.576 139.828 322.071 140.288L321.329 141.909C320.777 141.472 320.231 141.156 319.69 140.96C319.15 140.753 318.575 140.65 317.965 140.65C316.792 140.65 315.884 141.029 315.24 141.788C314.607 142.547 314.291 143.64 314.291 145.066C314.291 146.503 314.607 147.602 315.24 148.361C315.884 149.12 316.792 149.499 317.965 149.499C318.575 149.499 319.15 149.401 319.69 149.206C320.231 148.999 320.777 148.677 321.329 148.24L322.071 149.861C321.576 150.321 320.967 150.678 320.242 150.931C319.518 151.184 318.747 151.31 317.931 151.31Z" fill="#06BCC1"/>
<path d="M296.115 126.553V127.811H291.234V126.654L293.599 124.149C294.096 123.625 294.344 123.142 294.344 122.7C294.344 122.136 294.022 121.854 293.378 121.854C293.083 121.854 292.774 121.915 292.452 122.035C292.13 122.149 291.815 122.317 291.506 122.539L291.013 121.422C291.295 121.18 291.657 120.989 292.1 120.848C292.543 120.7 292.995 120.627 293.458 120.627C294.196 120.627 294.783 120.804 295.219 121.16C295.662 121.516 295.883 121.992 295.883 122.589C295.883 122.998 295.796 123.377 295.622 123.726C295.454 124.075 295.169 124.464 294.766 124.893L293.187 126.553H296.115Z" fill="#06BCC1"/>
<rect x="345.914" y="115.655" width="57.5" height="57.5" fill="#F4EDEA"/>
<rect x="348.07" y="117.811" width="53.1875" height="53.1875" rx="2.875" fill="#06BCC1"/>
<rect x="403.414" y="115.655" width="57.5" height="57.5" fill="#F4EDEA"/>
<rect x="405.57" y="117.811" width="53.1875" height="53.1875" rx="2.875" fill="#06BCC1"/>
<rect x="460.914" y="115.655" width="57.5" height="57.5" fill="#F4EDEA"/>
<rect x="463.07" y="117.811" width="53.1875" height="53.1875" rx="2.875" fill="#06BCC1"/>
<rect x="518.414" y="115.655" width="57.5" height="57.5" fill="#F4EDEA"/>
<rect x="520.57" y="117.811" width="53.1875" height="53.1875" rx="2.875" fill="#06BCC1"/>
<rect x="575.914" y="115.655" width="57.5" height="57.5" fill="#F4EDEA"/>
<rect opacity="0.3" x="578.07" y="117.811" width="53.1875" height="53.1875" rx="2.875" fill="#F4EDEA" stroke="#C9C7C6" stroke-width="1.4375"/>
<path d="M610.872 138.994V151.155H608.906V143.117L605.697 149.189H604.214L600.988 143.203L601.005 151.155H599.039V138.994H600.798L604.973 146.946L609.13 138.994H610.872Z" fill="#06BCC1"/>
<path d="M580.848 120.627C581.767 120.627 582.478 120.932 582.981 121.542C583.484 122.153 583.736 123.025 583.736 124.159C583.736 124.937 583.615 125.608 583.373 126.171C583.138 126.728 582.793 127.157 582.337 127.459C581.887 127.754 581.354 127.902 580.737 127.902C580.301 127.902 579.878 127.835 579.469 127.701C579.06 127.56 578.711 127.362 578.423 127.107L578.926 125.99C579.543 126.446 580.126 126.674 580.677 126.674C581.139 126.674 581.495 126.49 581.743 126.121C581.998 125.752 582.142 125.208 582.176 124.491C582.022 124.746 581.804 124.95 581.522 125.104C581.24 125.252 580.925 125.326 580.576 125.326C580.16 125.326 579.788 125.229 579.459 125.034C579.137 124.839 578.882 124.568 578.694 124.219C578.513 123.87 578.423 123.474 578.423 123.032C578.423 122.569 578.526 122.156 578.734 121.794C578.942 121.425 579.231 121.14 579.6 120.939C579.969 120.731 580.385 120.627 580.848 120.627ZM580.938 124.108C581.253 124.108 581.508 124.004 581.703 123.796C581.897 123.588 581.995 123.317 581.995 122.981C581.995 122.646 581.897 122.374 581.703 122.166C581.508 121.952 581.253 121.844 580.938 121.844C580.623 121.844 580.368 121.948 580.173 122.156C579.986 122.364 579.892 122.639 579.892 122.981C579.892 123.317 579.986 123.588 580.173 123.796C580.368 124.004 580.623 124.108 580.938 124.108Z" fill="#06BCC1"/>
<rect x="633.414" y="115.655" width="57.5" height="57.5" fill="#F4EDEA"/>
<rect opacity="0.3" x="635.57" y="117.811" width="53.1875" height="53.1875" rx="2.875" fill="#F4EDEA" stroke="#C9C7C6" stroke-width="1.4375"/>
<path d="M665.428 148.309H659.511L658.286 151.155H656.044L661.547 138.994H663.358L668.861 151.155H666.653L665.428 148.309ZM664.686 146.584L662.461 141.409L660.236 146.584H664.686Z" fill="#06BCC1"/>
<rect x="690.914" y="115.655" width="57.5" height="57.5" fill="#F4EDEA"/>
<rect opacity="0.3" x="693.07" y="117.811" width="53.1875" height="53.1875" rx="2.875" fill="#F4EDEA" stroke="#C9C7C6" stroke-width="1.4375"/>
<path d="M719.951 151.31C718.283 151.31 717.018 150.879 716.156 150.017C715.293 149.154 714.862 147.895 714.862 146.239V138.994H717.035V146.36C717.035 147.406 717.283 148.2 717.777 148.74C718.272 149.269 718.996 149.534 719.951 149.534C720.894 149.534 721.612 149.263 722.107 148.723C722.601 148.182 722.849 147.395 722.849 146.36V138.994H725.022V146.239C725.022 147.883 724.591 149.143 723.728 150.017C722.866 150.879 721.607 151.31 719.951 151.31Z" fill="#06BCC1"/>
<rect x="748.414" y="115.655" width="57.5" height="57.5" fill="#F4EDEA"/>
<rect opacity="0.3" x="750.57" y="117.811" width="53.1875" height="53.1875" rx="2.875" fill="#F4EDEA" stroke="#C9C7C6" stroke-width="1.4375"/>
<path d="M783.777 138.994L778.361 151.155H776.549L771.133 138.994H773.427L777.464 148.395L781.517 138.994H783.777Z" fill="#06BCC1"/>
<rect x="805.914" y="115.655" width="57.5" height="57.5" fill="#F4EDEA"/>
<rect opacity="0.3" x="808.07" y="117.811" width="53.1875" height="53.1875" rx="2.875" fill="#F4EDEA" stroke="#C9C7C6" stroke-width="1.4375"/>
<path d="M831.177 138.994H839.319V140.753H833.351V144.1H838.974V145.842H833.351V149.396H839.319V151.155H831.177V138.994Z" fill="#06BCC1"/>
<rect x="58.4141" y="173.155" width="57.5" height="57.5" fill="#F4EDEA"/>
<rect x="60.5703" y="175.311" width="53.1875" height="53.1875" rx="2.875" fill="#06BCC1"/>
<rect x="115.914" y="173.155" width="57.5" height="57.5" fill="#F4EDEA"/>
<rect opacity="0.3" x="118.07" y="175.311" width="53.1875" height="53.1875" rx="2.875" fill="#F4EDEA" stroke="#C9C7C6" stroke-width="1.4375"/>
<path d="M150.074 202.083V207.913C149.522 208.189 148.849 208.408 148.056 208.569C147.274 208.73 146.474 208.81 145.658 208.81C144.404 208.81 143.318 208.563 142.398 208.069C141.478 207.563 140.77 206.844 140.276 205.912C139.793 204.969 139.551 203.854 139.551 202.566C139.551 201.289 139.793 200.185 140.276 199.254C140.77 198.311 141.466 197.592 142.363 197.098C143.272 196.592 144.335 196.339 145.554 196.339C146.405 196.339 147.205 196.465 147.952 196.718C148.7 196.96 149.321 197.31 149.815 197.77L149.073 199.375C148.51 198.938 147.952 198.627 147.4 198.443C146.86 198.248 146.262 198.15 145.606 198.15C144.353 198.15 143.404 198.524 142.76 199.271C142.127 200.007 141.811 201.105 141.811 202.566C141.811 205.556 143.122 207.051 145.744 207.051C146.526 207.051 147.308 206.942 148.09 206.723V203.67H145.468V202.083H150.074Z" fill="#06BCC1"/>
<path d="M123.756 184.053V185.311H119.127V184.053H120.656V179.958L119.449 180.662L118.855 179.535L121.109 178.217H122.226V184.053H123.756ZM127.123 185.402C126.264 185.402 125.607 185.09 125.15 184.466C124.701 183.842 124.476 182.94 124.476 181.759C124.476 180.592 124.704 179.7 125.16 179.083C125.617 178.459 126.271 178.147 127.123 178.147C127.975 178.147 128.629 178.459 129.085 179.083C129.541 179.7 129.769 180.592 129.769 181.759C129.769 182.94 129.541 183.842 129.085 184.466C128.635 185.09 127.981 185.402 127.123 185.402ZM127.123 184.204C127.512 184.204 127.793 184.01 127.968 183.621C128.149 183.232 128.24 182.611 128.24 181.759C128.24 180.914 128.149 180.3 127.968 179.918C127.793 179.535 127.512 179.344 127.123 179.344C126.734 179.344 126.448 179.535 126.267 179.918C126.093 180.3 126.006 180.914 126.006 181.759C126.006 182.611 126.093 183.232 126.267 183.621C126.448 184.01 126.734 184.204 127.123 184.204Z" fill="#06BCC1"/>
<rect x="173.414" y="173.155" width="57.5" height="57.5" fill="#F4EDEA"/>
<rect opacity="0.3" x="175.57" y="175.311" width="53.1875" height="53.1875" rx="2.875" fill="#F4EDEA" stroke="#C9C7C6" stroke-width="1.4375"/>
<path d="M207.454 208.655H205.039L202.952 204.774C202.756 204.406 202.515 204.147 202.227 203.998C201.94 203.848 201.577 203.773 201.14 203.773H199.45V208.655H197.259V196.494H202.641C204.021 196.494 205.068 196.804 205.781 197.425C206.505 198.035 206.867 198.92 206.867 200.082C206.867 201.013 206.603 201.784 206.074 202.393C205.556 202.991 204.82 203.382 203.866 203.566C204.51 203.739 205.027 204.193 205.418 204.929L207.454 208.655ZM202.331 202.066C203.17 202.066 203.785 201.91 204.176 201.6C204.567 201.278 204.763 200.789 204.763 200.134C204.763 199.467 204.567 198.984 204.176 198.685C203.785 198.374 203.17 198.219 202.331 198.219H199.433V202.066H202.331Z" fill="#06BCC1"/>
<rect x="230.914" y="173.155" width="57.5" height="57.5" fill="#F4EDEA"/>
<rect opacity="0.3" x="233.07" y="175.311" width="53.1875" height="53.1875" rx="2.875" fill="#F4EDEA" stroke="#C9C7C6" stroke-width="1.4375"/>
<path d="M262.928 205.809H257.011L255.786 208.655H253.544L259.047 196.494H260.858L266.361 208.655H264.153L262.928 205.809ZM262.186 204.084L259.961 198.909L257.736 204.084H262.186Z" fill="#06BCC1"/>
<rect x="288.414" y="173.155" width="57.5" height="57.5" fill="#F4EDEA"/>
<rect opacity="0.3" x="290.57" y="175.311" width="53.1875" height="53.1875" rx="2.875" fill="#F4EDEA" stroke="#C9C7C6" stroke-width="1.4375"/>
<path d="M318.558 203.049V208.655H316.332V203.049L311.416 196.494H313.917L317.436 201.272L320.973 196.494H323.491L318.558 203.049Z" fill="#06BCC1"/>
<rect x="345.914" y="173.155" width="57.5" height="57.5" fill="#F4EDEA"/>
<rect x="348.07" y="175.311" width="53.1875" height="53.1875" rx="2.875" fill="#06BCC1"/>
<rect x="403.414" y="173.155" width="57.5" height="57.5" fill="#F4EDEA"/>
<rect x="405.57" y="175.311" width="53.1875" height="53.1875" rx="2.875" fill="#06BCC1"/>
<rect x="460.914" y="173.155" width="57.5" height="57.5" fill="#F4EDEA"/>
<rect x="463.07" y="175.311" width="53.1875" height="53.1875" rx="2.875" fill="#06BCC1"/>
<rect x="518.414" y="173.155" width="57.5" height="57.5" fill="#F4EDEA"/>
<rect x="520.57" y="175.311" width="53.1875" height="53.1875" rx="2.875" fill="#06BCC1"/>
<rect x="575.914" y="173.155" width="57.5" height="57.5" fill="#F4EDEA"/>
<rect x="578.07" y="175.311" width="53.1875" height="53.1875" rx="2.875" fill="#06BCC1"/>
<rect x="633.414" y="173.155" width="57.5" height="57.5" fill="#F4EDEA"/>
<rect x="635.57" y="175.311" width="53.1875" height="53.1875" rx="2.875" fill="#06BCC1"/>
<rect x="690.914" y="173.155" width="57.5" height="57.5" fill="#F4EDEA"/>
<rect opacity="0.3" x="693.07" y="175.311" width="53.1875" height="53.1875" rx="2.875" fill="#F4EDEA" stroke="#C9C7C6" stroke-width="1.4375"/>
<path d="M724.954 208.655H722.539L720.452 204.774C720.256 204.406 720.015 204.147 719.727 203.998C719.44 203.848 719.077 203.773 718.64 203.773H716.95V208.655H714.759V196.494H720.141C721.521 196.494 722.568 196.804 723.281 197.425C724.005 198.035 724.367 198.92 724.367 200.082C724.367 201.013 724.103 201.784 723.574 202.393C723.056 202.991 722.32 203.382 721.366 203.566C722.01 203.739 722.527 204.193 722.918 204.929L724.954 208.655ZM719.831 202.066C720.67 202.066 721.285 201.91 721.676 201.6C722.067 201.278 722.263 200.789 722.263 200.134C722.263 199.467 722.067 198.984 721.676 198.685C721.285 198.374 720.67 198.219 719.831 198.219H716.933V202.066H719.831Z" fill="#06BCC1"/>
<rect x="748.414" y="173.155" width="57.5" height="57.5" fill="#F4EDEA"/>
<rect x="750.57" y="175.311" width="53.1875" height="53.1875" rx="2.875" fill="#06BCC1"/>
<rect x="805.914" y="173.155" width="57.5" height="57.5" fill="#F4EDEA"/>
<rect x="808.07" y="175.311" width="53.1875" height="53.1875" rx="2.875" fill="#06BCC1"/>
<rect x="58.4141" y="230.655" width="57.5" height="57.5" fill="#F4EDEA"/>
<rect x="60.5703" y="232.812" width="53.1875" height="53.1875" rx="2.875" fill="#06BCC1"/>
<rect x="115.914" y="230.655" width="57.5" height="57.5" fill="#F4EDEA"/>
<rect x="118.07" y="232.812" width="53.1875" height="53.1875" rx="2.875" fill="#06BCC1"/>
<rect x="173.414" y="230.655" width="57.5" height="57.5" fill="#F4EDEA"/>
<rect x="175.57" y="232.812" width="53.1875" height="53.1875" rx="2.875" fill="#06BCC1"/>
<rect x="230.914" y="230.655" width="57.5" height="57.5" fill="#F4EDEA"/>
<rect x="233.07" y="232.812" width="53.1875" height="53.1875" rx="2.875" fill="#06BCC1"/>
<rect x="288.414" y="230.655" width="57.5" height="57.5" fill="#F4EDEA"/>
<rect opacity="0.3" x="290.57" y="232.812" width="53.1875" height="53.1875" rx="2.875" fill="#F4EDEA" stroke="#C9C7C6" stroke-width="1.4375"/>
<path d="M320.428 263.309H314.511L313.286 266.155H311.044L316.547 253.994H318.358L323.861 266.155H321.653L320.428 263.309ZM319.686 261.584L317.461 256.409L315.236 261.584H319.686Z" fill="#06BCC1"/>
<rect x="345.914" y="230.655" width="57.5" height="57.5" fill="#F4EDEA"/>
<rect x="348.07" y="232.812" width="53.1875" height="53.1875" rx="2.875" fill="#06BCC1"/>
<rect x="403.414" y="230.655" width="57.5" height="57.5" fill="#F4EDEA"/>
<rect x="405.57" y="232.812" width="53.1875" height="53.1875" rx="2.875" fill="#06BCC1"/>
<rect x="460.914" y="230.655" width="57.5" height="57.5" fill="#F4EDEA"/>
<rect x="463.07" y="232.812" width="53.1875" height="53.1875" rx="2.875" fill="#06BCC1"/>
<rect x="518.414" y="230.655" width="57.5" height="57.5" fill="#F4EDEA"/>
<rect x="520.57" y="232.812" width="53.1875" height="53.1875" rx="2.875" fill="#06BCC1"/>
<rect x="575.914" y="230.655" width="57.5" height="57.5" fill="#F4EDEA"/>
<rect opacity="0.3" x="578.07" y="232.812" width="53.1875" height="53.1875" rx="2.875" fill="#F4EDEA" stroke="#C9C7C6" stroke-width="1.4375"/>
<path d="M607.355 259.876C608.057 260.072 608.597 260.428 608.977 260.946C609.368 261.463 609.563 262.096 609.563 262.843C609.563 263.878 609.189 264.689 608.442 265.276C607.706 265.862 606.688 266.155 605.389 266.155H599.869V253.994H605.216C606.481 253.994 607.47 254.276 608.183 254.839C608.908 255.391 609.27 256.168 609.27 257.168C609.27 257.812 609.097 258.37 608.752 258.841C608.419 259.313 607.953 259.658 607.355 259.876ZM602.042 259.117H604.854C606.383 259.117 607.148 258.548 607.148 257.41C607.148 256.835 606.958 256.409 606.579 256.133C606.199 255.857 605.624 255.719 604.854 255.719H602.042V259.117ZM605.147 264.43C605.952 264.43 606.539 264.287 606.907 263.999C607.275 263.712 607.459 263.263 607.459 262.654C607.459 262.044 607.269 261.59 606.889 261.291C606.521 260.992 605.941 260.842 605.147 260.842H602.042V264.43H605.147Z" fill="#06BCC1"/>
<path d="M582.266 239.159C582.682 239.28 583.001 239.491 583.222 239.793C583.45 240.088 583.564 240.45 583.564 240.88C583.564 241.503 583.326 241.996 582.85 242.359C582.374 242.714 581.73 242.892 580.918 242.892C580.428 242.892 579.959 242.822 579.509 242.681C579.06 242.54 578.694 242.345 578.412 242.097L578.906 240.98C579.55 241.436 580.197 241.664 580.848 241.664C581.277 241.664 581.589 241.591 581.783 241.443C581.978 241.289 582.075 241.051 582.075 240.729C582.075 240.413 581.978 240.185 581.783 240.044C581.589 239.903 581.277 239.833 580.848 239.833H579.831V238.615H580.677C581.086 238.615 581.388 238.545 581.582 238.404C581.783 238.263 581.884 238.045 581.884 237.75C581.884 237.462 581.797 237.24 581.622 237.086C581.448 236.932 581.196 236.855 580.868 236.855C580.573 236.855 580.264 236.915 579.942 237.036C579.62 237.15 579.308 237.317 579.006 237.539L578.513 236.422C578.795 236.18 579.157 235.989 579.6 235.848C580.049 235.701 580.509 235.627 580.978 235.627C581.461 235.627 581.884 235.707 582.246 235.868C582.609 236.023 582.887 236.244 583.081 236.533C583.283 236.821 583.383 237.156 583.383 237.539C583.383 237.921 583.283 238.257 583.081 238.545C582.887 238.827 582.615 239.031 582.266 239.159Z" fill="#06BCC1"/>
<rect x="633.414" y="230.655" width="57.5" height="57.5" fill="#F4EDEA"/>
<rect x="635.57" y="232.812" width="53.1875" height="53.1875" rx="2.875" fill="#06BCC1"/>
<rect x="690.914" y="230.655" width="57.5" height="57.5" fill="#F4EDEA"/>
<rect opacity="0.3" x="693.07" y="232.812" width="53.1875" height="53.1875" rx="2.875" fill="#F4EDEA" stroke="#C9C7C6" stroke-width="1.4375"/>
<path d="M715.062 253.994H720.375C721.675 253.994 722.687 254.322 723.411 254.977C724.136 255.621 724.498 256.53 724.498 257.703C724.498 258.876 724.136 259.79 723.411 260.446C722.687 261.101 721.675 261.429 720.375 261.429H717.288V266.155H715.062V253.994ZM720.099 259.721C721.629 259.721 722.394 259.054 722.394 257.72C722.394 257.042 722.204 256.541 721.824 256.219C721.445 255.886 720.87 255.719 720.099 255.719H717.288V259.721H720.099Z" fill="#06BCC1"/>
<rect x="748.414" y="230.655" width="57.5" height="57.5" fill="#F4EDEA"/>
<rect x="750.57" y="232.812" width="53.1875" height="53.1875" rx="2.875" fill="#06BCC1"/>
<rect x="805.914" y="230.655" width="57.5" height="57.5" fill="#F4EDEA"/>
<rect x="808.07" y="232.812" width="53.1875" height="53.1875" rx="2.875" fill="#06BCC1"/>
<rect x="58.4141" y="288.155" width="57.5" height="57.5" fill="#F4EDEA"/>
<rect x="60.5703" y="290.312" width="53.1875" height="53.1875" rx="2.875" fill="#06BCC1"/>
<rect x="115.914" y="288.155" width="57.5" height="57.5" fill="#F4EDEA"/>
<rect x="118.07" y="290.312" width="53.1875" height="53.1875" rx="2.875" fill="#06BCC1"/>
<rect x="173.414" y="288.155" width="57.5" height="57.5" fill="#F4EDEA"/>
<rect opacity="0.3" x="175.57" y="290.312" width="53.1875" height="53.1875" rx="2.875" fill="#F4EDEA" stroke="#C9C7C6" stroke-width="1.4375"/>
<path d="M197.562 311.494H202.875C204.175 311.494 205.187 311.822 205.911 312.477C206.636 313.121 206.998 314.03 206.998 315.203C206.998 316.376 206.636 317.29 205.911 317.946C205.187 318.601 204.175 318.929 202.875 318.929H199.788V323.655H197.562V311.494ZM202.599 317.221C204.129 317.221 204.894 316.554 204.894 315.22C204.894 314.542 204.704 314.041 204.324 313.719C203.945 313.386 203.37 313.219 202.599 313.219H199.788V317.221H202.599Z" fill="#06BCC1"/>
<path d="M181.256 299.054V300.312H176.627V299.054H178.156V294.958L176.949 295.663L176.355 294.536L178.609 293.217H179.726V299.054H181.256ZM187.289 299.054V300.312H182.66V299.054H184.19V294.958L182.982 295.663L182.389 294.536L184.643 293.217H185.76V299.054H187.289Z" fill="#06BCC1"/>
<rect x="230.914" y="288.155" width="57.5" height="57.5" fill="#F4EDEA"/>
<rect opacity="0.3" x="233.07" y="290.312" width="53.1875" height="53.1875" rx="2.875" fill="#F4EDEA" stroke="#C9C7C6" stroke-width="1.4375"/>
<path d="M258.831 311.494H261.056V323.655H258.831V311.494Z" fill="#06BCC1"/>
<path d="M238.897 299.013H237.931V300.312H236.401V299.013H233.433V297.856L236.673 293.217H237.931V297.816H238.897V299.013ZM236.401 297.816V295.602L234.861 297.816H236.401Z" fill="#06BCC1"/>
<rect x="288.414" y="288.155" width="57.5" height="57.5" fill="#F4EDEA"/>
<rect opacity="0.3" x="290.57" y="290.312" width="53.1875" height="53.1875" rx="2.875" fill="#F4EDEA" stroke="#C9C7C6" stroke-width="1.4375"/>
<path d="M322.577 311.494V323.655H320.903L314.383 315.168V323.655H312.313V311.494H313.969L320.489 319.964V311.494H322.577Z" fill="#06BCC1"/>
<rect x="345.914" y="288.155" width="57.5" height="57.5" fill="#F4EDEA"/>
<rect opacity="0.3" x="348.07" y="290.312" width="53.1875" height="53.1875" rx="2.875" fill="#F4EDEA" stroke="#C9C7C6" stroke-width="1.4375"/>
<path d="M377.928 323.655L372.288 317.997V323.655H370.062V311.494H372.288V316.928L377.704 311.494H380.361L374.478 317.342L380.637 323.655H377.928Z" fill="#06BCC1"/>
<rect x="403.414" y="288.155" width="57.5" height="57.5" fill="#F4EDEA"/>
<rect x="405.57" y="290.312" width="53.1875" height="53.1875" rx="2.875" fill="#06BCC1"/>
<rect x="460.914" y="288.155" width="57.5" height="57.5" fill="#F4EDEA"/>
<rect x="463.07" y="290.312" width="53.1875" height="53.1875" rx="2.875" fill="#06BCC1"/>
<rect x="518.414" y="288.155" width="57.5" height="57.5" fill="#F4EDEA"/>
<rect opacity="0.3" x="520.57" y="290.312" width="53.1875" height="53.1875" rx="2.875" fill="#F4EDEA" stroke="#C9C7C6" stroke-width="1.4375"/>
<path d="M548.558 318.049V323.655H546.332V318.049L541.416 311.494H543.917L547.436 316.272L550.973 311.494H553.491L548.558 318.049Z" fill="#06BCC1"/>
<path d="M526.256 299.054V300.312H521.627V299.054H523.156V294.958L521.949 295.663L521.355 294.536L523.609 293.217H524.726V299.054H526.256ZM532.148 299.054V300.312H527.268V299.154L529.633 296.649C530.129 296.126 530.377 295.643 530.377 295.2C530.377 294.636 530.055 294.355 529.411 294.355C529.116 294.355 528.808 294.415 528.486 294.536C528.164 294.65 527.848 294.817 527.54 295.039L527.047 293.922C527.328 293.68 527.691 293.489 528.133 293.348C528.576 293.201 529.029 293.127 529.492 293.127C530.23 293.127 530.817 293.305 531.253 293.66C531.696 294.016 531.917 294.492 531.917 295.089C531.917 295.498 531.83 295.877 531.655 296.226C531.488 296.575 531.202 296.964 530.8 297.393L529.22 299.054H532.148Z" fill="#06BCC1"/>
<rect x="575.914" y="288.155" width="57.5" height="57.5" fill="#F4EDEA"/>
<rect opacity="0.3" x="578.07" y="290.312" width="53.1875" height="53.1875" rx="2.875" fill="#F4EDEA" stroke="#C9C7C6" stroke-width="1.4375"/>
<path d="M601.177 311.494H609.319V313.254H603.351V316.6H608.974V318.342H603.351V321.896H609.319V323.655H601.177V311.494Z" fill="#06BCC1"/>
<rect x="633.414" y="288.155" width="57.5" height="57.5" fill="#F4EDEA"/>
<rect opacity="0.3" x="635.57" y="290.312" width="53.1875" height="53.1875" rx="2.875" fill="#F4EDEA" stroke="#C9C7C6" stroke-width="1.4375"/>
<path d="M658.472 311.494H660.697V321.827H666.373V323.655H658.472V311.494Z" fill="#06BCC1"/>
<rect x="690.914" y="288.155" width="57.5" height="57.5" fill="#F4EDEA"/>
<rect opacity="0.3" x="693.07" y="290.312" width="53.1875" height="53.1875" rx="2.875" fill="#F4EDEA" stroke="#C9C7C6" stroke-width="1.4375"/>
<path d="M715.972 311.494H718.197V321.827H723.873V323.655H715.972V311.494Z" fill="#06BCC1"/>
<rect x="748.414" y="288.155" width="57.5" height="57.5" fill="#F4EDEA"/>
<rect opacity="0.3" x="750.57" y="290.312" width="53.1875" height="53.1875" rx="2.875" fill="#F4EDEA" stroke="#C9C7C6" stroke-width="1.4375"/>
<path d="M776.951 323.811C775.767 323.811 774.738 323.558 773.864 323.052C773.001 322.546 772.334 321.821 771.863 320.878C771.391 319.935 771.155 318.831 771.155 317.566C771.155 316.301 771.385 315.203 771.845 314.271C772.317 313.328 772.99 312.604 773.864 312.098C774.738 311.592 775.767 311.339 776.951 311.339C778.136 311.339 779.159 311.592 780.022 312.098C780.896 312.604 781.563 313.328 782.023 314.271C782.494 315.203 782.73 316.301 782.73 317.566C782.73 318.831 782.494 319.935 782.023 320.878C781.551 321.821 780.879 322.546 780.005 323.052C779.142 323.558 778.124 323.811 776.951 323.811ZM776.951 322.034C778.067 322.034 778.935 321.649 779.556 320.878C780.189 320.108 780.505 319.004 780.505 317.566C780.505 316.129 780.189 315.03 779.556 314.271C778.935 313.501 778.067 313.116 776.951 313.116C775.824 313.116 774.945 313.501 774.312 314.271C773.691 315.03 773.381 316.129 773.381 317.566C773.381 319.004 773.691 320.108 774.312 320.878C774.945 321.649 775.824 322.034 776.951 322.034Z" fill="#06BCC1"/>
<rect x="805.914" y="288.155" width="57.5" height="57.5" fill="#F4EDEA"/>
<rect opacity="0.3" x="808.07" y="290.312" width="53.1875" height="53.1875" rx="2.875" fill="#F4EDEA" stroke="#C9C7C6" stroke-width="1.4375"/>
<path d="M843.602 311.494L839.307 323.655H837.496L834.442 314.91L831.372 323.655H829.561L825.283 311.494H827.525L830.544 320.55L833.718 311.494H835.288L838.375 320.602L841.48 311.494H843.602Z" fill="#06BCC1"/>
<rect x="58.4141" y="345.655" width="57.5" height="57.5" fill="#F4EDEA"/>
<rect x="60.5703" y="347.812" width="53.1875" height="53.1875" rx="2.875" fill="#06BCC1"/>
<rect x="115.914" y="345.655" width="57.5" height="57.5" fill="#F4EDEA"/>
<rect x="118.07" y="347.812" width="53.1875" height="53.1875" rx="2.875" fill="#06BCC1"/>
<rect x="173.414" y="345.655" width="57.5" height="57.5" fill="#F4EDEA"/>
<rect x="175.57" y="347.812" width="53.1875" height="53.1875" rx="2.875" fill="#06BCC1"/>
<rect x="230.914" y="345.655" width="57.5" height="57.5" fill="#F4EDEA"/>
<rect opacity="0.3" x="233.07" y="347.812" width="53.1875" height="53.1875" rx="2.875" fill="#F4EDEA" stroke="#C9C7C6" stroke-width="1.4375"/>
<path d="M265.077 368.994V381.155H263.403L256.883 372.668V381.155H254.813V368.994H256.469L262.989 377.464V368.994H265.077Z" fill="#06BCC1"/>
<rect x="288.414" y="345.655" width="57.5" height="57.5" fill="#F4EDEA"/>
<rect x="290.57" y="347.812" width="53.1875" height="53.1875" rx="2.875" fill="#06BCC1"/>
<rect x="345.914" y="345.655" width="57.5" height="57.5" fill="#F4EDEA"/>
<rect x="348.07" y="347.812" width="53.1875" height="53.1875" rx="2.875" fill="#06BCC1"/>
<rect x="403.414" y="345.655" width="57.5" height="57.5" fill="#F4EDEA"/>
<rect x="405.57" y="347.812" width="53.1875" height="53.1875" rx="2.875" fill="#06BCC1"/>
<rect x="460.914" y="345.655" width="57.5" height="57.5" fill="#F4EDEA"/>
<rect x="463.07" y="347.812" width="53.1875" height="53.1875" rx="2.875" fill="#06BCC1"/>
<rect x="518.414" y="345.655" width="57.5" height="57.5" fill="#F4EDEA"/>
<rect x="520.57" y="347.812" width="53.1875" height="53.1875" rx="2.875" fill="#06BCC1"/>
<rect x="575.914" y="345.655" width="57.5" height="57.5" fill="#F4EDEA"/>
<rect opacity="0.3" x="578.07" y="347.812" width="53.1875" height="53.1875" rx="2.875" fill="#F4EDEA" stroke="#C9C7C6" stroke-width="1.4375"/>
<path d="M603.831 368.994H606.056V381.155H603.831V368.994Z" fill="#06BCC1"/>
<rect x="633.414" y="345.655" width="57.5" height="57.5" fill="#F4EDEA"/>
<rect x="635.57" y="347.812" width="53.1875" height="53.1875" rx="2.875" fill="#06BCC1"/>
<rect x="690.914" y="345.655" width="57.5" height="57.5" fill="#F4EDEA"/>
<rect opacity="0.3" x="693.07" y="347.812" width="53.1875" height="53.1875" rx="2.875" fill="#F4EDEA" stroke="#C9C7C6" stroke-width="1.4375"/>
<path d="M716.177 368.994H724.319V370.754H718.351V374.1H723.974V375.842H718.351V379.396H724.319V381.155H716.177V368.994Z" fill="#06BCC1"/>
<rect x="748.414" y="345.655" width="57.5" height="57.5" fill="#F4EDEA"/>
<rect x="750.57" y="347.812" width="53.1875" height="53.1875" rx="2.875" fill="#06BCC1"/>
<rect x="805.914" y="345.655" width="57.5" height="57.5" fill="#F4EDEA"/>
<rect x="808.07" y="347.812" width="53.1875" height="53.1875" rx="2.875" fill="#06BCC1"/>
<rect x="58.4141" y="403.155" width="57.5" height="57.5" fill="#F4EDEA"/>
<rect opacity="0.3" x="60.5703" y="405.312" width="53.1875" height="53.1875" rx="2.875" fill="#F4EDEA" stroke="#C9C7C6" stroke-width="1.4375"/>
<path d="M92.5738 432.083V437.914C92.0218 438.19 91.349 438.408 90.5555 438.569C89.7735 438.73 88.9743 438.811 88.1578 438.811C86.9043 438.811 85.8175 438.563 84.8975 438.069C83.9775 437.563 83.2703 436.844 82.7758 435.913C82.2928 434.97 82.0513 433.854 82.0513 432.566C82.0513 431.29 82.2928 430.186 82.7758 429.254C83.2703 428.311 83.966 427.592 84.863 427.098C85.7715 426.592 86.8353 426.339 88.0543 426.339C88.9053 426.339 89.7045 426.465 90.452 426.718C91.1995 426.96 91.8205 427.311 92.315 427.771L91.5733 429.375C91.0098 428.938 90.452 428.627 89.9 428.443C89.3595 428.248 88.7615 428.15 88.106 428.15C86.8525 428.15 85.9038 428.524 85.2598 429.271C84.6273 430.007 84.311 431.106 84.311 432.566C84.311 435.556 85.622 437.051 88.244 437.051C89.026 437.051 89.808 436.942 90.59 436.723V433.67H87.968V432.083H92.5738Z" fill="#06BCC1"/>
<path d="M64.0218 410.723C64.4578 410.723 64.8469 410.82 65.189 411.015C65.5311 411.203 65.7961 411.468 65.9839 411.81C66.1718 412.152 66.2657 412.548 66.2657 412.997C66.2657 413.473 66.1516 413.893 65.9236 414.255C65.7022 414.617 65.3835 414.899 64.9676 415.1C64.5584 415.295 64.0788 415.392 63.5287 415.392C63.0792 415.392 62.6331 415.322 62.1904 415.181C61.7476 415.033 61.3887 414.839 61.1137 414.597L61.6068 413.48C62.2575 413.936 62.9048 414.164 63.5488 414.164C63.958 414.164 64.2666 414.07 64.4746 413.883C64.6892 413.695 64.7966 413.416 64.7966 413.047C64.7966 412.699 64.6859 412.424 64.4645 412.222C64.2498 412.021 63.9547 411.92 63.579 411.92C63.3442 411.92 63.1094 411.964 62.8746 412.051C62.6465 412.138 62.4386 412.259 62.2508 412.414H61.3552V408.217H65.9236V409.415H62.8847V410.995C63.2067 410.814 63.5857 410.723 64.0218 410.723ZM67.2579 412.021H70.3673V413.208H67.2579V412.021ZM76.721 414.054V415.312H72.0923V414.054H73.6218V409.958L72.4143 410.663L71.8206 409.536L74.0746 408.217H75.1915V414.054H76.721ZM81.2653 411.659C81.6813 411.78 81.9999 411.991 82.2213 412.293C82.4494 412.588 82.5634 412.95 82.5634 413.38C82.5634 414.003 82.3253 414.496 81.849 414.859C81.3727 415.214 80.7287 415.392 79.917 415.392C79.4273 415.392 78.9577 415.322 78.5082 415.181C78.0588 415.04 77.6931 414.845 77.4114 414.597L77.9045 413.48C78.5485 413.936 79.1958 414.164 79.8465 414.164C80.2759 414.164 80.5878 414.091 80.7823 413.943C80.9769 413.789 81.0742 413.551 81.0742 413.229C81.0742 412.913 80.9769 412.685 80.7823 412.544C80.5878 412.403 80.2759 412.333 79.8465 412.333H78.8302V411.115H79.6755C80.0847 411.115 80.3865 411.045 80.5811 410.904C80.7823 410.763 80.883 410.545 80.883 410.25C80.883 409.962 80.7958 409.74 80.6213 409.586C80.4469 409.432 80.1954 409.355 79.8667 409.355C79.5715 409.355 79.2629 409.415 78.9409 409.536C78.6189 409.65 78.307 409.817 78.0051 410.039L77.512 408.922C77.7938 408.68 78.156 408.489 78.5988 408.348C79.0482 408.201 79.5078 408.127 79.9773 408.127C80.4603 408.127 80.883 408.207 81.2452 408.368C81.6075 408.523 81.8859 408.744 82.0804 409.033C82.2816 409.321 82.3823 409.656 82.3823 410.039C82.3823 410.421 82.2816 410.757 82.0804 411.045C81.8859 411.327 81.6142 411.531 81.2653 411.659Z" fill="#06BCC1"/>
<rect x="115.914" y="403.155" width="57.5" height="57.5" fill="#F4EDEA"/>
<rect opacity="0.3" x="118.07" y="405.312" width="53.1875" height="53.1875" rx="2.875" fill="#F4EDEA" stroke="#C9C7C6" stroke-width="1.4375"/>
<path d="M144.451 438.811C143.267 438.811 142.238 438.558 141.364 438.052C140.501 437.546 139.834 436.821 139.363 435.878C138.891 434.935 138.655 433.831 138.655 432.566C138.655 431.301 138.885 430.203 139.345 429.271C139.817 428.328 140.49 427.604 141.364 427.098C142.238 426.592 143.267 426.339 144.451 426.339C145.636 426.339 146.659 426.592 147.522 427.098C148.396 427.604 149.063 428.328 149.523 429.271C149.994 430.203 150.23 431.301 150.23 432.566C150.23 433.831 149.994 434.935 149.523 435.878C149.051 436.821 148.379 437.546 147.505 438.052C146.642 438.558 145.624 438.811 144.451 438.811ZM144.451 437.034C145.567 437.034 146.435 436.649 147.056 435.878C147.689 435.108 148.005 434.004 148.005 432.566C148.005 431.129 147.689 430.03 147.056 429.271C146.435 428.501 145.567 428.116 144.451 428.116C143.324 428.116 142.445 428.501 141.812 429.271C141.191 430.03 140.881 431.129 140.881 432.566C140.881 434.004 141.191 435.108 141.812 435.878C142.445 436.649 143.324 437.034 144.451 437.034Z" fill="#06BCC1"/>
<rect x="173.414" y="403.155" width="57.5" height="57.5" fill="#F4EDEA"/>
<rect opacity="0.3" x="175.57" y="405.312" width="53.1875" height="53.1875" rx="2.875" fill="#F4EDEA" stroke="#C9C7C6" stroke-width="1.4375"/>
<path d="M198.472 426.494H200.697V436.827H206.373V438.655H198.472V426.494Z" fill="#06BCC1"/>
<rect x="230.914" y="403.155" width="57.5" height="57.5" fill="#F4EDEA"/>
<rect opacity="0.3" x="233.07" y="405.312" width="53.1875" height="53.1875" rx="2.875" fill="#F4EDEA" stroke="#C9C7C6" stroke-width="1.4375"/>
<path d="M254.254 426.494H258.739C260.728 426.494 262.269 427.029 263.362 428.098C264.466 429.156 265.018 430.646 265.018 432.566C265.018 434.487 264.466 435.982 263.362 437.051C262.269 438.121 260.728 438.655 258.739 438.655H254.254V426.494ZM258.601 436.844C261.395 436.844 262.793 435.418 262.793 432.566C262.793 429.726 261.395 428.305 258.601 428.305H256.479V436.844H258.601Z" fill="#06BCC1"/>
<rect x="288.414" y="403.155" width="57.5" height="57.5" fill="#F4EDEA"/>
<rect x="290.57" y="405.312" width="53.1875" height="53.1875" rx="2.875" fill="#06BCC1"/>
<rect x="345.914" y="403.155" width="57.5" height="57.5" fill="#F4EDEA"/>
<rect x="348.07" y="405.312" width="53.1875" height="53.1875" rx="2.875" fill="#06BCC1"/>
<rect x="403.414" y="403.155" width="57.5" height="57.5" fill="#F4EDEA"/>
<rect x="405.57" y="405.312" width="53.1875" height="53.1875" rx="2.875" fill="#06BCC1"/>
<rect x="460.914" y="403.155" width="57.5" height="57.5" fill="#F4EDEA"/>
<rect x="463.07" y="405.312" width="53.1875" height="53.1875" rx="2.875" fill="#06BCC1"/>
<rect x="518.414" y="403.155" width="57.5" height="57.5" fill="#F4EDEA"/>
<rect x="520.57" y="405.312" width="53.1875" height="53.1875" rx="2.875" fill="#06BCC1"/>
<rect x="575.914" y="403.155" width="57.5" height="57.5" fill="#F4EDEA"/>
<rect opacity="0.3" x="578.07" y="405.312" width="53.1875" height="53.1875" rx="2.875" fill="#F4EDEA" stroke="#C9C7C6" stroke-width="1.4375"/>
<path d="M610.074 432.083V437.914C609.522 438.19 608.849 438.408 608.056 438.569C607.274 438.73 606.474 438.811 605.658 438.811C604.404 438.811 603.318 438.563 602.398 438.069C601.478 437.563 600.77 436.844 600.276 435.913C599.793 434.97 599.551 433.854 599.551 432.566C599.551 431.29 599.793 430.186 600.276 429.254C600.77 428.311 601.466 427.592 602.363 427.098C603.272 426.592 604.335 426.339 605.554 426.339C606.405 426.339 607.205 426.465 607.952 426.718C608.7 426.96 609.321 427.311 609.815 427.771L609.073 429.375C608.51 428.938 607.952 428.627 607.4 428.443C606.86 428.248 606.262 428.15 605.606 428.15C604.353 428.15 603.404 428.524 602.76 429.271C602.127 430.007 601.811 431.106 601.811 432.566C601.811 435.556 603.122 437.051 605.744 437.051C606.526 437.051 607.308 436.942 608.09 436.723V433.67H605.468V432.083H610.074Z" fill="#06BCC1"/>
<rect x="633.414" y="403.155" width="57.5" height="57.5" fill="#F4EDEA"/>
<rect x="635.57" y="405.312" width="53.1875" height="53.1875" rx="2.875" fill="#06BCC1"/>
<rect x="690.914" y="403.155" width="57.5" height="57.5" fill="#F4EDEA"/>
<rect x="693.07" y="405.312" width="53.1875" height="53.1875" rx="2.875" fill="#06BCC1"/>
<rect x="748.414" y="403.155" width="57.5" height="57.5" fill="#F4EDEA"/>
<rect x="750.57" y="405.312" width="53.1875" height="53.1875" rx="2.875" fill="#06BCC1"/>
<rect x="805.914" y="403.155" width="57.5" height="57.5" fill="#F4EDEA"/>
<rect x="808.07" y="405.312" width="53.1875" height="53.1875" rx="2.875" fill="#06BCC1"/>
<rect x="58.4141" y="460.655" width="57.5" height="57.5" fill="#F4EDEA"/>
<rect opacity="0.3" x="60.5703" y="462.812" width="53.1875" height="53.1875" rx="2.875" fill="#F4EDEA" stroke="#C9C7C6" stroke-width="1.4375"/>
<path d="M92.454 496.155H90.039L87.9517 492.274C87.7562 491.906 87.5147 491.647 87.2272 491.498C86.9397 491.348 86.5775 491.274 86.1405 491.274H84.45V496.155H82.2592V483.994H87.6412C89.0212 483.994 90.0677 484.305 90.7807 484.926C91.5052 485.535 91.8675 486.421 91.8675 487.582C91.8675 488.514 91.603 489.284 91.074 489.894C90.5565 490.492 89.8205 490.883 88.866 491.067C89.51 491.239 90.0275 491.693 90.4185 492.429L92.454 496.155ZM87.3307 489.566C88.1702 489.566 88.7855 489.411 89.1765 489.1C89.5675 488.778 89.763 488.289 89.763 487.634C89.763 486.967 89.5675 486.484 89.1765 486.185C88.7855 485.874 88.1702 485.719 87.3307 485.719H84.4327V489.566H87.3307Z" fill="#06BCC1"/>
<rect x="115.914" y="460.655" width="57.5" height="57.5" fill="#F4EDEA"/>
<rect x="118.07" y="462.812" width="53.1875" height="53.1875" rx="2.875" fill="#06BCC1"/>
<rect x="173.414" y="460.655" width="57.5" height="57.5" fill="#F4EDEA"/>
<rect x="175.57" y="462.812" width="53.1875" height="53.1875" rx="2.875" fill="#06BCC1"/>
<rect x="230.914" y="460.655" width="57.5" height="57.5" fill="#F4EDEA"/>
<rect opacity="0.3" x="233.07" y="462.812" width="53.1875" height="53.1875" rx="2.875" fill="#F4EDEA" stroke="#C9C7C6" stroke-width="1.4375"/>
<path d="M258.831 483.994H261.056V496.155H258.831V483.994Z" fill="#06BCC1"/>
<rect x="288.414" y="460.655" width="57.5" height="57.5" fill="#F4EDEA"/>
<rect x="290.57" y="462.812" width="53.1875" height="53.1875" rx="2.875" fill="#06BCC1"/>
<rect x="345.914" y="460.655" width="57.5" height="57.5" fill="#F4EDEA"/>
<rect opacity="0.3" x="348.07" y="462.812" width="53.1875" height="53.1875" rx="2.875" fill="#F4EDEA" stroke="#C9C7C6" stroke-width="1.4375"/>
<path d="M374.379 496.311C373.447 496.311 372.573 496.184 371.757 495.931C370.94 495.678 370.25 495.322 369.687 494.862L370.429 493.24C371.015 493.689 371.63 494.016 372.274 494.223C372.93 494.43 373.637 494.534 374.396 494.534C375.236 494.534 375.88 494.39 376.328 494.103C376.788 493.804 377.018 493.39 377.018 492.861C377.018 492.401 376.805 492.05 376.38 491.808C375.966 491.567 375.27 491.337 374.293 491.118C373.281 490.9 372.458 490.647 371.826 490.359C371.193 490.072 370.716 489.704 370.394 489.255C370.072 488.807 369.911 488.238 369.911 487.548C369.911 486.835 370.107 486.196 370.498 485.633C370.889 485.069 371.441 484.632 372.154 484.322C372.867 484 373.689 483.839 374.62 483.839C375.471 483.839 376.282 483.971 377.053 484.236C377.823 484.489 378.456 484.839 378.95 485.288L378.208 486.909C377.127 486.047 375.931 485.616 374.62 485.616C373.838 485.616 373.217 485.777 372.757 486.099C372.309 486.409 372.085 486.846 372.085 487.41C372.085 487.881 372.286 488.243 372.688 488.496C373.091 488.749 373.775 488.985 374.741 489.204C375.765 489.434 376.593 489.692 377.225 489.98C377.869 490.256 378.358 490.612 378.691 491.049C379.036 491.486 379.209 492.038 379.209 492.705C379.209 493.43 379.013 494.068 378.622 494.62C378.243 495.161 377.685 495.58 376.949 495.879C376.225 496.167 375.368 496.311 374.379 496.311Z" fill="#06BCC1"/>
<path d="M351.602 468.203C352.018 468.203 352.387 468.3 352.709 468.495C353.038 468.689 353.293 468.961 353.474 469.31C353.662 469.659 353.756 470.054 353.756 470.497C353.756 470.96 353.652 471.376 353.444 471.745C353.236 472.107 352.947 472.392 352.578 472.6C352.209 472.801 351.793 472.902 351.331 472.902C350.412 472.902 349.7 472.597 349.197 471.986C348.694 471.376 348.443 470.504 348.443 469.37C348.443 468.592 348.563 467.925 348.805 467.368C349.046 466.804 349.392 466.375 349.841 466.08C350.291 465.778 350.824 465.627 351.441 465.627C351.877 465.627 352.3 465.697 352.709 465.838C353.118 465.972 353.467 466.167 353.756 466.422L353.253 467.539C352.635 467.083 352.052 466.855 351.502 466.855C351.045 466.855 350.687 467.042 350.425 467.418C350.17 467.787 350.029 468.327 350.002 469.038C350.157 468.783 350.375 468.582 350.656 468.434C350.938 468.28 351.253 468.203 351.602 468.203ZM351.24 471.685C351.555 471.685 351.807 471.581 351.995 471.373C352.189 471.165 352.287 470.89 352.287 470.547C352.287 470.212 352.189 469.94 351.995 469.732C351.807 469.524 351.555 469.42 351.24 469.42C350.925 469.42 350.67 469.524 350.475 469.732C350.281 469.94 350.183 470.212 350.183 470.547C350.183 470.883 350.281 471.158 350.475 471.373C350.67 471.581 350.925 471.685 351.24 471.685ZM354.758 469.521H357.867V470.708H354.758V469.521ZM364.221 471.554V472.812H359.592V471.554H361.122V467.458L359.914 468.163L359.321 467.036L361.575 465.717H362.692V471.554H364.221ZM370.395 471.513H369.429V472.812H367.9V471.513H364.932V470.356L368.172 465.717H369.429V470.316H370.395V471.513ZM367.9 470.316V468.102L366.36 470.316H367.9Z" fill="#06BCC1"/>
<rect x="403.414" y="460.655" width="57.5" height="57.5" fill="#F4EDEA"/>
<rect opacity="0.3" x="405.57" y="462.812" width="53.1875" height="53.1875" rx="2.875" fill="#F4EDEA" stroke="#C9C7C6" stroke-width="1.4375"/>
<path d="M431.331 483.994H433.556V496.155H431.331V483.994Z" fill="#06BCC1"/>
<rect x="460.914" y="460.655" width="57.5" height="57.5" fill="#F4EDEA"/>
<rect opacity="0.3" x="463.07" y="462.812" width="53.1875" height="53.1875" rx="2.875" fill="#F4EDEA" stroke="#C9C7C6" stroke-width="1.4375"/>
<path d="M485.972 483.994H488.197V494.327H493.873V496.155H485.972V483.994Z" fill="#06BCC1"/>
<rect x="518.414" y="460.655" width="57.5" height="57.5" fill="#F4EDEA"/>
<rect opacity="0.3" x="520.57" y="462.812" width="53.1875" height="53.1875" rx="2.875" fill="#F4EDEA" stroke="#C9C7C6" stroke-width="1.4375"/>
<path d="M553.777 483.994L548.361 496.155H546.549L541.133 483.994H543.427L547.464 493.395L551.517 483.994H553.777Z" fill="#06BCC1"/>
<rect x="575.914" y="460.655" width="57.5" height="57.5" fill="#F4EDEA"/>
<rect opacity="0.3" x="578.07" y="462.812" width="53.1875" height="53.1875" rx="2.875" fill="#F4EDEA" stroke="#C9C7C6" stroke-width="1.4375"/>
<path d="M601.177 483.994H609.319V485.754H603.351V489.1H608.974V490.842H603.351V494.396H609.319V496.155H601.177V483.994Z" fill="#06BCC1"/>
<rect x="633.414" y="460.655" width="57.5" height="57.5" fill="#F4EDEA"/>
<rect opacity="0.3" x="635.57" y="462.812" width="53.1875" height="53.1875" rx="2.875" fill="#F4EDEA" stroke="#C9C7C6" stroke-width="1.4375"/>
<path d="M667.454 496.155H665.039L662.952 492.274C662.756 491.906 662.515 491.647 662.227 491.498C661.94 491.348 661.577 491.274 661.14 491.274H659.45V496.155H657.259V483.994H662.641C664.021 483.994 665.068 484.305 665.781 484.926C666.505 485.535 666.867 486.421 666.867 487.582C666.867 488.514 666.603 489.284 666.074 489.894C665.556 490.492 664.82 490.883 663.866 491.067C664.51 491.239 665.027 491.693 665.418 492.429L667.454 496.155ZM662.331 489.566C663.17 489.566 663.785 489.411 664.176 489.1C664.567 488.778 664.763 488.289 664.763 487.634C664.763 486.967 664.567 486.484 664.176 486.185C663.785 485.874 663.17 485.719 662.331 485.719H659.433V489.566H662.331Z" fill="#06BCC1"/>
<path d="M641.145 465.717V466.885L637.985 472.812H636.315L639.465 466.975H636.043V465.717H641.145Z" fill="#06BCC1"/>
<rect x="690.914" y="460.655" width="57.5" height="57.5" fill="#F4EDEA"/>
<rect x="693.07" y="462.812" width="53.1875" height="53.1875" rx="2.875" fill="#06BCC1"/>
<rect x="748.414" y="460.655" width="57.5" height="57.5" fill="#F4EDEA"/>
<rect x="750.57" y="462.812" width="53.1875" height="53.1875" rx="2.875" fill="#06BCC1"/>
<rect x="805.914" y="460.655" width="57.5" height="57.5" fill="#F4EDEA"/>
<rect x="808.07" y="462.812" width="53.1875" height="53.1875" rx="2.875" fill="#06BCC1"/>
<rect x="58.4141" y="518.155" width="57.5" height="57.5" fill="#F4EDEA"/>
<rect opacity="0.3" x="60.5703" y="520.312" width="53.1875" height="53.1875" rx="2.875" fill="#F4EDEA" stroke="#C9C7C6" stroke-width="1.4375"/>
<path d="M83.6773 541.494H91.8193V543.254H85.8508V546.6H91.4743V548.342H85.8508V551.896H91.8193V553.655H83.6773V541.494Z" fill="#06BCC1"/>
<rect x="115.914" y="518.155" width="57.5" height="57.5" fill="#F4EDEA"/>
<rect x="118.07" y="520.312" width="53.1875" height="53.1875" rx="2.875" fill="#06BCC1"/>
<rect x="173.414" y="518.155" width="57.5" height="57.5" fill="#F4EDEA"/>
<rect x="175.57" y="520.312" width="53.1875" height="53.1875" rx="2.875" fill="#06BCC1"/>
<rect x="230.914" y="518.155" width="57.5" height="57.5" fill="#F4EDEA"/>
<rect opacity="0.3" x="233.07" y="520.312" width="53.1875" height="53.1875" rx="2.875" fill="#F4EDEA" stroke="#C9C7C6" stroke-width="1.4375"/>
<path d="M265.074 547.083V552.914C264.522 553.19 263.849 553.408 263.056 553.569C262.274 553.73 261.474 553.811 260.658 553.811C259.404 553.811 258.318 553.563 257.398 553.069C256.478 552.563 255.77 551.844 255.276 550.913C254.793 549.97 254.551 548.854 254.551 547.566C254.551 546.29 254.793 545.186 255.276 544.254C255.77 543.311 256.466 542.592 257.363 542.098C258.272 541.592 259.335 541.339 260.554 541.339C261.405 541.339 262.205 541.465 262.952 541.718C263.7 541.96 264.321 542.311 264.815 542.771L264.073 544.375C263.51 543.938 262.952 543.627 262.4 543.443C261.86 543.248 261.262 543.15 260.606 543.15C259.353 543.15 258.404 543.524 257.76 544.271C257.127 545.007 256.811 546.106 256.811 547.566C256.811 550.556 258.122 552.051 260.744 552.051C261.526 552.051 262.308 551.942 263.09 551.723V548.67H260.468V547.083H265.074Z" fill="#06BCC1"/>
<rect x="288.414" y="518.155" width="57.5" height="57.5" fill="#F4EDEA"/>
<rect x="290.57" y="520.312" width="53.1875" height="53.1875" rx="2.875" fill="#06BCC1"/>
<rect x="345.914" y="518.155" width="57.5" height="57.5" fill="#F4EDEA"/>
<rect opacity="0.3" x="348.07" y="520.312" width="53.1875" height="53.1875" rx="2.875" fill="#F4EDEA" stroke="#C9C7C6" stroke-width="1.4375"/>
<path d="M375.431 553.811C374.235 553.811 373.188 553.558 372.291 553.052C371.406 552.534 370.722 551.804 370.239 550.861C369.767 549.918 369.531 548.82 369.531 547.566C369.531 546.313 369.767 545.22 370.239 544.289C370.722 543.346 371.406 542.621 372.291 542.115C373.188 541.598 374.235 541.339 375.431 541.339C376.247 541.339 377.018 541.465 377.742 541.718C378.467 541.971 379.076 542.328 379.571 542.788L378.829 544.409C378.277 543.972 377.731 543.656 377.19 543.461C376.65 543.254 376.075 543.15 375.465 543.15C374.292 543.15 373.384 543.53 372.74 544.289C372.107 545.048 371.791 546.14 371.791 547.566C371.791 549.004 372.107 550.102 372.74 550.861C373.384 551.62 374.292 551.999 375.465 551.999C376.075 551.999 376.65 551.902 377.19 551.706C377.731 551.499 378.277 551.177 378.829 550.74L379.571 552.362C379.076 552.822 378.467 553.178 377.742 553.431C377.018 553.684 376.247 553.811 375.431 553.811Z" fill="#06BCC1"/>
<rect x="403.414" y="518.155" width="57.5" height="57.5" fill="#F4EDEA"/>
<rect x="405.57" y="520.312" width="53.1875" height="53.1875" rx="2.875" fill="#06BCC1"/>
<rect x="460.914" y="518.155" width="57.5" height="57.5" fill="#F4EDEA"/>
<rect x="463.07" y="520.312" width="53.1875" height="53.1875" rx="2.875" fill="#06BCC1"/>
<rect x="518.414" y="518.155" width="57.5" height="57.5" fill="#F4EDEA"/>
<rect x="520.57" y="520.312" width="53.1875" height="53.1875" rx="2.875" fill="#06BCC1"/>
<rect x="575.914" y="518.155" width="57.5" height="57.5" fill="#F4EDEA"/>
<rect x="578.07" y="520.312" width="53.1875" height="53.1875" rx="2.875" fill="#06BCC1"/>
<rect x="633.414" y="518.155" width="57.5" height="57.5" fill="#F4EDEA"/>
<rect opacity="0.3" x="635.57" y="520.312" width="53.1875" height="53.1875" rx="2.875" fill="#F4EDEA" stroke="#C9C7C6" stroke-width="1.4375"/>
<path d="M658.677 541.494H666.819V543.254H660.851V546.6H666.474V548.342H660.851V551.896H666.819V553.655H658.677V541.494Z" fill="#06BCC1"/>
<rect x="690.914" y="518.155" width="57.5" height="57.5" fill="#F4EDEA"/>
<rect x="693.07" y="520.312" width="53.1875" height="53.1875" rx="2.875" fill="#06BCC1"/>
<rect x="748.414" y="518.155" width="57.5" height="57.5" fill="#F4EDEA"/>
<rect x="750.57" y="520.312" width="53.1875" height="53.1875" rx="2.875" fill="#06BCC1"/>
<rect x="805.914" y="518.155" width="57.5" height="57.5" fill="#F4EDEA"/>
<rect x="808.07" y="520.312" width="53.1875" height="53.1875" rx="2.875" fill="#06BCC1"/>
<rect x="58.4141" y="575.655" width="57.5" height="57.5" fill="#F4EDEA"/>
<rect opacity="0.3" x="60.5703" y="577.812" width="53.1875" height="53.1875" rx="2.875" fill="#F4EDEA" stroke="#C9C7C6" stroke-width="1.4375"/>
<path d="M83.6773 598.994H91.8193V600.754H85.8508V604.1H91.4743V605.842H85.8508V609.396H91.8193V611.155H83.6773V598.994Z" fill="#06BCC1"/>
<rect x="115.914" y="575.655" width="57.5" height="57.5" fill="#F4EDEA"/>
<rect x="118.07" y="577.812" width="53.1875" height="53.1875" rx="2.875" fill="#06BCC1"/>
<rect x="173.414" y="575.655" width="57.5" height="57.5" fill="#F4EDEA"/>
<rect x="175.57" y="577.812" width="53.1875" height="53.1875" rx="2.875" fill="#06BCC1"/>
<rect x="230.914" y="575.655" width="57.5" height="57.5" fill="#F4EDEA"/>
<rect opacity="0.3" x="233.07" y="577.812" width="53.1875" height="53.1875" rx="2.875" fill="#F4EDEA" stroke="#C9C7C6" stroke-width="1.4375"/>
<path d="M259.451 611.311C258.267 611.311 257.238 611.058 256.364 610.552C255.501 610.046 254.834 609.321 254.363 608.378C253.891 607.435 253.655 606.331 253.655 605.066C253.655 603.801 253.885 602.703 254.345 601.771C254.817 600.828 255.49 600.104 256.364 599.598C257.238 599.092 258.267 598.839 259.451 598.839C260.636 598.839 261.659 599.092 262.522 599.598C263.396 600.104 264.063 600.828 264.523 601.771C264.994 602.703 265.23 603.801 265.23 605.066C265.23 606.331 264.994 607.435 264.523 608.378C264.051 609.321 263.379 610.046 262.505 610.552C261.642 611.058 260.624 611.311 259.451 611.311ZM259.451 609.534C260.567 609.534 261.435 609.149 262.056 608.378C262.689 607.608 263.005 606.504 263.005 605.066C263.005 603.629 262.689 602.53 262.056 601.771C261.435 601.001 260.567 600.616 259.451 600.616C258.324 600.616 257.445 601.001 256.812 601.771C256.191 602.53 255.881 603.629 255.881 605.066C255.881 606.504 256.191 607.608 256.812 608.378C257.445 609.149 258.324 609.534 259.451 609.534Z" fill="#06BCC1"/>
<path d="M238.756 586.554V587.812H234.127V586.554H235.656V582.458L234.449 583.163L233.855 582.036L236.109 580.717H237.226V586.554H238.756ZM242.555 583.223C242.991 583.223 243.38 583.32 243.723 583.515C244.065 583.703 244.33 583.968 244.518 584.31C244.705 584.652 244.799 585.048 244.799 585.497C244.799 585.973 244.685 586.393 244.457 586.755C244.236 587.117 243.917 587.399 243.501 587.6C243.092 587.795 242.612 587.892 242.062 587.892C241.613 587.892 241.167 587.822 240.724 587.681C240.281 587.533 239.922 587.339 239.647 587.097L240.14 585.98C240.791 586.436 241.438 586.664 242.082 586.664C242.492 586.664 242.8 586.57 243.008 586.383C243.223 586.195 243.33 585.916 243.33 585.547C243.33 585.199 243.219 584.924 242.998 584.722C242.783 584.521 242.488 584.42 242.113 584.42C241.878 584.42 241.643 584.464 241.408 584.551C241.18 584.638 240.972 584.759 240.784 584.914H239.889V580.717H244.457V581.915H241.418V583.495C241.74 583.314 242.119 583.223 242.555 583.223Z" fill="#06BCC1"/>
<rect x="288.414" y="575.655" width="57.5" height="57.5" fill="#F4EDEA"/>
<rect opacity="0.3" x="290.57" y="577.812" width="53.1875" height="53.1875" rx="2.875" fill="#F4EDEA" stroke="#C9C7C6" stroke-width="1.4375"/>
<path d="M322.454 611.155H320.039L317.952 607.274C317.756 606.906 317.515 606.647 317.227 606.498C316.94 606.348 316.577 606.274 316.14 606.274H314.45V611.155H312.259V598.994H317.641C319.021 598.994 320.068 599.305 320.781 599.926C321.505 600.535 321.867 601.421 321.867 602.582C321.867 603.514 321.603 604.284 321.074 604.894C320.556 605.492 319.82 605.883 318.866 606.067C319.51 606.239 320.027 606.693 320.418 607.429L322.454 611.155ZM317.331 604.566C318.17 604.566 318.785 604.411 319.176 604.1C319.567 603.778 319.763 603.289 319.763 602.634C319.763 601.967 319.567 601.484 319.176 601.185C318.785 600.874 318.17 600.719 317.331 600.719H314.433V604.566H317.331Z" fill="#06BCC1"/>
<rect x="345.914" y="575.655" width="57.5" height="57.5" fill="#F4EDEA"/>
<rect opacity="0.3" x="348.07" y="577.812" width="53.1875" height="53.1875" rx="2.875" fill="#F4EDEA" stroke="#C9C7C6" stroke-width="1.4375"/>
<path d="M377.928 608.309H372.011L370.786 611.155H368.544L374.047 598.994H375.858L381.361 611.155H379.153L377.928 608.309ZM377.186 606.584L374.961 601.409L372.736 606.584H377.186Z" fill="#06BCC1"/>
<rect x="403.414" y="575.655" width="57.5" height="57.5" fill="#F4EDEA"/>
<rect opacity="0.3" x="405.57" y="577.812" width="53.1875" height="53.1875" rx="2.875" fill="#F4EDEA" stroke="#C9C7C6" stroke-width="1.4375"/>
<path d="M437.577 598.994V611.155H435.903L429.383 602.668V611.155H427.313V598.994H428.969L435.489 607.464V598.994H437.577Z" fill="#06BCC1"/>
<rect x="460.914" y="575.655" width="57.5" height="57.5" fill="#F4EDEA"/>
<rect opacity="0.3" x="463.07" y="577.812" width="53.1875" height="53.1875" rx="2.875" fill="#F4EDEA" stroke="#C9C7C6" stroke-width="1.4375"/>
<path d="M495.074 604.583V610.414C494.522 610.69 493.849 610.908 493.056 611.069C492.274 611.23 491.474 611.311 490.658 611.311C489.404 611.311 488.318 611.063 487.398 610.569C486.478 610.063 485.77 609.344 485.276 608.413C484.793 607.47 484.551 606.354 484.551 605.066C484.551 603.79 484.793 602.686 485.276 601.754C485.77 600.811 486.466 600.092 487.363 599.598C488.272 599.092 489.335 598.839 490.554 598.839C491.405 598.839 492.205 598.965 492.952 599.218C493.7 599.46 494.321 599.811 494.815 600.271L494.073 601.875C493.51 601.438 492.952 601.127 492.4 600.943C491.86 600.748 491.262 600.65 490.606 600.65C489.353 600.65 488.404 601.024 487.76 601.771C487.127 602.507 486.811 603.606 486.811 605.066C486.811 608.056 488.122 609.551 490.744 609.551C491.526 609.551 492.308 609.442 493.09 609.223V606.17H490.468V604.583H495.074Z" fill="#06BCC1"/>
<rect x="518.414" y="575.655" width="57.5" height="57.5" fill="#F4EDEA"/>
<rect opacity="0.3" x="520.57" y="577.812" width="53.1875" height="53.1875" rx="2.875" fill="#F4EDEA" stroke="#C9C7C6" stroke-width="1.4375"/>
<path d="M543.677 598.994H551.819V600.754H545.851V604.1H551.474V605.842H545.851V609.396H551.819V611.155H543.677V598.994Z" fill="#06BCC1"/>
<rect x="575.914" y="575.655" width="57.5" height="57.5" fill="#F4EDEA"/>
<rect x="578.07" y="577.812" width="53.1875" height="53.1875" rx="2.875" fill="#06BCC1"/>
<rect x="633.414" y="575.655" width="57.5" height="57.5" fill="#F4EDEA"/>
<rect opacity="0.3" x="635.57" y="577.812" width="53.1875" height="53.1875" rx="2.875" fill="#F4EDEA" stroke="#C9C7C6" stroke-width="1.4375"/>
<path d="M656.754 598.994H661.239C663.228 598.994 664.769 599.529 665.862 600.598C666.966 601.656 667.518 603.146 667.518 605.066C667.518 606.987 666.966 608.482 665.862 609.551C664.769 610.621 663.228 611.155 661.239 611.155H656.754V598.994ZM661.101 609.344C663.895 609.344 665.293 607.918 665.293 605.066C665.293 602.226 663.895 600.805 661.101 600.805H658.979V609.344H661.101Z" fill="#06BCC1"/>
<rect x="690.914" y="575.655" width="57.5" height="57.5" fill="#F4EDEA"/>
<rect x="693.07" y="577.812" width="53.1875" height="53.1875" rx="2.875" fill="#06BCC1"/>
<rect x="748.414" y="575.655" width="57.5" height="57.5" fill="#F4EDEA"/>
<rect x="750.57" y="577.812" width="53.1875" height="53.1875" rx="2.875" fill="#06BCC1"/>
<rect x="805.914" y="575.655" width="57.5" height="57.5" fill="#F4EDEA"/>
<rect x="808.07" y="577.812" width="53.1875" height="53.1875" rx="2.875" fill="#06BCC1"/>
<rect x="58.4141" y="633.155" width="57.5" height="57.5" fill="#F4EDEA"/>
<rect opacity="0.3" x="60.5703" y="635.312" width="53.1875" height="53.1875" rx="2.875" fill="#F4EDEA" stroke="#C9C7C6" stroke-width="1.4375"/>
<path d="M92.5766 656.494V668.655H90.9033L84.3828 660.168V668.655H82.3128V656.494H83.9688L90.4893 664.964V656.494H92.5766Z" fill="#06BCC1"/>
<rect x="115.914" y="633.155" width="57.5" height="57.5" fill="#F4EDEA"/>
<rect x="118.07" y="635.312" width="53.1875" height="53.1875" rx="2.875" fill="#06BCC1"/>
<rect x="173.414" y="633.155" width="57.5" height="57.5" fill="#F4EDEA"/>
<rect opacity="0.3" x="175.57" y="635.312" width="53.1875" height="53.1875" rx="2.875" fill="#F4EDEA" stroke="#C9C7C6" stroke-width="1.4375"/>
<path d="M204.855 662.376C205.557 662.572 206.097 662.928 206.477 663.446C206.868 663.963 207.063 664.596 207.063 665.343C207.063 666.378 206.689 667.189 205.942 667.776C205.206 668.362 204.188 668.655 202.889 668.655H197.369V656.494H202.716C203.981 656.494 204.97 656.776 205.683 657.339C206.408 657.891 206.77 658.668 206.77 659.668C206.77 660.312 206.597 660.87 206.252 661.341C205.919 661.813 205.453 662.158 204.855 662.376ZM199.542 661.617H202.354C203.883 661.617 204.648 661.048 204.648 659.91C204.648 659.335 204.458 658.909 204.079 658.633C203.699 658.357 203.124 658.219 202.354 658.219H199.542V661.617ZM202.647 666.93C203.452 666.93 204.039 666.787 204.407 666.499C204.775 666.212 204.959 665.763 204.959 665.154C204.959 664.544 204.769 664.09 204.389 663.791C204.021 663.492 203.441 663.342 202.647 663.342H199.542V666.93H202.647Z" fill="#06BCC1"/>
<path d="M180.038 641.659C180.447 641.78 180.763 641.991 180.984 642.293C181.205 642.588 181.316 642.95 181.316 643.38C181.316 644.01 181.075 644.503 180.592 644.859C180.109 645.214 179.441 645.392 178.589 645.392C177.737 645.392 177.07 645.214 176.587 644.859C176.104 644.503 175.862 644.01 175.862 643.38C175.862 642.937 175.973 642.568 176.194 642.273C176.416 641.977 176.734 641.773 177.15 641.659C176.801 641.525 176.53 641.317 176.335 641.035C176.141 640.753 176.043 640.425 176.043 640.049C176.043 639.459 176.271 638.992 176.728 638.65C177.184 638.301 177.804 638.127 178.589 638.127C179.381 638.127 180.001 638.298 180.451 638.64C180.907 638.982 181.135 639.452 181.135 640.049C181.135 640.431 181.038 640.767 180.843 641.055C180.649 641.344 180.38 641.545 180.038 641.659ZM178.589 639.324C177.871 639.324 177.512 639.623 177.512 640.22C177.512 640.824 177.871 641.126 178.589 641.126C179.307 641.126 179.666 640.824 179.666 640.22C179.666 639.623 179.307 639.324 178.589 639.324ZM178.589 644.195C179.434 644.195 179.857 643.883 179.857 643.259C179.857 642.635 179.434 642.323 178.589 642.323C177.744 642.323 177.321 642.635 177.321 643.259C177.321 643.883 177.744 644.195 178.589 644.195Z" fill="#06BCC1"/>
<rect x="230.914" y="633.155" width="57.5" height="57.5" fill="#F4EDEA"/>
<rect x="233.07" y="635.312" width="53.1875" height="53.1875" rx="2.875" fill="#06BCC1"/>
<rect x="288.414" y="633.155" width="57.5" height="57.5" fill="#F4EDEA"/>
<rect x="290.57" y="635.312" width="53.1875" height="53.1875" rx="2.875" fill="#06BCC1"/>
<rect x="345.914" y="633.155" width="57.5" height="57.5" fill="#F4EDEA"/>
<rect opacity="0.3" x="348.07" y="635.312" width="53.1875" height="53.1875" rx="2.875" fill="#F4EDEA" stroke="#C9C7C6" stroke-width="1.4375"/>
<path d="M379.954 668.655H377.539L375.452 664.774C375.256 664.406 375.015 664.147 374.727 663.998C374.44 663.848 374.077 663.774 373.64 663.774H371.95V668.655H369.759V656.494H375.141C376.521 656.494 377.568 656.805 378.281 657.426C379.005 658.035 379.367 658.921 379.367 660.082C379.367 661.014 379.103 661.784 378.574 662.394C378.056 662.992 377.32 663.383 376.366 663.567C377.01 663.739 377.527 664.193 377.918 664.929L379.954 668.655ZM374.831 662.066C375.67 662.066 376.285 661.911 376.676 661.6C377.067 661.278 377.263 660.789 377.263 660.134C377.263 659.467 377.067 658.984 376.676 658.685C376.285 658.374 375.67 658.219 374.831 658.219H371.933V662.066H374.831Z" fill="#06BCC1"/>
<rect x="403.414" y="633.155" width="57.5" height="57.5" fill="#F4EDEA"/>
<rect x="405.57" y="635.312" width="53.1875" height="53.1875" rx="2.875" fill="#06BCC1"/>
<rect x="460.914" y="633.155" width="57.5" height="57.5" fill="#F4EDEA"/>
<rect x="463.07" y="635.312" width="53.1875" height="53.1875" rx="2.875" fill="#06BCC1"/>
<rect x="518.414" y="633.155" width="57.5" height="57.5" fill="#F4EDEA"/>
<rect x="520.57" y="635.312" width="53.1875" height="53.1875" rx="2.875" fill="#06BCC1"/>
<rect x="575.914" y="633.155" width="57.5" height="57.5" fill="#F4EDEA"/>
<rect x="578.07" y="635.312" width="53.1875" height="53.1875" rx="2.875" fill="#06BCC1"/>
<rect x="633.414" y="633.155" width="57.5" height="57.5" fill="#F4EDEA"/>
<rect x="635.57" y="635.312" width="53.1875" height="53.1875" rx="2.875" fill="#06BCC1"/>
<rect x="690.914" y="633.155" width="57.5" height="57.5" fill="#F4EDEA"/>
<rect x="693.07" y="635.312" width="53.1875" height="53.1875" rx="2.875" fill="#06BCC1"/>
<rect x="748.414" y="633.155" width="57.5" height="57.5" fill="#F4EDEA"/>
<rect x="750.57" y="635.312" width="53.1875" height="53.1875" rx="2.875" fill="#06BCC1"/>
<rect x="805.914" y="633.155" width="57.5" height="57.5" fill="#F4EDEA"/>
<rect x="808.07" y="635.312" width="53.1875" height="53.1875" rx="2.875" fill="#06BCC1"/>
<rect x="58.4141" y="690.655" width="57.5" height="57.5" fill="#F4EDEA"/>
<rect x="60.5703" y="692.812" width="53.1875" height="53.1875" rx="2.875" fill="#06BCC1"/>
<rect x="115.914" y="690.655" width="57.5" height="57.5" fill="#F4EDEA"/>
<rect x="118.07" y="692.812" width="53.1875" height="53.1875" rx="2.875" fill="#06BCC1"/>
<rect x="173.414" y="690.655" width="57.5" height="57.5" fill="#F4EDEA"/>
<rect opacity="0.3" x="175.57" y="692.812" width="53.1875" height="53.1875" rx="2.875" fill="#F4EDEA" stroke="#C9C7C6" stroke-width="1.4375"/>
<path d="M207.454 726.155H205.039L202.952 722.274C202.756 721.906 202.515 721.647 202.227 721.498C201.94 721.348 201.577 721.274 201.14 721.274H199.45V726.155H197.259V713.994H202.641C204.021 713.994 205.068 714.305 205.781 714.926C206.505 715.535 206.867 716.421 206.867 717.582C206.867 718.514 206.603 719.284 206.074 719.894C205.556 720.492 204.82 720.883 203.866 721.067C204.51 721.239 205.027 721.693 205.418 722.429L207.454 726.155ZM202.331 719.566C203.17 719.566 203.785 719.411 204.176 719.1C204.567 718.778 204.763 718.289 204.763 717.634C204.763 716.967 204.567 716.484 204.176 716.185C203.785 715.874 203.17 715.719 202.331 715.719H199.433V719.566H202.331Z" fill="#06BCC1"/>
<rect x="230.914" y="690.655" width="57.5" height="57.5" fill="#F4EDEA"/>
<rect x="233.07" y="692.812" width="53.1875" height="53.1875" rx="2.875" fill="#06BCC1"/>
<rect x="288.414" y="690.655" width="57.5" height="57.5" fill="#F4EDEA"/>
<rect opacity="0.3" x="290.57" y="692.812" width="53.1875" height="53.1875" rx="2.875" fill="#F4EDEA" stroke="#C9C7C6" stroke-width="1.4375"/>
<path d="M319.855 719.876C320.557 720.072 321.097 720.428 321.477 720.946C321.868 721.463 322.063 722.096 322.063 722.843C322.063 723.878 321.689 724.689 320.942 725.276C320.206 725.862 319.188 726.155 317.889 726.155H312.369V713.994H317.716C318.981 713.994 319.97 714.276 320.683 714.839C321.408 715.391 321.77 716.168 321.77 717.168C321.77 717.812 321.597 718.37 321.252 718.841C320.919 719.313 320.453 719.658 319.855 719.876ZM314.542 719.117H317.354C318.883 719.117 319.648 718.548 319.648 717.41C319.648 716.835 319.458 716.409 319.079 716.133C318.699 715.857 318.124 715.719 317.354 715.719H314.542V719.117ZM317.647 724.43C318.452 724.43 319.039 724.287 319.407 723.999C319.775 723.712 319.959 723.263 319.959 722.654C319.959 722.044 319.769 721.59 319.389 721.291C319.021 720.992 318.441 720.842 317.647 720.842H314.542V724.43H317.647Z" fill="#06BCC1"/>
<path d="M296.256 701.554V702.812H291.627V701.554H293.156V697.458L291.949 698.163L291.355 697.036L293.609 695.717H294.726V701.554H296.256ZM300.136 698.203C300.552 698.203 300.921 698.3 301.243 698.495C301.571 698.689 301.826 698.961 302.007 699.31C302.195 699.659 302.289 700.054 302.289 700.497C302.289 700.96 302.185 701.376 301.977 701.745C301.769 702.107 301.481 702.392 301.112 702.6C300.743 702.801 300.327 702.902 299.864 702.902C298.945 702.902 298.234 702.597 297.731 701.986C297.228 701.376 296.976 700.504 296.976 699.37C296.976 698.592 297.097 697.925 297.338 697.368C297.58 696.804 297.925 696.375 298.375 696.08C298.824 695.778 299.358 695.627 299.975 695.627C300.411 695.627 300.833 695.697 301.243 695.838C301.652 695.972 302.001 696.167 302.289 696.422L301.786 697.539C301.169 697.083 300.585 696.855 300.035 696.855C299.579 696.855 299.22 697.042 298.959 697.418C298.704 697.787 298.563 698.327 298.536 699.038C298.69 698.783 298.908 698.582 299.19 698.434C299.472 698.28 299.787 698.203 300.136 698.203ZM299.774 701.685C300.089 701.685 300.34 701.581 300.528 701.373C300.723 701.165 300.82 700.89 300.82 700.547C300.82 700.212 300.723 699.94 300.528 699.732C300.34 699.524 300.089 699.42 299.774 699.42C299.458 699.42 299.203 699.524 299.009 699.732C298.814 699.94 298.717 700.212 298.717 700.547C298.717 700.883 298.814 701.158 299.009 701.373C299.203 701.581 299.458 701.685 299.774 701.685Z" fill="#06BCC1"/>
<rect x="345.914" y="690.655" width="57.5" height="57.5" fill="#F4EDEA"/>
<rect opacity="0.3" x="348.07" y="692.812" width="53.1875" height="53.1875" rx="2.875" fill="#F4EDEA" stroke="#C9C7C6" stroke-width="1.4375"/>
<path d="M370.972 713.994H373.197V724.327H378.873V726.155H370.972V713.994Z" fill="#06BCC1"/>
<rect x="403.414" y="690.655" width="57.5" height="57.5" fill="#F4EDEA"/>
<rect opacity="0.3" x="405.57" y="692.812" width="53.1875" height="53.1875" rx="2.875" fill="#F4EDEA" stroke="#C9C7C6" stroke-width="1.4375"/>
<path d="M432.451 726.311C430.783 726.311 429.518 725.879 428.656 725.017C427.793 724.154 427.362 722.895 427.362 721.239V713.994H429.535V721.36C429.535 722.406 429.783 723.2 430.277 723.74C430.772 724.269 431.496 724.534 432.451 724.534C433.394 724.534 434.112 724.264 434.607 723.723C435.101 723.183 435.349 722.395 435.349 721.36V713.994H437.522V721.239C437.522 722.884 437.091 724.143 436.228 725.017C435.366 725.879 434.107 726.311 432.451 726.311Z" fill="#06BCC1"/>
<rect x="460.914" y="690.655" width="57.5" height="57.5" fill="#F4EDEA"/>
<rect opacity="0.3" x="463.07" y="692.812" width="53.1875" height="53.1875" rx="2.875" fill="#F4EDEA" stroke="#C9C7C6" stroke-width="1.4375"/>
<path d="M486.177 713.994H494.319V715.754H488.351V719.1H493.974V720.842H488.351V724.396H494.319V726.155H486.177V713.994Z" fill="#06BCC1"/>
<rect x="518.414" y="690.655" width="57.5" height="57.5" fill="#F4EDEA"/>
<rect x="520.57" y="692.812" width="53.1875" height="53.1875" rx="2.875" fill="#06BCC1"/>
<rect x="575.914" y="690.655" width="57.5" height="57.5" fill="#F4EDEA"/>
<rect x="578.07" y="692.812" width="53.1875" height="53.1875" rx="2.875" fill="#06BCC1"/>
<rect x="633.414" y="690.655" width="57.5" height="57.5" fill="#F4EDEA"/>
<rect x="635.57" y="692.812" width="53.1875" height="53.1875" rx="2.875" fill="#06BCC1"/>
<rect x="690.914" y="690.655" width="57.5" height="57.5" fill="#F4EDEA"/>
<rect x="693.07" y="692.812" width="53.1875" height="53.1875" rx="2.875" fill="#06BCC1"/>
<rect x="748.414" y="690.655" width="57.5" height="57.5" fill="#F4EDEA"/>
<rect x="750.57" y="692.812" width="53.1875" height="53.1875" rx="2.875" fill="#06BCC1"/>
<rect x="805.914" y="690.655" width="57.5" height="57.5" fill="#F4EDEA"/>
<rect x="808.07" y="692.812" width="53.1875" height="53.1875" rx="2.875" fill="#06BCC1"/>
<rect x="58.4141" y="748.155" width="57.5" height="57.5" fill="#F4EDEA"/>
<rect x="60.5703" y="750.312" width="53.1875" height="53.1875" rx="2.875" fill="#06BCC1"/>
<rect x="115.914" y="748.155" width="57.5" height="57.5" fill="#F4EDEA"/>
<rect x="118.07" y="750.312" width="53.1875" height="53.1875" rx="2.875" fill="#06BCC1"/>
<rect x="173.414" y="748.155" width="57.5" height="57.5" fill="#F4EDEA"/>
<rect opacity="0.3" x="175.57" y="750.312" width="53.1875" height="53.1875" rx="2.875" fill="#F4EDEA" stroke="#C9C7C6" stroke-width="1.4375"/>
<path d="M201.951 783.811C200.767 783.811 199.738 783.558 198.864 783.052C198.001 782.546 197.334 781.821 196.863 780.878C196.391 779.935 196.155 778.831 196.155 777.566C196.155 776.301 196.385 775.203 196.845 774.271C197.317 773.328 197.99 772.604 198.864 772.098C199.738 771.592 200.767 771.339 201.951 771.339C203.136 771.339 204.159 771.592 205.022 772.098C205.896 772.604 206.563 773.328 207.023 774.271C207.494 775.203 207.73 776.301 207.73 777.566C207.73 778.831 207.494 779.935 207.023 780.878C206.551 781.821 205.879 782.546 205.005 783.052C204.142 783.558 203.124 783.811 201.951 783.811ZM201.951 782.034C203.067 782.034 203.935 781.649 204.556 780.878C205.189 780.108 205.505 779.004 205.505 777.566C205.505 776.129 205.189 775.03 204.556 774.271C203.935 773.501 203.067 773.116 201.951 773.116C200.824 773.116 199.945 773.501 199.312 774.271C198.691 775.03 198.381 776.129 198.381 777.566C198.381 779.004 198.691 780.108 199.312 780.878C199.945 781.649 200.824 782.034 201.951 782.034Z" fill="#06BCC1"/>
<rect x="230.914" y="748.155" width="57.5" height="57.5" fill="#F4EDEA"/>
<rect x="233.07" y="750.312" width="53.1875" height="53.1875" rx="2.875" fill="#06BCC1"/>
<rect x="288.414" y="748.155" width="57.5" height="57.5" fill="#F4EDEA"/>
<rect x="290.57" y="750.312" width="53.1875" height="53.1875" rx="2.875" fill="#06BCC1"/>
<rect x="345.914" y="748.155" width="57.5" height="57.5" fill="#F4EDEA"/>
<rect opacity="0.3" x="348.07" y="750.312" width="53.1875" height="53.1875" rx="2.875" fill="#F4EDEA" stroke="#C9C7C6" stroke-width="1.4375"/>
<path d="M371.177 771.494H379.319V773.254H373.351V776.6H378.974V778.342H373.351V781.896H379.319V783.655H371.177V771.494Z" fill="#06BCC1"/>
<rect x="403.414" y="748.155" width="57.5" height="57.5" fill="#F4EDEA"/>
<rect x="405.57" y="750.312" width="53.1875" height="53.1875" rx="2.875" fill="#06BCC1"/>
<rect x="460.914" y="748.155" width="57.5" height="57.5" fill="#F4EDEA"/>
<rect x="463.07" y="750.312" width="53.1875" height="53.1875" rx="2.875" fill="#06BCC1"/>
<rect x="518.414" y="748.155" width="57.5" height="57.5" fill="#F4EDEA"/>
<rect x="520.57" y="750.312" width="53.1875" height="53.1875" rx="2.875" fill="#06BCC1"/>
<rect x="575.914" y="748.155" width="57.5" height="57.5" fill="#F4EDEA"/>
<rect x="578.07" y="750.312" width="53.1875" height="53.1875" rx="2.875" fill="#06BCC1"/>
<rect x="633.414" y="748.155" width="57.5" height="57.5" fill="#F4EDEA"/>
<rect x="635.57" y="750.312" width="53.1875" height="53.1875" rx="2.875" fill="#06BCC1"/>
<rect x="690.914" y="748.155" width="57.5" height="57.5" fill="#F4EDEA"/>
<rect x="693.07" y="750.312" width="53.1875" height="53.1875" rx="2.875" fill="#06BCC1"/>
<rect x="748.414" y="748.155" width="57.5" height="57.5" fill="#F4EDEA"/>
<rect x="750.57" y="750.312" width="53.1875" height="53.1875" rx="2.875" fill="#06BCC1"/>
<rect x="805.914" y="748.155" width="57.5" height="57.5" fill="#F4EDEA"/>
<rect x="808.07" y="750.312" width="53.1875" height="53.1875" rx="2.875" fill="#06BCC1"/>
<rect x="58.4141" y="805.655" width="57.5" height="57.5" fill="#F4EDEA"/>
<rect x="60.5703" y="807.812" width="53.1875" height="53.1875" rx="2.875" fill="#06BCC1"/>
<rect x="115.914" y="805.655" width="57.5" height="57.5" fill="#F4EDEA"/>
<rect x="118.07" y="807.812" width="53.1875" height="53.1875" rx="2.875" fill="#06BCC1"/>
<rect x="173.414" y="805.655" width="57.5" height="57.5" fill="#F4EDEA"/>
<rect opacity="0.3" x="175.57" y="807.812" width="53.1875" height="53.1875" rx="2.875" fill="#F4EDEA" stroke="#C9C7C6" stroke-width="1.4375"/>
<path d="M211.102 828.994L206.807 841.155H204.996L201.942 832.41L198.872 841.155H197.061L192.783 828.994H195.025L198.044 838.05L201.218 828.994H202.788L205.875 838.102L208.98 828.994H211.102Z" fill="#06BCC1"/>
<path d="M181.256 816.554V817.812H176.627V816.554H178.156V812.458L176.949 813.163L176.355 812.036L178.609 810.717H179.726V816.554H181.256ZM187.179 810.717V811.885L184.019 817.812H182.349L185.498 811.975H182.077V810.717H187.179Z" fill="#06BCC1"/>
<rect x="230.914" y="805.655" width="57.5" height="57.5" fill="#F4EDEA"/>
<rect opacity="0.3" x="233.07" y="807.812" width="53.1875" height="53.1875" rx="2.875" fill="#F4EDEA" stroke="#C9C7C6" stroke-width="1.4375"/>
<path d="M264.744 828.994V841.155H262.571V835.877H256.344V841.155H254.153V828.994H256.344V834.083H262.571V828.994H264.744Z" fill="#06BCC1"/>
<rect x="288.414" y="805.655" width="57.5" height="57.5" fill="#F4EDEA"/>
<rect opacity="0.3" x="290.57" y="807.812" width="53.1875" height="53.1875" rx="2.875" fill="#F4EDEA" stroke="#C9C7C6" stroke-width="1.4375"/>
<path d="M316.331 828.994H318.556V841.155H316.331V828.994Z" fill="#06BCC1"/>
<rect x="345.914" y="805.655" width="57.5" height="57.5" fill="#F4EDEA"/>
<rect opacity="0.3" x="348.07" y="807.812" width="53.1875" height="53.1875" rx="2.875" fill="#F4EDEA" stroke="#C9C7C6" stroke-width="1.4375"/>
<path d="M373.83 830.823H369.863V828.994H380.023V830.823H376.056V841.155H373.83V830.823Z" fill="#06BCC1"/>
<rect x="403.414" y="805.655" width="57.5" height="57.5" fill="#F4EDEA"/>
<rect opacity="0.3" x="405.57" y="807.812" width="53.1875" height="53.1875" rx="2.875" fill="#F4EDEA" stroke="#C9C7C6" stroke-width="1.4375"/>
<path d="M428.677 828.994H436.819V830.754H430.851V834.1H436.474V835.842H430.851V839.396H436.819V841.155H428.677V828.994Z" fill="#06BCC1"/>
<rect x="460.914" y="805.655" width="57.5" height="57.5" fill="#F4EDEA"/>
<rect x="463.07" y="807.812" width="53.1875" height="53.1875" rx="2.875" fill="#06BCC1"/>
<rect x="518.414" y="805.655" width="57.5" height="57.5" fill="#F4EDEA"/>
<rect x="520.57" y="807.812" width="53.1875" height="53.1875" rx="2.875" fill="#06BCC1"/>
<rect x="575.914" y="805.655" width="57.5" height="57.5" fill="#F4EDEA"/>
<rect x="578.07" y="807.812" width="53.1875" height="53.1875" rx="2.875" fill="#06BCC1"/>
<rect x="633.414" y="805.655" width="57.5" height="57.5" fill="#F4EDEA"/>
<rect x="635.57" y="807.812" width="53.1875" height="53.1875" rx="2.875" fill="#06BCC1"/>
<rect x="690.914" y="805.655" width="57.5" height="57.5" fill="#F4EDEA"/>
<rect x="693.07" y="807.812" width="53.1875" height="53.1875" rx="2.875" fill="#06BCC1"/>
<rect x="748.414" y="805.655" width="57.5" height="57.5" fill="#F4EDEA"/>
<rect x="750.57" y="807.812" width="53.1875" height="53.1875" rx="2.875" fill="#06BCC1"/>
<rect x="805.914" y="805.655" width="57.5" height="57.5" fill="#F4EDEA"/>
<rect x="808.07" y="807.812" width="53.1875" height="53.1875" rx="2.875" fill="#06BCC1"/>
<rect x="58.4141" y="863.155" width="57.5" height="57.5" fill="#F4EDEA"/>
<rect x="60.5703" y="865.312" width="53.1875" height="53.1875" rx="2.875" fill="#06BCC1"/>
<rect x="115.914" y="863.155" width="57.5" height="57.5" fill="#F4EDEA"/>
<rect x="118.07" y="865.312" width="53.1875" height="53.1875" rx="2.875" fill="#06BCC1"/>
<rect x="173.414" y="863.155" width="57.5" height="57.5" fill="#F4EDEA"/>
<rect opacity="0.3" x="175.57" y="865.312" width="53.1875" height="53.1875" rx="2.875" fill="#F4EDEA" stroke="#C9C7C6" stroke-width="1.4375"/>
<path d="M207.577 886.494V898.655H205.903L199.383 890.168V898.655H197.313V886.494H198.969L205.489 894.964V886.494H207.577Z" fill="#06BCC1"/>
<rect x="230.914" y="863.155" width="57.5" height="57.5" fill="#F4EDEA"/>
<rect x="233.07" y="865.312" width="53.1875" height="53.1875" rx="2.875" fill="#06BCC1"/>
<rect x="288.414" y="863.155" width="57.5" height="57.5" fill="#F4EDEA"/>
<rect x="290.57" y="865.312" width="53.1875" height="53.1875" rx="2.875" fill="#06BCC1"/>
<rect x="345.914" y="863.155" width="57.5" height="57.5" fill="#F4EDEA"/>
<rect x="348.07" y="865.312" width="53.1875" height="53.1875" rx="2.875" fill="#06BCC1"/>
<rect x="403.414" y="863.155" width="57.5" height="57.5" fill="#F4EDEA"/>
<rect x="405.57" y="865.312" width="53.1875" height="53.1875" rx="2.875" fill="#06BCC1"/>
<rect x="460.914" y="863.155" width="57.5" height="57.5" fill="#F4EDEA"/>
<rect x="463.07" y="865.312" width="53.1875" height="53.1875" rx="2.875" fill="#06BCC1"/>
<rect x="518.414" y="863.155" width="57.5" height="57.5" fill="#F4EDEA"/>
<rect x="520.57" y="865.312" width="53.1875" height="53.1875" rx="2.875" fill="#06BCC1"/>
<rect x="575.914" y="863.155" width="57.5" height="57.5" fill="#F4EDEA"/>
<rect x="578.07" y="865.312" width="53.1875" height="53.1875" rx="2.875" fill="#06BCC1"/>
<rect x="633.414" y="863.155" width="57.5" height="57.5" fill="#F4EDEA"/>
<rect x="635.57" y="865.312" width="53.1875" height="53.1875" rx="2.875" fill="#06BCC1"/>
<rect x="690.914" y="863.155" width="57.5" height="57.5" fill="#F4EDEA"/>
<rect x="693.07" y="865.312" width="53.1875" height="53.1875" rx="2.875" fill="#06BCC1"/>
<rect x="748.414" y="863.155" width="57.5" height="57.5" fill="#F4EDEA"/>
<rect x="750.57" y="865.312" width="53.1875" height="53.1875" rx="2.875" fill="#06BCC1"/>
<rect x="805.914" y="863.155" width="57.5" height="57.5" fill="#F4EDEA"/>
<rect x="808.07" y="865.312" width="53.1875" height="53.1875" rx="2.875" fill="#06BCC1"/>
<rect x="59.1328" y="58.8738" width="803.562" height="861.062" stroke="white" stroke-width="1.4375"/>
<rect x="58.4141" y="0.655029" width="57.5" height="57.5" fill="#F4EDEA"/>
<rect opacity="0.3" x="60.5703" y="2.81128" width="53.1875" height="53.1875" rx="2.875" fill="#F4EDEA" stroke="#C9C7C6" stroke-width="1.4375"/>
<path opacity="0.3" d="M90.4279 33.3088H84.5112L83.2864 36.155H81.0439L86.5467 23.9938H88.3579L93.8607 36.155H91.6527L90.4279 33.3088ZM89.6862 31.5838L87.4609 26.4088L85.2357 31.5838H89.6862Z" fill="#06BCC1"/>
<rect x="115.914" y="0.655029" width="57.5" height="57.5" fill="#F4EDEA"/>
<rect opacity="0.3" x="118.07" y="2.81128" width="53.1875" height="53.1875" rx="2.875" fill="#F4EDEA" stroke="#C9C7C6" stroke-width="1.4375"/>
<path opacity="0.3" d="M147.355 29.876C148.057 30.0715 148.597 30.428 148.977 30.9455C149.368 31.463 149.563 32.0955 149.563 32.843C149.563 33.878 149.189 34.6888 148.442 35.2753C147.706 35.8618 146.688 36.155 145.389 36.155H139.869V23.9938H145.216C146.481 23.9938 147.47 24.2755 148.183 24.839C148.908 25.391 149.27 26.1673 149.27 27.1678C149.27 27.8118 149.097 28.3695 148.752 28.841C148.419 29.3125 147.953 29.6575 147.355 29.876ZM142.042 29.117H144.854C146.383 29.117 147.148 28.5478 147.148 27.4093C147.148 26.8343 146.958 26.4088 146.579 26.1328C146.199 25.8568 145.624 25.7188 144.854 25.7188H142.042V29.117ZM145.147 34.43C145.952 34.43 146.539 34.2863 146.907 33.9988C147.275 33.7113 147.459 33.2628 147.459 32.6533C147.459 32.0438 147.269 31.5895 146.889 31.2905C146.521 30.9915 145.941 30.842 145.147 30.842H142.042V34.43H145.147Z" fill="#06BCC1"/>
<rect x="173.414" y="0.655029" width="57.5" height="57.5" fill="#F4EDEA"/>
<rect opacity="0.3" x="175.57" y="2.81128" width="53.1875" height="53.1875" rx="2.875" fill="#F4EDEA" stroke="#C9C7C6" stroke-width="1.4375"/>
<path opacity="0.3" d="M202.931 36.3103C201.735 36.3103 200.688 36.0573 199.791 35.5513C198.906 35.0338 198.222 34.3035 197.739 33.3605C197.267 32.4175 197.031 31.3193 197.031 30.0658C197.031 28.8123 197.267 27.7198 197.739 26.7883C198.222 25.8453 198.906 25.1208 199.791 24.6148C200.688 24.0973 201.735 23.8385 202.931 23.8385C203.747 23.8385 204.518 23.965 205.242 24.218C205.967 24.471 206.576 24.8275 207.071 25.2875L206.329 26.909C205.777 26.472 205.231 26.1558 204.69 25.9603C204.15 25.7533 203.575 25.6498 202.965 25.6498C201.792 25.6498 200.884 26.0293 200.24 26.7883C199.607 27.5473 199.291 28.6398 199.291 30.0658C199.291 31.5033 199.607 32.6015 200.24 33.3605C200.884 34.1195 201.792 34.499 202.965 34.499C203.575 34.499 204.15 34.4013 204.69 34.2058C205.231 33.9988 205.777 33.6768 206.329 33.2398L207.071 34.8613C206.576 35.3213 205.967 35.6778 205.242 35.9308C204.518 36.1838 203.747 36.3103 202.931 36.3103Z" fill="#06BCC1"/>
<rect x="230.914" y="0.655029" width="57.5" height="57.5" fill="#F4EDEA"/>
<rect opacity="0.3" x="233.07" y="2.81128" width="53.1875" height="53.1875" rx="2.875" fill="#F4EDEA" stroke="#C9C7C6" stroke-width="1.4375"/>
<path opacity="0.3" d="M254.254 23.9938H258.739C260.728 23.9938 262.269 24.5285 263.362 25.598C264.466 26.656 265.018 28.1453 265.018 30.0658C265.018 31.9863 264.466 33.4813 263.362 34.5508C262.269 35.6203 260.728 36.155 258.739 36.155H254.254V23.9938ZM258.601 34.3438C261.395 34.3438 262.793 32.9178 262.793 30.0658C262.793 27.2253 261.395 25.805 258.601 25.805H256.479V34.3438H258.601Z" fill="#06BCC1"/>
<rect x="288.414" y="0.655029" width="57.5" height="57.5" fill="#F4EDEA"/>
<rect opacity="0.3" x="290.57" y="2.81128" width="53.1875" height="53.1875" rx="2.875" fill="#F4EDEA" stroke="#C9C7C6" stroke-width="1.4375"/>
<path opacity="0.3" d="M313.677 23.9938H321.819V25.7533H315.851V29.0998H321.474V30.842H315.851V34.3955H321.819V36.155H313.677V23.9938Z" fill="#06BCC1"/>
<rect x="345.914" y="0.655029" width="57.5" height="57.5" fill="#F4EDEA"/>
<rect opacity="0.3" x="348.07" y="2.81128" width="53.1875" height="53.1875" rx="2.875" fill="#F4EDEA" stroke="#C9C7C6" stroke-width="1.4375"/>
<path opacity="0.3" d="M370.871 23.9938H378.841V25.7705H373.062V29.0825H378.496V30.8593H373.062V36.155H370.871V23.9938Z" fill="#06BCC1"/>
<rect x="403.414" y="0.655029" width="57.5" height="57.5" fill="#F4EDEA"/>
<rect opacity="0.3" x="405.57" y="2.81128" width="53.1875" height="53.1875" rx="2.875" fill="#F4EDEA" stroke="#C9C7C6" stroke-width="1.4375"/>
<path opacity="0.3" d="M437.574 29.5828V35.4133C437.022 35.6893 436.349 35.9078 435.556 36.0688C434.774 36.2298 433.974 36.3103 433.158 36.3103C431.904 36.3103 430.818 36.063 429.898 35.5685C428.978 35.0625 428.27 34.3438 427.776 33.4123C427.293 32.4693 427.051 31.3538 427.051 30.0658C427.051 28.7893 427.293 27.6853 427.776 26.7538C428.27 25.8108 428.966 25.092 429.863 24.5975C430.772 24.0915 431.835 23.8385 433.054 23.8385C433.905 23.8385 434.705 23.965 435.452 24.218C436.2 24.4595 436.821 24.8103 437.315 25.2703L436.573 26.8745C436.01 26.4375 435.452 26.127 434.9 25.943C434.36 25.7475 433.762 25.6498 433.106 25.6498C431.853 25.6498 430.904 26.0235 430.26 26.771C429.627 27.507 429.311 28.6053 429.311 30.0658C429.311 33.0558 430.622 34.5508 433.244 34.5508C434.026 34.5508 434.808 34.4415 435.59 34.223V31.1698H432.968V29.5828H437.574Z" fill="#06BCC1"/>
<rect x="460.914" y="0.655029" width="57.5" height="57.5" fill="#F4EDEA"/>
<rect opacity="0.3" x="463.07" y="2.81128" width="53.1875" height="53.1875" rx="2.875" fill="#F4EDEA" stroke="#C9C7C6" stroke-width="1.4375"/>
<path opacity="0.3" d="M494.744 23.9938V36.155H492.571V30.8765H486.344V36.155H484.153V23.9938H486.344V29.0825H492.571V23.9938H494.744Z" fill="#06BCC1"/>
<rect x="518.414" y="0.655029" width="57.5" height="57.5" fill="#F4EDEA"/>
<rect opacity="0.3" x="520.57" y="2.81128" width="53.1875" height="53.1875" rx="2.875" fill="#F4EDEA" stroke="#C9C7C6" stroke-width="1.4375"/>
<path opacity="0.3" d="M546.331 23.9938H548.556V36.155H546.331V23.9938Z" fill="#06BCC1"/>
<rect x="575.914" y="0.655029" width="57.5" height="57.5" fill="#F4EDEA"/>
<rect opacity="0.3" x="578.07" y="2.81128" width="53.1875" height="53.1875" rx="2.875" fill="#F4EDEA" stroke="#C9C7C6" stroke-width="1.4375"/>
<path opacity="0.3" d="M601.751 34.5163L602.958 34.43C603.982 34.361 604.493 33.7975 604.493 32.7395V23.9938H606.719V32.7223C606.719 33.8033 606.431 34.6428 605.856 35.2408C605.293 35.8273 604.447 36.155 603.32 36.224L601.906 36.3103L601.751 34.5163Z" fill="#06BCC1"/>
<rect x="633.414" y="0.655029" width="57.5" height="57.5" fill="#F4EDEA"/>
<rect opacity="0.3" x="635.57" y="2.81128" width="53.1875" height="53.1875" rx="2.875" fill="#F4EDEA" stroke="#C9C7C6" stroke-width="1.4375"/>
<path opacity="0.3" d="M665.428 36.155L659.788 30.497V36.155H657.562V23.9938H659.788V29.4275L665.204 23.9938H667.861L661.978 29.8415L668.137 36.155H665.428Z" fill="#06BCC1"/>
<rect x="690.914" y="0.655029" width="57.5" height="57.5" fill="#F4EDEA"/>
<rect opacity="0.3" x="693.07" y="2.81128" width="53.1875" height="53.1875" rx="2.875" fill="#F4EDEA" stroke="#C9C7C6" stroke-width="1.4375"/>
<path opacity="0.3" d="M715.972 23.9938H718.197V34.3265H723.873V36.155H715.972V23.9938Z" fill="#06BCC1"/>
<rect x="748.414" y="0.655029" width="57.5" height="57.5" fill="#F4EDEA"/>
<rect opacity="0.3" x="750.57" y="2.81128" width="53.1875" height="53.1875" rx="2.875" fill="#F4EDEA" stroke="#C9C7C6" stroke-width="1.4375"/>
<path opacity="0.3" d="M783.372 23.9938V36.155H781.406V28.1165L778.197 34.1885H776.714L773.488 28.2028L773.505 36.155H771.539V23.9938H773.298L777.473 31.946L781.63 23.9938H783.372Z" fill="#06BCC1"/>
<rect x="805.914" y="0.655029" width="57.5" height="57.5" fill="#F4EDEA"/>
<rect opacity="0.3" x="808.07" y="2.81128" width="53.1875" height="53.1875" rx="2.875" fill="#F4EDEA" stroke="#C9C7C6" stroke-width="1.4375"/>
<path opacity="0.3" d="M840.077 23.9938V36.155H838.403L831.883 27.668V36.155H829.813V23.9938H831.469L837.989 32.4635V23.9938H840.077Z" fill="#06BCC1"/>
<rect x="0.914062" y="58.155" width="57.5" height="57.5" fill="#F4EDEA"/>
<rect opacity="0.3" x="3.07031" y="60.3113" width="53.1875" height="53.1875" rx="2.875" fill="#F4EDEA" stroke="#C9C7C6" stroke-width="1.4375"/>
<path opacity="0.3" d="M32.9279 90.8088H27.0112L25.7864 93.655H23.5439L29.0467 81.4938H30.8579L36.3607 93.655H34.1527L32.9279 90.8088ZM32.1862 89.0838L29.9609 83.9088L27.7357 89.0838H32.1862Z" fill="#06BCC1"/>
<rect x="0.914062" y="115.655" width="57.5" height="57.5" fill="#F4EDEA"/>
<rect opacity="0.3" x="3.07031" y="117.811" width="53.1875" height="53.1875" rx="2.875" fill="#F4EDEA" stroke="#C9C7C6" stroke-width="1.4375"/>
<path opacity="0.3" d="M32.3552 144.876C33.0567 145.072 33.5972 145.428 33.9767 145.946C34.3677 146.463 34.5632 147.096 34.5632 147.843C34.5632 148.878 34.1895 149.689 33.442 150.275C32.706 150.862 31.6882 151.155 30.3887 151.155H24.8687L24.8687 138.994H30.2162C31.4812 138.994 32.4702 139.276 33.1832 139.839C33.9077 140.391 34.27 141.167 34.27 142.168C34.27 142.812 34.0975 143.37 33.7525 143.841C33.419 144.313 32.9532 144.658 32.3552 144.876ZM27.0422 144.117H29.854C31.3835 144.117 32.1482 143.548 32.1482 142.409C32.1482 141.834 31.9585 141.409 31.579 141.133C31.1995 140.857 30.6245 140.719 29.854 140.719H27.0422V144.117ZM30.1472 149.43C30.9522 149.43 31.5387 149.286 31.9067 148.999C32.2747 148.711 32.4587 148.263 32.4587 147.653C32.4587 147.044 32.269 146.59 31.8895 146.291C31.5215 145.992 30.9407 145.842 30.1472 145.842H27.0422L27.0422 149.43H30.1472Z" fill="#06BCC1"/>
<rect x="0.914062" y="173.155" width="57.5" height="57.5" fill="#F4EDEA"/>
<rect opacity="0.3" x="3.07031" y="175.311" width="53.1875" height="53.1875" rx="2.875" fill="#F4EDEA" stroke="#C9C7C6" stroke-width="1.4375"/>
<path opacity="0.3" d="M30.4309 208.81C29.2349 208.81 28.1884 208.557 27.2914 208.051C26.4059 207.534 25.7216 206.804 25.2386 205.861C24.7671 204.918 24.5314 203.819 24.5314 202.566C24.5314 201.312 24.7671 200.22 25.2386 199.288C25.7216 198.345 26.4059 197.621 27.2914 197.115C28.1884 196.597 29.2349 196.339 30.4309 196.339C31.2474 196.339 32.0179 196.465 32.7424 196.718C33.4669 196.971 34.0764 197.328 34.5709 197.788L33.8291 199.409C33.2771 198.972 32.7309 198.656 32.1904 198.46C31.6499 198.253 31.0749 198.15 30.4654 198.15C29.2924 198.15 28.3839 198.529 27.7399 199.288C27.1074 200.047 26.7911 201.14 26.7911 202.566C26.7911 204.003 27.1074 205.102 27.7399 205.861C28.3839 206.62 29.2924 206.999 30.4654 206.999C31.0749 206.999 31.6499 206.901 32.1904 206.706C32.7309 206.499 33.2771 206.177 33.8291 205.74L34.5709 207.361C34.0764 207.821 33.4669 208.178 32.7424 208.431C32.0179 208.684 31.2474 208.81 30.4309 208.81Z" fill="#06BCC1"/>
<rect x="0.914062" y="230.655" width="57.5" height="57.5" fill="#F4EDEA"/>
<rect opacity="0.3" x="3.07031" y="232.812" width="53.1875" height="53.1875" rx="2.875" fill="#F4EDEA" stroke="#C9C7C6" stroke-width="1.4375"/>
<path opacity="0.3" d="M24.2539 253.994H28.7389C30.7284 253.994 32.2694 254.529 33.3619 255.598C34.4659 256.656 35.0179 258.146 35.0179 260.066C35.0179 261.987 34.4659 263.482 33.3619 264.551C32.2694 265.621 30.7284 266.155 28.7389 266.155H24.2539L24.2539 253.994ZM28.6009 264.344C31.3954 264.344 32.7926 262.918 32.7926 260.066C32.7926 257.226 31.3954 255.805 28.6009 255.805H26.4791L26.4791 264.344H28.6009Z" fill="#06BCC1"/>
<rect x="0.914062" y="288.155" width="57.5" height="57.5" fill="#F4EDEA"/>
<rect opacity="0.3" x="3.07031" y="290.312" width="53.1875" height="53.1875" rx="2.875" fill="#F4EDEA" stroke="#C9C7C6" stroke-width="1.4375"/>
<path opacity="0.3" d="M26.1773 311.494H34.3193V313.254H28.3508V316.6H33.9743V318.342H28.3508L28.3508 321.896H34.3193V323.655H26.1773L26.1773 311.494Z" fill="#06BCC1"/>
<rect x="0.914062" y="345.655" width="57.5" height="57.5" fill="#F4EDEA"/>
<rect opacity="0.3" x="3.07031" y="347.812" width="53.1875" height="53.1875" rx="2.875" fill="#F4EDEA" stroke="#C9C7C6" stroke-width="1.4375"/>
<path opacity="0.3" d="M25.8711 368.994H33.8406V370.771H28.0618V374.083H33.4956V375.86H28.0618L28.0618 381.155H25.8711L25.8711 368.994Z" fill="#06BCC1"/>
<rect x="0.914062" y="403.155" width="57.5" height="57.5" fill="#F4EDEA"/>
<rect opacity="0.3" x="3.07031" y="405.312" width="53.1875" height="53.1875" rx="2.875" fill="#F4EDEA" stroke="#C9C7C6" stroke-width="1.4375"/>
<path opacity="0.3" d="M35.0738 432.083V437.914C34.5218 438.19 33.849 438.408 33.0555 438.569C32.2735 438.73 31.4743 438.811 30.6578 438.811C29.4043 438.811 28.3175 438.563 27.3975 438.069C26.4775 437.563 25.7703 436.844 25.2758 435.913C24.7928 434.97 24.5513 433.854 24.5513 432.566C24.5513 431.29 24.7928 430.186 25.2758 429.254C25.7703 428.311 26.466 427.592 27.363 427.098C28.2715 426.592 29.3353 426.339 30.5543 426.339C31.4053 426.339 32.2045 426.465 32.952 426.718C33.6995 426.96 34.3205 427.311 34.815 427.771L34.0733 429.375C33.5098 428.938 32.952 428.627 32.4 428.443C31.8595 428.248 31.2615 428.15 30.606 428.15C29.3525 428.15 28.4038 428.524 27.7598 429.271C27.1273 430.007 26.811 431.106 26.811 432.566C26.811 435.556 28.122 437.051 30.744 437.051C31.526 437.051 32.308 436.942 33.09 436.723V433.67H30.468V432.083H35.0738Z" fill="#06BCC1"/>
<rect x="0.914062" y="460.655" width="57.5" height="57.5" fill="#F4EDEA"/>
<rect opacity="0.3" x="3.07031" y="462.812" width="53.1875" height="53.1875" rx="2.875" fill="#F4EDEA" stroke="#C9C7C6" stroke-width="1.4375"/>
<path opacity="0.3" d="M34.7443 483.994V496.155H32.5708V490.877H26.3435L26.3435 496.155H24.1528L24.1528 483.994H26.3435V489.083H32.5708V483.994H34.7443Z" fill="#06BCC1"/>
<rect x="0.914062" y="518.155" width="57.5" height="57.5" fill="#F4EDEA"/>
<rect opacity="0.3" x="3.07031" y="520.312" width="53.1875" height="53.1875" rx="2.875" fill="#F4EDEA" stroke="#C9C7C6" stroke-width="1.4375"/>
<path opacity="0.3" d="M28.8305 541.494H31.0558L31.0558 553.655H28.8305L28.8305 541.494Z" fill="#06BCC1"/>
<rect x="0.914062" y="575.655" width="57.5" height="57.5" fill="#F4EDEA"/>
<rect opacity="0.3" x="3.07031" y="577.812" width="53.1875" height="53.1875" rx="2.875" fill="#F4EDEA" stroke="#C9C7C6" stroke-width="1.4375"/>
<path opacity="0.3" d="M26.7506 609.517L27.9581 609.43C28.9816 609.361 29.4934 608.798 29.4934 607.74L29.4934 598.994H31.7186L31.7186 607.723C31.7186 608.804 31.4311 609.643 30.8561 610.241C30.2926 610.828 29.4474 611.155 28.3204 611.224L26.9059 611.311L26.7506 609.517Z" fill="#06BCC1"/>
<rect x="0.914062" y="633.155" width="57.5" height="57.5" fill="#F4EDEA"/>
<rect opacity="0.3" x="3.07031" y="635.312" width="53.1875" height="53.1875" rx="2.875" fill="#F4EDEA" stroke="#C9C7C6" stroke-width="1.4375"/>
<path opacity="0.3" d="M32.9285 668.655L27.2877 662.997L27.2877 668.655H25.0625L25.0625 656.494H27.2877V661.928L32.7042 656.494H35.3607L29.4785 662.342L35.6367 668.655H32.9285Z" fill="#06BCC1"/>
<rect x="0.914062" y="690.655" width="57.5" height="57.5" fill="#F4EDEA"/>
<rect opacity="0.3" x="3.07031" y="692.812" width="53.1875" height="53.1875" rx="2.875" fill="#F4EDEA" stroke="#C9C7C6" stroke-width="1.4375"/>
<path opacity="0.3" d="M25.9721 713.994H28.1974L28.1974 724.327H33.8726V726.155H25.9721L25.9721 713.994Z" fill="#06BCC1"/>
<rect x="0.914062" y="748.155" width="57.5" height="57.5" fill="#F4EDEA"/>
<rect opacity="0.3" x="3.07031" y="750.312" width="53.1875" height="53.1875" rx="2.875" fill="#F4EDEA" stroke="#C9C7C6" stroke-width="1.4375"/>
<path opacity="0.3" d="M35.8722 771.494V783.655H33.9057V775.617L30.6972 781.689H29.2137L25.988 775.703L26.0052 783.655H24.0387L24.0387 771.494H25.7982L29.9727 779.446L34.13 771.494H35.8722Z" fill="#06BCC1"/>
<rect x="0.914062" y="805.655" width="57.5" height="57.5" fill="#F4EDEA"/>
<rect opacity="0.3" x="3.07031" y="807.812" width="53.1875" height="53.1875" rx="2.875" fill="#F4EDEA" stroke="#C9C7C6" stroke-width="1.4375"/>
<path opacity="0.3" d="M35.0766 828.994V841.155H33.4033L26.8828 832.668L26.8828 841.155H24.8128L24.8128 828.994H26.4688L32.9893 837.464V828.994H35.0766Z" fill="#06BCC1"/>
<rect x="0.914062" y="863.155" width="57.5" height="57.5" fill="#F4EDEA"/>
<rect opacity="0.3" x="3.07031" y="865.312" width="53.1875" height="53.1875" rx="2.875" fill="#F4EDEA" stroke="#C9C7C6" stroke-width="1.4375"/>
<path opacity="0.3" d="M29.9487 898.811C28.5112 898.811 27.4129 898.282 26.6539 897.224C25.8949 896.154 25.5154 894.602 25.5154 892.566C25.5154 890.554 25.8949 889.018 26.6539 887.96C27.4129 886.902 28.5112 886.373 29.9487 886.373C31.3862 886.373 32.4844 886.902 33.2434 887.96C34.0024 889.018 34.3819 890.554 34.3819 892.566C34.3819 894.59 34.0024 896.137 33.2434 897.206C32.4844 898.276 31.3862 898.811 29.9487 898.811ZM29.9487 897.068C30.7307 897.068 31.2999 896.712 31.6564 895.999C32.0129 895.274 32.1912 894.13 32.1912 892.566C32.1912 891.014 32.0129 889.887 31.6564 889.185C31.2999 888.472 30.7307 888.116 29.9487 888.116C29.1667 888.116 28.5974 888.472 28.2409 889.185C27.8844 889.887 27.7062 891.014 27.7062 892.566C27.7062 894.13 27.8844 895.274 28.2409 895.999C28.5974 896.712 29.1667 897.068 29.9487 897.068Z" fill="#06BCC1"/>
</g>
</svg>
