<svg width="801" height="136" viewBox="0 0 801 136" fill="none" xmlns="http://www.w3.org/2000/svg">
<path d="M26.9438 112.995V46.1464H0V28.0793H76.0201V46.1464H49.0762V112.995H26.9438Z" fill="#12263A"/>
<path d="M82.943 112.995V28.0793H104.354V61.0818C108.604 55.3003 114.778 52.4096 122.878 52.4096C129.934 52.4096 135.147 54.4974 138.515 58.6729C141.963 62.8484 143.687 69.2722 143.687 77.9444V112.995H122.276V78.7876C122.276 75.1741 121.635 72.6046 120.352 71.0789C119.149 69.5533 117.344 68.7904 114.939 68.7904C111.731 68.7904 109.165 69.8343 107.241 71.9221C105.316 73.9295 104.354 76.6597 104.354 80.1125V112.995H82.943Z" fill="#12263A"/>
<path d="M188.126 114.319C180.908 114.319 174.654 113.075 169.361 110.586C164.149 108.016 160.139 104.403 157.333 99.7454C154.526 95.0881 153.123 89.5877 153.123 83.2441C153.123 77.2217 154.446 71.8819 157.092 67.2246C159.819 62.5673 163.507 58.9539 168.158 56.3844C172.889 53.7345 178.262 52.4096 184.276 52.4096C190.211 52.4096 195.343 53.6542 199.673 56.1435C204.083 58.6327 207.451 62.206 209.777 66.8633C212.183 71.4403 213.385 76.8202 213.385 83.0032V87.7007H173.571C174.293 91.555 175.897 94.3253 178.382 96.0115C180.868 97.6978 184.317 98.5409 188.727 98.5409C191.774 98.5409 194.942 98.0993 198.229 97.216C201.597 96.2524 204.564 94.8873 207.131 93.1208L212.423 107.213C209.376 109.381 205.647 111.108 201.237 112.392C196.826 113.677 192.456 114.319 188.126 114.319ZM185.239 66.261C182.031 66.261 179.385 67.2246 177.3 69.1518C175.295 71.0789 174.012 73.8894 173.451 77.5831H195.824C195.583 73.8091 194.541 70.9986 192.696 69.1518C190.932 67.2246 188.446 66.261 185.239 66.261Z" fill="#12263A"/>
<path d="M268.197 112.995V51.0228H253.437V34.8042H268.197C268.726 23.7855 272.271 15.5215 278.831 10.0122C285.39 4.39688 295.336 1.21841 308.668 0.476774L318.19 0L319.507 15.4741L311.154 16.3106C303.636 17.147 298.31 18.5685 295.283 20.911C292.255 23.2534 289.018 28.0207 289.018 31.7847V34.8042H316.127V51.0228H289.018V112.995H268.197Z" fill="#12263A"/>
<path d="M343.692 114.319C337.116 114.319 331.383 113.075 326.491 110.586C321.6 108.096 317.791 104.523 315.064 99.8658C312.338 95.2085 310.974 89.7081 310.974 83.3645C310.974 76.9407 312.338 71.4403 315.064 66.8633C317.791 62.206 321.6 58.6327 326.491 56.1435C331.383 53.6542 337.116 52.4096 343.692 52.4096C350.267 52.4096 356.001 53.6542 360.893 56.1435C365.784 58.6327 369.553 62.206 372.199 66.8633C374.926 71.4403 376.289 76.9407 376.289 83.3645C376.289 89.7081 374.926 95.2085 372.199 99.8658C369.553 104.523 365.784 108.096 360.893 110.586C356.001 113.075 350.267 114.319 343.692 114.319ZM343.692 98.5409C346.899 98.5409 349.546 97.3364 351.631 94.9275C353.716 92.5185 354.758 88.6642 354.758 83.3645C354.758 77.9846 353.716 74.1303 351.631 71.8016C349.546 69.3927 346.899 68.1882 343.692 68.1882C340.404 68.1882 337.718 69.3927 335.633 71.8016C333.548 74.1303 332.505 77.9846 332.505 83.3645C332.505 88.6642 333.548 92.5185 335.633 94.9275C337.718 97.3364 340.404 98.5409 343.692 98.5409Z" fill="#12263A"/>
<path d="M386.1 112.995V53.7345H406.909V63.7316C409.636 56.9063 415.53 53.1724 424.591 52.5301L430.485 52.0483L431.688 70.1154L420.02 71.1994C415.77 71.6009 412.683 72.8053 410.758 74.8128C408.834 76.74 407.871 79.6307 407.871 83.485V112.995H386.1Z" fill="#12263A"/>
<path d="M569.799 136C563.865 136 558.292 135.438 553.08 134.314C547.948 133.19 543.537 131.343 539.848 128.773L545.381 114.319C548.429 116.166 552.037 117.612 556.207 118.656C560.457 119.699 564.306 120.221 567.754 120.221C572.646 120.221 576.295 119.178 578.7 117.09C581.186 115.082 582.429 111.911 582.429 107.574V102.034C580.745 104.925 578.219 107.213 574.851 108.899C571.483 110.586 567.875 111.429 564.026 111.429C558.733 111.429 554.122 110.224 550.193 107.815C546.264 105.326 543.176 101.873 540.931 97.4569C538.766 93.0405 537.683 87.8612 537.683 81.9192C537.683 75.9771 538.766 70.7979 540.931 66.3815C543.176 61.9651 546.264 58.5524 550.193 56.1435C554.122 53.6542 558.733 52.4096 564.026 52.4096C568.035 52.4096 571.684 53.2929 574.972 55.0594C578.34 56.7457 580.785 58.9941 582.309 61.8045V53.7345H603.238V105.045C603.238 115.404 600.352 123.152 594.578 128.291C588.804 133.43 580.545 136 569.799 136ZM570.641 95.6502C574.17 95.6502 576.976 94.4457 579.061 92.0368C581.146 89.6278 582.189 86.2553 582.189 81.9192C582.189 77.5831 581.146 74.2106 579.061 71.8016C576.976 69.3927 574.17 68.1882 570.641 68.1882C567.193 68.1882 564.427 69.3927 562.342 71.8016C560.257 74.2106 559.214 77.5831 559.214 81.9192C559.214 86.2553 560.257 89.6278 562.342 92.0368C564.427 94.4457 567.193 95.6502 570.641 95.6502Z" fill="#12263A"/>
<path d="M615.745 112.995V53.7345H636.555V61.8045C638.64 58.7532 641.326 56.4245 644.614 54.8186C647.901 53.2126 651.59 52.4096 655.68 52.4096C662.737 52.4096 667.949 54.4974 671.317 58.6729C674.765 62.8484 676.489 69.2722 676.489 77.9444V112.995H655.078V78.7876C655.078 75.1741 654.437 72.6046 653.154 71.0789C651.951 69.5533 650.147 68.7904 647.741 68.7904C644.533 68.7904 641.967 69.8343 640.043 71.9221C638.118 73.9295 637.156 76.6597 637.156 80.1125V112.995H615.745Z" fill="#12263A"/>
<path d="M720.928 114.319C713.711 114.319 707.456 113.075 702.163 110.586C696.951 108.016 692.942 104.403 690.135 99.7454C687.328 95.0881 685.925 89.5877 685.925 83.2441C685.925 77.2217 687.248 71.8819 689.894 67.2246C692.621 62.5673 696.31 58.9539 700.961 56.3844C705.692 53.7345 711.065 52.4096 717.079 52.4096C723.013 52.4096 728.145 53.6542 732.475 56.1435C736.886 58.6327 740.254 62.206 742.579 66.8633C744.985 71.4403 746.188 76.8202 746.188 83.0032V87.7007H706.373C707.095 91.555 708.699 94.3253 711.185 96.0115C713.671 97.6978 717.119 98.5409 721.529 98.5409C724.576 98.5409 727.744 98.0993 731.032 97.216C734.4 96.2524 737.367 94.8873 739.933 93.1208L745.225 107.213C742.178 109.381 738.449 111.108 734.039 112.392C729.628 113.677 725.258 114.319 720.928 114.319ZM718.041 66.261C714.833 66.261 712.187 67.2246 710.102 69.1518C708.097 71.0789 706.814 73.8894 706.253 77.5831H728.626C728.386 73.8091 727.343 70.9986 725.499 69.1518C723.734 67.2246 721.249 66.261 718.041 66.261Z" fill="#12263A"/>
<path d="M755.412 112.995V53.7345H776.221V63.7316C778.948 56.9063 784.842 53.1724 793.903 52.5301L799.797 52.0483L801 70.1154L789.332 71.1994C785.082 71.6009 781.995 72.8053 780.07 74.8128C778.146 76.74 777.184 79.6307 777.184 83.485V112.995H755.412Z" fill="#12263A"/>
<path fill-rule="evenodd" clip-rule="evenodd" d="M458.823 114.319C454.252 114.319 450.203 113.476 446.675 111.79C443.226 110.104 440.5 107.815 438.495 104.925C436.571 101.954 435.608 98.5811 435.608 94.807C435.608 90.5512 436.731 87.1787 438.976 84.6895C441.222 82.1199 444.83 80.3132 449.802 79.2693C454.774 78.1452 461.389 77.5831 469.649 77.5831H474.22V75.8968C474.22 73.0061 473.458 70.9585 471.934 69.754C470.491 68.5495 467.965 67.9473 464.356 67.9473C461.309 67.9473 457.941 68.4291 454.252 69.3927C450.564 70.3563 446.955 71.8418 443.427 73.8492L438.014 59.7569C440.019 58.3115 442.585 57.0268 445.712 55.9026C448.84 54.7784 452.127 53.9353 455.576 53.3732C459.024 52.7308 462.271 52.4096 465.319 52.4096C475.182 52.4096 482.479 54.5375 487.211 58.7933C492.022 63.0491 494.428 69.754 494.428 78.908V112.995H474.46V104.563C473.418 107.615 471.533 110.024 468.807 111.79C466.081 113.476 462.753 114.319 458.823 114.319ZM471.092 97.4569C469.088 99.384 466.602 100.348 463.635 100.348C461.149 100.348 459.224 99.7454 457.861 98.5409C456.578 97.3364 455.936 95.8108 455.936 93.9639C455.936 91.7959 457.019 90.23 459.184 89.2665C461.429 88.2226 464.918 87.7007 469.649 87.7007H474.22V89.8687C474.22 93.0003 473.177 95.5297 471.092 97.4569Z" fill="#06BCC1"/>
<path fill-rule="evenodd" clip-rule="evenodd" d="M506.018 24.1045V43.4965H528.512V24.1045H506.018Z" fill="#06BCC1"/>
<path d="M506.62 112.995V53.7345H528.03V112.995H506.62Z" fill="#06BCC1"/>
</svg>
