<svg width="807" height="677" viewBox="0 0 807 677" fill="none" xmlns="http://www.w3.org/2000/svg">
<g clip-path="url(#clip0_406_8209)">
<path d="M454.896 618.612L472.317 422.632C472.647 419.695 474.047 416.982 476.25 415.012C478.453 413.042 481.305 411.953 484.26 411.953C487.215 411.953 490.066 413.042 492.27 415.012C494.473 416.982 495.873 419.695 496.202 422.632L518.277 618.612" stroke="#FFB000" stroke-width="5" stroke-miterlimit="10" stroke-linecap="round"/>
<path d="M334.353 618.612L351.773 422.632C352.103 419.695 353.503 416.982 355.706 415.012C357.909 413.042 360.761 411.953 363.716 411.953C366.671 411.953 369.523 413.042 371.726 415.012C373.929 416.982 375.329 419.695 375.658 422.632L397.733 618.612" stroke="#FFB000" stroke-width="5" stroke-miterlimit="10" stroke-linecap="round"/>
<path d="M524.374 399.795C524.374 408.672 479.433 415.869 423.993 415.869C368.552 415.869 323.606 408.667 323.606 399.795C323.606 398.273 324.924 396.802 327.39 395.41C339.314 388.664 378.051 383.721 423.993 383.721C469.934 383.721 508.666 388.65 520.59 395.41C523.057 396.802 524.374 398.273 524.374 399.795Z" fill="#DBDAFF"/>
<path d="M520.591 395.41C509.974 403.254 470.754 409.072 423.993 409.072C377.232 409.072 338.002 403.254 327.391 395.41C339.315 388.664 378.051 383.721 423.993 383.721C469.934 383.721 508.667 388.65 520.591 395.41Z" fill="white"/>
<path d="M423.988 415.869C479.427 415.869 524.369 408.672 524.369 399.795C524.369 390.917 479.427 383.721 423.988 383.721C368.549 383.721 323.606 390.917 323.606 399.795C323.606 408.672 368.549 415.869 423.988 415.869Z" stroke="#6562CF" stroke-width="5" stroke-miterlimit="10"/>
<path d="M400.708 156.204C400.708 156.204 398.408 211.795 393.619 221.999C388.83 232.203 360.481 279.183 349.311 278.093C328.172 275.999 297.906 176.929 294.206 164.555C292.395 161.599 290.482 159.691 287.359 158.243C272.257 151.172 269.613 145.376 266.453 140.214L264.182 124.978C271.079 120.932 276.669 132.244 278.526 134.925C283.459 142.048 289.733 140.335 291.972 140.046C295.267 139.609 290.32 135.656 288.425 132.077C285.693 126.914 289.24 123.939 289.24 123.939C289.919 126.658 301.341 139.064 304.985 143.328C308.336 147.243 308.019 155.399 307.945 156.716C312.506 163.661 347.715 223.982 347.715 223.982C347.715 223.982 367.57 176.351 375.64 167.497C381.504 161.092 395.118 158.019 400.708 156.204Z" fill="#FFD1CB"/>
<path d="M273.844 140.339C273.844 140.339 272.871 134.948 269.753 132.043C269.753 132.043 268.738 126.061 264.698 125.061" stroke="#EEB9AF" stroke-width="3" stroke-miterlimit="10" stroke-linecap="round"/>
<path d="M276.958 139.082C276.958 139.082 275.724 133.765 272.466 130.996C272.466 130.996 269.115 122.779 264.745 125.037" stroke="#EEB9AF" stroke-width="3" stroke-miterlimit="10" stroke-linecap="round"/>
<path d="M359.094 620.011H353.547L353.826 604.649L346.994 620.011H304.887C304.887 620.011 304.147 611.315 311.091 610.11C316.969 609.085 322.559 602.894 322.559 602.894L351.331 575.057C353.914 578.19 361.263 585.763 361.57 597.62C361.689 605.158 360.857 612.681 359.094 620.011Z" fill="#FFB000"/>
<path d="M296.17 360.507C287.113 361.74 273.043 377.977 284.13 410C295.216 442.022 336.285 565.401 335.875 574.674C335.33 587.061 322.559 602.884 322.559 602.884C322.559 602.884 336.154 610.006 344.294 598.532C352.435 587.057 351.332 575.047 351.332 575.047C351.332 575.047 354.613 474.571 342.489 411.438C336.918 382.516 312.45 358.286 296.17 360.507Z" fill="#FFD1CB"/>
<path d="M346.314 437.754C342.721 437.866 339.044 437.866 335.316 437.731C315.596 437.028 300.433 432.41 290.273 428.035C289.342 425.307 288.49 422.746 287.681 420.377C297.771 424.176 313.842 428.589 335.316 429.352C338.255 429.461 341.151 429.512 344.006 429.506C344.75 432.117 345.523 434.873 346.314 437.754Z" fill="#F3C2B9"/>
<path d="M401.196 620.011H395.648L395.923 604.677L386.764 620.011H346.058C346.058 620.011 345.318 611.315 352.262 610.11C358.14 609.085 364.661 602.894 364.661 602.894L393.433 575.057C396.016 578.19 403.365 585.763 403.672 597.62C403.788 605.158 402.956 612.68 401.196 620.011Z" fill="#FFC440"/>
<path d="M341.991 361.159C334.665 366.619 327.223 378.909 338.304 410.931C349.386 442.954 378.717 565.42 377.977 574.674C377.237 583.929 364.661 602.884 364.661 602.884C364.661 602.884 378.256 610.007 386.396 598.532C394.536 587.057 393.433 575.047 393.433 575.047C393.433 575.047 413.758 482.96 402.23 421.703C395.923 388.07 362.343 345.983 341.991 361.159Z" fill="#FFD1CB"/>
<path d="M403.198 427.313C394.727 430.245 372.769 436.921 346.482 437.749H346.314C345.523 434.868 344.751 432.112 343.987 429.5C363.657 429.447 383.266 427.321 402.49 423.16C402.76 424.533 402.984 425.916 403.198 427.313Z" fill="#F3C2B9"/>
<path d="M275.236 414.608C275.236 414.608 267.859 372.554 296.719 353.957C325.58 335.36 409.858 320.049 406.191 301.135L480.015 299.469C480.015 299.469 496.71 323.81 499.414 349.632C502.551 379.523 495.793 402.114 434.721 401.988C401.946 401.918 406.47 422.215 406.47 422.215C406.47 422.215 374.23 430.743 335.312 429.351C296.394 427.959 275.236 414.608 275.236 414.608Z" fill="#424D76"/>
<path d="M414.977 150.711C410.584 151.707 400.707 156.199 400.707 156.199C400.707 156.199 387.21 207.405 383.952 214.29C380.694 221.175 378.567 232.254 392.33 242.137L406.292 302.025H480.038C480.038 302.025 485.726 239.442 489.621 217.582C493.517 195.721 488.648 153.904 488.648 153.904L461.338 150.711H414.977Z" fill="#FFB000"/>
<path d="M542.111 286.854C538.853 306.363 426.869 302.439 419.632 302.164C417.9 303.957 411.799 309.762 406.6 308.626C400.466 307.276 395.272 303.617 391.497 305.395C387.722 307.173 383.394 310.879 380.853 310.702C377.829 310.522 374.854 309.862 372.038 308.747C373.828 306.176 375.758 303.705 377.818 301.345C375.594 302.341 372.582 304.459 370.949 305.241C370.255 305.609 369.457 305.733 368.685 305.594C367.912 305.455 367.208 305.06 366.686 304.473C366.686 304.473 372.271 299.451 374.3 298.24C376.222 297.076 382.212 294.227 385.125 294.018C388.644 293.506 409.532 289.363 419.148 290.345V290.434C423.364 289.302 500.549 268.657 505.985 267.489C505.985 267.489 486.824 204.607 484.232 194.231C481.639 183.855 480.764 153.159 488.649 153.904C493.768 154.393 505.404 155.496 512.185 171.086C517.016 182.165 546.16 262.773 542.111 286.854Z" fill="#FFD1CB"/>
<path d="M375.235 308.946C375.235 308.946 383.613 300.19 385.796 299.636C389.663 298.677 394.713 297.406 394.713 297.406" stroke="#EEB9AF" stroke-width="3" stroke-miterlimit="10" stroke-linecap="round"/>
<path d="M379.242 309.482C379.242 309.482 386.475 302.653 388.672 302.108C392.539 301.149 397.589 299.883 397.589 299.883" stroke="#EEB9AF" stroke-width="3" stroke-miterlimit="10" stroke-linecap="round"/>
<path d="M424.355 120.368C424.355 122.561 428.944 136.936 414.977 150.71C414.977 150.71 434.333 157.898 461.318 150.71C461.318 150.71 453.532 120.634 453.718 111.668L424.355 120.368Z" fill="#FFD1CB"/>
<path d="M450.921 118.356C449.525 132.787 434.343 144.225 419.915 144.77C427.725 133.057 424.355 122.248 424.355 120.367L450.447 112.547C450.712 114.809 451.047 117.072 450.921 118.356Z" fill="#F3C2B9"/>
<path d="M407.674 92.6611C406.008 90.7059 404.984 78.072 411.886 72.0995C425.002 60.741 449.236 55.923 463.762 64.0648C477.771 71.8993 483.351 82.2662 481.099 102.33C478.948 121.523 474.308 125.405 486.218 139.599C496.923 152.358 500.241 170.364 493.744 185.47C477.897 222.315 508.638 221.533 508.638 240.14H461.007C461.007 240.14 427.743 211.329 443.996 175.508C458.54 143.462 461.072 132.476 450.665 114.992C445.196 105.784 407.674 92.6611 407.674 92.6611Z" fill="#424D76"/>
<path d="M459.94 62.8828C472.195 66.8722 487.791 81.0889 485.538 101.148C483.388 120.341 478.748 124.228 490.635 138.417C501.339 151.176 504.658 169.187 498.161 184.288C482.336 221.138 513.054 220.356 513.054 238.958" stroke="#424D76" stroke-width="3" stroke-miterlimit="10"/>
<path d="M450.553 105.587C450.553 105.587 458 104.628 458.489 107.333C459.466 112.831 451.251 114.977 451.251 114.977C451.251 114.977 449.762 118.985 447.924 123.011C446.839 125.39 430.391 133.201 422.949 132.419C415.507 131.637 408.368 112.277 408.279 95.0156C408.205 82.4794 412.291 75.9297 420.906 75.9297C432.914 75.9297 438.527 84.8303 446.751 82.2886C446.737 82.2839 441.352 94.8155 450.553 105.587Z" fill="#FFD1CB"/>
<path d="M410.062 111.141C414.897 111.141 418.817 107.221 418.817 102.385C418.817 97.5492 414.897 93.6289 410.062 93.6289C405.227 93.6289 401.308 97.5492 401.308 102.385C401.308 107.221 405.227 111.141 410.062 111.141Z" stroke="#FFB000" stroke-width="4" stroke-miterlimit="10"/>
<path d="M431.895 111.141C436.73 111.141 440.65 107.221 440.65 102.385C440.65 97.5492 436.73 93.6289 431.895 93.6289C427.06 93.6289 423.141 97.5492 423.141 102.385C423.141 107.221 427.06 111.141 431.895 111.141Z" stroke="#FFB000" stroke-width="4" stroke-miterlimit="10"/>
<path d="M418.812 102.385H423.141" stroke="#FFB000" stroke-width="4" stroke-miterlimit="10"/>
<path d="M440.649 102.385H458.954" stroke="#FFB000" stroke-width="4" stroke-miterlimit="10"/>
</g>
<defs>
<clipPath id="clip0_406_8209">
<rect width="278.497" height="560" fill="white" transform="translate(264 60)"/>
</clipPath>
</defs>
</svg>
